<?xml version="1.0" encoding="utf-8"?>
<!-- Generator: Adobe Illustrator 18.0.0, SVG Export Plug-In . SVG Version: 6.00 Build 0)  -->
<!DOCTYPE svg PUBLIC "-//W3C//DTD SVG 1.1//EN" "http://www.w3.org/Graphics/SVG/1.1/DTD/svg11.dtd">
<svg version="1.1" id="Layer_1" xmlns="http://www.w3.org/2000/svg" xmlns:xlink="http://www.w3.org/1999/xlink" x="0px" y="0px"
	 viewBox="0 0 246 81.8" enable-background="new 0 0 246 81.8" xml:space="preserve">
<g>
	<g>
		<path fill="#FFC352" d="M45.8,73.4c-11.7,0-18-6.7-18-9.5c0-1.2,1.1-2.6,2.1-2.6c1.9,0,3.7,7.6,15.9,7.7V40
			c-8-2.7-16.3-5.2-16.3-17c0-11.6,8.7-14.9,16.3-15.3V4.9c0-0.8,0.8-1.7,1.9-1.7c0.9,0,1.8,0.8,1.8,1.7v2.8
			C56.3,7.8,63,10.3,63,12.8c0,0.9-0.9,2.7-2.1,2.7c-1.4,0-4.3-3-11.4-3.4v24.4c7.5,2.7,15.1,6.4,15.1,19.1c0,11-6.2,16.5-15.1,17.6
			v3.7c0,0.8-0.9,1.7-1.8,1.7c-1.1,0-1.9-0.8-1.9-1.7V73.4z M46,35.2V12c-6.2,0.5-12.1,2.9-12.1,10.6C33.9,30.6,39.5,33,46,35.2z
			 M49.5,41.4v27.3c7-1,10.7-5.3,10.7-12.8C60.2,47.1,55.2,43.8,49.5,41.4z"/>
		<path fill="#FFC352" d="M107.9,55.2v-1.7c0-8.8-5.4-13-13.9-13c-1.4,0-2-1.1-2-2.1c0-1.1,0.6-2.1,1.9-2.1
			c8.1,0,12.3-3.1,12.3-12.5c0-8.4-3.6-12.8-11.9-12.8c-10.6,0-12.6,6.7-12.6,10.7c0,1.6-0.7,2.6-2.3,2.6c-1.7,0-2.3-0.7-2.3-3.1
			c0-4.7,3-14.5,17.4-14.5c9.6,0,16.2,4.3,16.2,16.1c0,8.6-3.5,13.6-7.6,15.6c5.4,2.3,9.4,6.9,9.4,15.1v1.7
			c0,13.9-8.3,19.1-18.5,19.1c-12.6,0-18.5-8.1-18.5-14.8c0-2.2,0.7-2.8,2.1-2.8c1.8,0,2.4,1,2.4,2.2c0,3.9,2.7,11,13.8,11
			C102.7,69.9,107.9,65.3,107.9,55.2z"/>
		<path fill="#FFC352" d="M124.6,28.3v-2.4c0-14,8-19.3,18.4-19.3c10.5,0,18.5,5.2,18.5,19.3V55c0,14-8.1,19.3-18.5,19.3
			c-11.8,0-18.4-7.3-18.4-15.4c0-1.7,0.8-2.3,2.1-2.3c1.2,0,2.4,0.6,2.4,2.1c0,6.8,6.3,11.2,14,11.2c8.7,0,13.9-4.7,13.9-14.9V40
			c-3.1,4.5-8.4,6.5-14.3,6.5C132.5,46.5,124.6,42.2,124.6,28.3z M156.9,25.7c0-10.1-5.2-14.8-14-14.8c-8.6,0-13.8,4.7-13.8,14.8
			v2.5c0,10.2,5.1,14,13.9,14c8.4,0,13.9-3.6,13.9-13.2V25.7z"/>
		<path fill="#FFC352" d="M175.1,28.3v-2.4c0-14,8-19.3,18.4-19.3c10.5,0,18.5,5.2,18.5,19.3V55c0,14-8.1,19.3-18.5,19.3
			c-11.8,0-18.4-7.3-18.4-15.4c0-1.7,0.8-2.3,2.1-2.3c1.2,0,2.4,0.6,2.4,2.1c0,6.8,6.3,11.2,14,11.2c8.7,0,13.9-4.7,13.9-14.9V40
			c-3.1,4.5-8.4,6.5-14.3,6.5C183,46.5,175.1,42.2,175.1,28.3z M207.4,25.7c0-10.1-5.2-14.8-14-14.8c-8.6,0-13.8,4.7-13.8,14.8v2.5
			c0,10.2,5.1,14,13.9,14c8.4,0,13.9-3.6,13.9-13.2V25.7z"/>
	</g>
	<path fill="#6461FF" d="M6.3,57.8c-1.2,0-2.3-0.9-2.4-2.1c-0.2-1.3,0.8-2.6,2.1-2.8l233.3-32.3c1.3-0.2,2.6,0.8,2.8,2.1
		s-0.8,2.6-2.1,2.8L6.7,57.8C6.6,57.8,6.4,57.8,6.3,57.8z"/>
</g>
</svg>
