<?xml version="1.0" encoding="utf-8"?>
<!-- Generator: Adobe Illustrator 18.0.0, SVG Export Plug-In . SVG Version: 6.00 Build 0)  -->
<!DOCTYPE svg PUBLIC "-//W3C//DTD SVG 1.1//EN" "http://www.w3.org/Graphics/SVG/1.1/DTD/svg11.dtd">
<svg version="1.1" id="Layer_1" xmlns="http://www.w3.org/2000/svg" xmlns:xlink="http://www.w3.org/1999/xlink" x="0px" y="0px"
	 viewBox="0 0 180 150" enable-background="new 0 0 180 150" xml:space="preserve">
<g>
	<g>
		<path fill="#6461FF" d="M39,96.1c-0.2,0-0.5-0.1-0.7-0.2c-0.5-0.3-0.8-0.8-0.8-1.3V67.8c0-0.8,0.7-1.5,1.5-1.5s1.5,0.7,1.5,1.5
			v23.9l5.4-3.9c0.5-0.4,1.2-0.4,1.8,0l5.4,3.9V67.3c0-0.8,0.7-1.5,1.5-1.5s1.5,0.7,1.5,1.5v27.3c0,0.6-0.3,1.1-0.8,1.3
			c-0.5,0.3-1.1,0.2-1.6-0.1l-6.9-5l-6.9,5C39.6,96,39.3,96.1,39,96.1z"/>
		<path fill="#564273" d="M146.4,108.5H23.6c-0.8,0-1.5-0.7-1.5-1.5V33c0-0.8,0.7-1.5,1.5-1.5h122.8c0.8,0,1.5,0.7,1.5,1.5v74
			C147.9,107.8,147.3,108.5,146.4,108.5z M25.1,105.5h119.8v-71H25.1V105.5z"/>
		<path fill="#564273" d="M156.4,118.5H33.6c-0.8,0-1.5-0.7-1.5-1.5s0.7-1.5,1.5-1.5h121.3V43c0-0.8,0.7-1.5,1.5-1.5
			s1.5,0.7,1.5,1.5v74C157.9,117.8,157.3,118.5,156.4,118.5z"/>
		<path fill="#6461FF" d="M46.8,71.8c-6.4,0-11.7-5.2-11.7-11.7s5.2-11.7,11.7-11.7s11.7,5.2,11.7,11.7S53.3,71.8,46.8,71.8z
			 M46.8,51.4c-4.8,0-8.7,3.9-8.7,8.7s3.9,8.7,8.7,8.7s8.7-3.9,8.7-8.7S51.6,51.4,46.8,51.4z"/>
	</g>
	<rect x="75.2" y="53.4" fill="#FFF3DC" width="60.5" height="7.8"/>
	<rect x="75.2" y="66.4" fill="#FFF3DC" width="50.2" height="7.8"/>
	<rect x="75.2" y="79.4" fill="#FFF3DC" width="55.4" height="7.8"/>
</g>
</svg>
