<?xml version="1.0" encoding="utf-8"?>
<!-- Generator: Adobe Illustrator 18.0.0, SVG Export Plug-In . SVG Version: 6.00 Build 0)  -->
<!DOCTYPE svg PUBLIC "-//W3C//DTD SVG 1.1//EN" "http://www.w3.org/Graphics/SVG/1.1/DTD/svg11.dtd">
<svg version="1.1" id="Layer_1" xmlns="http://www.w3.org/2000/svg" xmlns:xlink="http://www.w3.org/1999/xlink" x="0px" y="0px"
	 viewBox="0 0 100 100" enable-background="new 0 0 100 100" xml:space="preserve">
<g>
	<g>
		<path fill="#564273" d="M86.6,96.6H13.4c-0.8,0-1.5-0.7-1.5-1.5V4.9c0-0.8,0.7-1.5,1.5-1.5h53.9c0.8,0,1.5,0.7,1.5,1.5v17.9h17.9
			c0.8,0,1.5,0.7,1.5,1.5v70.9C88.1,95.9,87.4,96.6,86.6,96.6z M14.9,93.6h70.2V25.7H67.2c-0.8,0-1.5-0.7-1.5-1.5V6.4H14.9V93.6z"/>
		<rect x="25.9" y="30.4" fill="#FFF3DC" width="45.6" height="7.8"/>
		<rect x="25.9" y="43.4" fill="#FFF3DC" width="45.6" height="7.8"/>
		<rect x="25.9" y="56.4" fill="#FFF3DC" width="45.6" height="7.8"/>
		<rect x="25.9" y="69.4" fill="#FFF3DC" width="45.6" height="7.8"/>
		<path fill="#564273" d="M86.6,25.7C86.6,25.7,86.6,25.7,86.6,25.7H67.2c-0.8,0-1.5-0.7-1.5-1.5V4.9c0-0.6,0.4-1.2,0.9-1.4
			c0.6-0.2,1.2-0.1,1.6,0.3l19.2,19.2c0.4,0.3,0.6,0.7,0.6,1.2C88.1,25.1,87.4,25.7,86.6,25.7z M68.7,22.7H83L68.7,8.5V22.7z"/>
	</g>
</g>
</svg>
