<?xml version="1.0" encoding="utf-8"?>
<!-- Generator: Adobe Illustrator 18.0.0, SVG Export Plug-In . SVG Version: 6.00 Build 0)  -->
<!DOCTYPE svg PUBLIC "-//W3C//DTD SVG 1.1//EN" "http://www.w3.org/Graphics/SVG/1.1/DTD/svg11.dtd">
<svg version="1.1" id="Layer_1" xmlns="http://www.w3.org/2000/svg" xmlns:xlink="http://www.w3.org/1999/xlink" x="0px" y="0px"
	 viewBox="0 0 100 100" enable-background="new 0 0 100 100" xml:space="preserve">
<g>
	<path fill="#564273" d="M50,94.2l-0.9-0.6C22.1,74.7,11.5,52.9,7.3,37.9C2.8,21.6,4.8,9.9,4.9,9.5L5,8.3l1.1-0.1
		C20.7,6.6,35.4,5.8,50,5.8s29.3,0.8,43.8,2.4L95,8.3l0.2,1.1c0.1,0.5,2,12.2-2.5,28.5c-4.1,15-14.7,36.8-41.8,55.7L50,94.2z
		 M7.7,11.1c-0.3,3.3-1,13.3,2.6,26.2c4,14.3,14.1,35.1,39.7,53.2c45-31.9,43.1-72.3,42.3-79.5C78.3,9.6,64.1,8.8,50,8.8
		C35.9,8.8,21.7,9.6,7.7,11.1z"/>
	<path fill="#FFF3DC" d="M50,82.5C17.8,57.8,13.9,29.1,13.9,17c12-1.1,24.1-1.7,36.1-1.7c12,0,24.2,0.6,36.2,1.7
		C86.2,29.1,82.4,57.7,50,82.5z"/>
	<path fill="#6461FF" d="M41.8,55C41.8,55,41.8,55,41.8,55c-0.4,0-0.8-0.2-1.1-0.5L32.8,46c-0.6-0.6-0.5-1.6,0.1-2.1
		c0.6-0.6,1.6-0.5,2.1,0.1l6.8,7.3l23.2-23.2c0.6-0.6,1.5-0.6,2.1,0c0.6,0.6,0.6,1.5,0,2.1L42.9,54.5C42.6,54.8,42.2,55,41.8,55z"/>
</g>
</svg>
