<?xml version="1.0" encoding="utf-8"?>
<!-- Generator: Adobe Illustrator 18.0.0, SVG Export Plug-In . SVG Version: 6.00 Build 0)  -->
<!DOCTYPE svg PUBLIC "-//W3C//DTD SVG 1.1//EN" "http://www.w3.org/Graphics/SVG/1.1/DTD/svg11.dtd">
<svg version="1.1" id="Layer_1" xmlns="http://www.w3.org/2000/svg" xmlns:xlink="http://www.w3.org/1999/xlink" x="0px" y="0px"
	 viewBox="0 0 180 150" enable-background="new 0 0 180 150" xml:space="preserve">
<g>
	<g>
		<g>
			<path fill="#564273" d="M152.6,126.6H79.4c-0.8,0-1.5-0.7-1.5-1.5V24.9c0-0.8,0.7-1.5,1.5-1.5h53.9c0.8,0,1.5,0.7,1.5,1.5v17.9
				h17.9c0.8,0,1.5,0.7,1.5,1.5v80.9C154.1,125.9,153.4,126.6,152.6,126.6z M80.9,123.6h70.2V45.7h-17.9c-0.8,0-1.5-0.7-1.5-1.5
				V26.4H80.9V123.6z"/>
			<rect x="91.9" y="50.4" fill="#FFF3DC" width="45.6" height="7.8"/>
			<rect x="91.9" y="63.4" fill="#FFF3DC" width="45.6" height="7.8"/>
			<rect x="91.9" y="76.4" fill="#FFF3DC" width="45.6" height="7.8"/>
			<rect x="91.9" y="89.4" fill="#FFF3DC" width="45.6" height="7.8"/>
			<path fill="#564273" d="M152.6,45.7C152.6,45.7,152.6,45.7,152.6,45.7h-19.4c-0.8,0-1.5-0.7-1.5-1.5V24.9c0-0.6,0.4-1.2,0.9-1.4
				c0.6-0.2,1.2-0.1,1.6,0.3l19.2,19.2c0.4,0.3,0.6,0.7,0.6,1.2C154.1,45.1,153.4,45.7,152.6,45.7z M134.7,42.7H149l-14.2-14.2V42.7
				z"/>
		</g>
	</g>
	<g>
		<g>
			<path fill="#FFFFFF" d="M47.6,55.9H31.8c-2.1,0-3.8-1.7-3.8-3.8V36.4c0-2.1,1.7-3.8,3.8-3.8h15.8c2.1,0,3.8,1.7,3.8,3.8v15.8
				C51.3,54.2,49.6,55.9,47.6,55.9z"/>
			<path fill="#564273" d="M47.6,57.4H31.8c-2.9,0-5.3-2.4-5.3-5.3V36.4c0-2.9,2.4-5.3,5.3-5.3h15.8c2.9,0,5.3,2.4,5.3,5.3v15.8
				C52.8,55,50.5,57.4,47.6,57.4z M31.8,34.1c-1.2,0-2.3,1-2.3,2.3v15.8c0,1.2,1,2.3,2.3,2.3h15.8c1.2,0,2.3-1,2.3-2.3V36.4
				c0-1.2-1-2.3-2.3-2.3H31.8z"/>
		</g>
		<path fill="#6461FF" d="M39.5,47.9c-0.4,0-0.8-0.2-1.1-0.5L35,43.8c-0.6-0.6-0.5-1.5,0.1-2.1c0.6-0.6,1.5-0.5,2.1,0.1l2.4,2.5
			l13.8-12.8c0.6-0.6,1.6-0.5,2.1,0.1c0.6,0.6,0.5,1.6-0.1,2.1L40.5,47.5C40.2,47.7,39.9,47.9,39.5,47.9z"/>
	</g>
	<g>
		<g>
			<path fill="#FFFFFF" d="M47,87.3H31.2c-2.1,0-3.8-1.7-3.8-3.8V67.8c0-2.1,1.7-3.8,3.8-3.8H47c2.1,0,3.8,1.7,3.8,3.8v15.8
				C50.7,85.6,49,87.3,47,87.3z"/>
			<path fill="#564273" d="M47,88.8H31.2c-2.9,0-5.3-2.4-5.3-5.3V67.8c0-2.9,2.4-5.3,5.3-5.3H47c2.9,0,5.3,2.4,5.3,5.3v15.8
				C52.2,86.5,49.9,88.8,47,88.8z M31.2,65.5c-1.2,0-2.3,1-2.3,2.3v15.8c0,1.2,1,2.3,2.3,2.3H47c1.2,0,2.3-1,2.3-2.3V67.8
				c0-1.2-1-2.3-2.3-2.3H31.2z"/>
		</g>
		<path fill="#6461FF" d="M38.9,79.3c-0.4,0-0.8-0.2-1.1-0.5l-3.4-3.6c-0.6-0.6-0.5-1.5,0.1-2.1c0.6-0.6,1.5-0.5,2.1,0.1l2.4,2.5
			l13.8-12.8c0.6-0.6,1.6-0.5,2.1,0.1c0.6,0.6,0.5,1.6-0.1,2.1L39.9,78.9C39.6,79.2,39.3,79.3,38.9,79.3z"/>
	</g>
	<g>
		<g>
			<path fill="#FFFFFF" d="M47,118.7H31.2c-2.1,0-3.8-1.7-3.8-3.8V99.2c0-2.1,1.7-3.8,3.8-3.8H47c2.1,0,3.8,1.7,3.8,3.8V115
				C50.7,117,49,118.7,47,118.7z"/>
			<path fill="#564273" d="M47,120.2H31.2c-2.9,0-5.3-2.4-5.3-5.3V99.2c0-2.9,2.4-5.3,5.3-5.3H47c2.9,0,5.3,2.4,5.3,5.3V115
				C52.2,117.9,49.9,120.2,47,120.2z M31.2,96.9c-1.2,0-2.3,1-2.3,2.3V115c0,1.2,1,2.3,2.3,2.3H47c1.2,0,2.3-1,2.3-2.3V99.2
				c0-1.2-1-2.3-2.3-2.3H31.2z"/>
		</g>
		<path fill="#6461FF" d="M38.9,110.7c-0.4,0-0.8-0.2-1.1-0.5l-3.4-3.6c-0.6-0.6-0.5-1.5,0.1-2.1c0.6-0.6,1.5-0.5,2.1,0.1l2.4,2.5
			l13.8-12.8c0.6-0.6,1.6-0.5,2.1,0.1s0.5,1.6-0.1,2.1l-14.9,13.8C39.6,110.6,39.3,110.7,38.9,110.7z"/>
	</g>
	<path fill="#564273" d="M79.4,77.2H50.7c-0.8,0-1.5-0.7-1.5-1.5c0-0.8,0.7-1.5,1.5-1.5h28.6c0.8,0,1.5,0.7,1.5,1.5
		C80.9,76.5,80.2,77.2,79.4,77.2z"/>
	<path fill="#564273" d="M79.4,45.7H51.3c-0.8,0-1.5-0.7-1.5-1.5s0.7-1.5,1.5-1.5h28.1c0.8,0,1.5,0.7,1.5,1.5S80.2,45.7,79.4,45.7z"
		/>
	<path fill="#564273" d="M79.4,108.6H50.7c-0.8,0-1.5-0.7-1.5-1.5s0.7-1.5,1.5-1.5h28.6c0.8,0,1.5,0.7,1.5,1.5
		S80.2,108.6,79.4,108.6z"/>
</g>
</svg>
