<?xml version="1.0" encoding="utf-8"?>
<!-- Generator: Adobe Illustrator 18.0.0, SVG Export Plug-In . SVG Version: 6.00 Build 0)  -->
<!DOCTYPE svg PUBLIC "-//W3C//DTD SVG 1.1//EN" "http://www.w3.org/Graphics/SVG/1.1/DTD/svg11.dtd">
<svg version="1.1" id="Layer_1" xmlns="http://www.w3.org/2000/svg" xmlns:xlink="http://www.w3.org/1999/xlink" x="0px" y="0px"
	 viewBox="0 0 160 40" enable-background="new 0 0 160 40" xml:space="preserve">
<g>
	<path fill="#858585" d="M36.7,3.2H8.3c-1.4,0-2.6,1.2-2.6,2.6v28.4c0,1.4,1.2,2.6,2.6,2.6h14.4h6.7h7.3c1.4,0,2.6-1.2,2.6-2.6V5.8
		C39.3,4.4,38.1,3.2,36.7,3.2z M24.4,35.1V22.7h-4.2v-3.1h4.2v-4.4c0-1.7,0.5-3.2,1.5-4.1c0.9-0.9,2.3-1.4,3.9-1.4
		c1.1,0,2.1,0.1,2.9,0.1v2.7l-1.7,0c-3.2,0-3.3,2.4-3.3,3.2v4h4.7l-0.4,3.1h-4.3v12.4H24.4z M37.6,34.2c0,0.5-0.4,0.9-0.9,0.9h-7.3
		V24.4h4.1l0.8-6.4h-4.9v-2.3c0-0.6,0.1-1,0.3-1.1c0.2-0.2,0.7-0.3,1.3-0.3l3.4,0V8.3l-0.8-0.1C33.2,8.2,31.7,8,29.8,8
		c-2.1,0-3.8,0.7-5.1,1.9c-1.3,1.3-2,3.1-2,5.3V18h-4.2v6.4h4.2v10.7H8.3c-0.5,0-0.9-0.4-0.9-0.9V5.8c0-0.5,0.4-0.9,0.9-0.9h28.4
		c0.5,0,0.9,0.4,0.9,0.9V34.2z"/>
	<g>
		<path fill="#858585" d="M57.8,12.8c0,0.2,0,0.3-0.1,0.4l-10,20c-0.2,0.3-0.5,0.5-0.9,0.5c-0.6,0-1.1-0.5-1.1-1
			c0-0.1,0-0.3,0.1-0.4l10.1-20.1c0.2-0.4,0.5-0.5,0.8-0.5C57.2,11.7,57.8,12.1,57.8,12.8z"/>
		<path fill="#858585" d="M58,21.4c-0.1-0.1-0.1-0.3-0.1-0.5c0-0.7,1.1-1.2,1.9-1.2c0.4,0,0.7,0.1,0.9,0.5l3.3,8.6l3.3-8.6
			c0.1-0.4,0.4-0.6,0.9-0.6c0.6,0,1.9,0.5,1.9,1.2c0,0.2-0.1,0.3-0.1,0.5l-4.6,11.1c-0.2,0.4-0.7,0.6-1.3,0.6
			c-0.6,0-1.1-0.2-1.3-0.6L58,21.4z"/>
		<path fill="#858585" d="M74.7,15.1c0,0.8-0.7,1.5-1.7,1.5c-0.9,0-1.7-0.7-1.7-1.5c0-0.8,0.7-1.5,1.7-1.5
			C74,13.6,74.7,14.3,74.7,15.1z M74.5,20.8v11.1c0,0.5-0.6,1-1.4,1c-0.8,0-1.4-0.5-1.4-1V20.8c0-0.5,0.6-0.9,1.4-0.9
			C73.9,19.8,74.5,20.2,74.5,20.8z"/>
		<path fill="#858585" d="M87.1,25v6.9c0,0.5-0.6,1-1.4,1c-0.7,0-1.3-0.4-1.3-1v-1c-1,1.1-2.3,2.1-4.1,2.1c-2,0-3.6-1.1-3.6-3.6
			c0-3.1,2.6-3.9,6.4-3.9h1.2V25c0-1.4-0.7-3-2.7-3c-2,0-2.5,0.8-3,0.8c-0.7,0-1-0.8-1-1.4c0-1,2.3-1.7,4.1-1.7
			C85.6,19.7,87.1,22.2,87.1,25z M84.3,27.1h-0.7c-2.1,0-4,0.2-4,2c0,1.2,0.8,1.8,1.8,1.8c1.4,0,2.9-1.4,2.9-2.7V27.1z"/>
		<path fill="#858585" d="M100.7,24.7c0,2.3-1.3,2.4-2.5,2.4h-5.8v0.6c0,1.8,1.4,3,3.6,3c1.9,0,2.6-1,3.3-1c0.7,0,1.1,0.8,1.1,1.3
			c0,0.8-1.8,2.1-4.5,2.1c-3.7,0-6.3-2.2-6.3-5.4V25c0-2.9,2.5-5.3,5.7-5.3C98.2,19.7,100.7,21.7,100.7,24.7z M97,25.3
			c0.8,0,1-0.2,1-0.8c0-1.4-1.2-2.6-2.8-2.6c-1.5,0-2.8,1.1-2.8,2.6v0.9H97z"/>
		<path fill="#858585" d="M113.9,13.1v18.8c0,0.5-0.6,1-1.4,1c-0.7,0-1.3-0.5-1.3-1v-1c-0.5,1.1-2.1,2.1-3.8,2.1
			c-2.6,0-4.8-2.6-4.8-5.4v-2.5c0-3,2.2-5.4,4.9-5.4c1.7,0,3,1,3.6,2.1v-8.7c0-0.5,0.6-0.9,1.4-0.9
			C113.3,12.1,113.9,12.5,113.9,13.1z M105.4,27.6c0,1.5,1.3,2.9,2.8,2.9c1.6,0,2.8-1.6,2.8-2.3v-3.1c0-1.8-1.4-2.8-2.8-2.8
			c-1.5,0-2.8,1.4-2.8,2.8V27.6z"/>
		<path fill="#858585" d="M116.8,27.6v-6.8c0-0.5,0.7-1,1.4-1c0.8,0,1.4,0.5,1.4,1v6.8c0,1.4,1.3,2.8,2.8,2.8c1.6,0,2.8-1.4,2.8-2.8
			v-6.9c0-0.5,0.7-0.9,1.4-0.9c0.8,0,1.4,0.4,1.4,0.9v6.9c0,2.9-2.5,5.4-5.6,5.4C119.3,33,116.8,30.5,116.8,27.6z"/>
		<path fill="#858585" d="M129.7,31.6c0-0.1,0-0.2,0-0.2l5.4-17.7c0.2-0.7,1-1,1.8-1c0.8,0,1.6,0.3,1.9,1l5.4,17.7
			c0,0.1,0.1,0.2,0.1,0.2c0,0.7-1,1.2-1.8,1.2c-0.5,0-0.8-0.2-1-0.6l-1.1-3.9h-6.8l-1.1,3.9c-0.1,0.4-0.5,0.6-1,0.6
			C130.7,32.8,129.7,32.3,129.7,31.6z M139.7,26l-2.7-9.4l-2.7,9.4H139.7z"/>
		<path fill="#858585" d="M152.3,22.2c-1.7,0-3.3,1.5-3.3,4v5.6c0,0.5-0.7,1-1.5,1s-1.4-0.5-1.4-1V20.8c0-0.5,0.6-0.9,1.4-0.9
			c0.7,0,1.3,0.4,1.3,0.9V22c0.6-1.1,1.9-2.3,3.5-2.3h0.9c0.6,0,1.1,0.6,1.1,1.3c0,0.7-0.5,1.3-1.1,1.3H152.3z"/>
	</g>
</g>
</svg>
