<?xml version="1.0" encoding="utf-8"?>
<!-- Generator: Adobe Illustrator 18.0.0, SVG Export Plug-In . SVG Version: 6.00 Build 0)  -->
<!DOCTYPE svg PUBLIC "-//W3C//DTD SVG 1.1//EN" "http://www.w3.org/Graphics/SVG/1.1/DTD/svg11.dtd">
<svg version="1.1" id="Layer_1" xmlns="http://www.w3.org/2000/svg" xmlns:xlink="http://www.w3.org/1999/xlink" x="0px" y="0px"
	 viewBox="0 0 230 200" enable-background="new 0 0 230 200" xml:space="preserve">
<g>
	<g>
		<circle fill="#FFF7E8" cx="131" cy="100" r="89.4"/>
		<path fill="#FFF7E8" d="M131,190.1c-49.7,0-90.1-40.4-90.1-90.1S81.3,9.9,131,9.9s90.1,40.4,90.1,90.1S180.7,190.1,131,190.1z
			 M131,11.4c-48.8,0-88.6,39.7-88.6,88.6s39.7,88.6,88.6,88.6s88.6-39.7,88.6-88.6S179.9,11.4,131,11.4z"/>
	</g>
	<path fill="#564273" d="M159.2,171.9c-1.1,0-2.2-0.3-3.2-0.9l-36.2-23.3c0,0-0.1,0-0.1,0H43.3c-19,0-34.5-15.5-34.5-34.5V66.2
		c0-19,15.5-34.5,34.5-34.5c1.5,0,2.8,1.2,2.8,2.8s-1.2,2.8-2.8,2.8c-16,0-29,13-29,29v46.9c0,16,13,29,29,29h76.3
		c1.1,0,2.2,0.3,3.1,0.9l36.2,23.3c0.1,0.1,0.2,0.1,0.3,0c0.1-0.1,0.1-0.2,0-0.3l-8.2-15.3c-1-1.8-0.9-4,0.1-5.7s2.9-2.8,5-2.8
		c13.2,0,23.9-10.7,23.9-23.9c0-1.5,1.2-2.8,2.8-2.8s2.8,1.2,2.8,2.8c0,16.3-13.2,29.5-29.5,29.5c0,0-0.1,0-0.2,0.1
		c-0.1,0.1,0,0.2,0,0.2l8.2,15.3c1.3,2.4,0.8,5.2-1.2,7C162,171.3,160.6,171.9,159.2,171.9z"/>
	<path fill="#564273" d="M182.9,103c-1.5,0-2.8-1.2-2.8-2.8v-34c0-16-13-29-29-29H61.3c-1.5,0-2.8-1.2-2.8-2.8s1.2-2.8,2.8-2.8h89.9
		c19,0,34.5,15.5,34.5,34.5v34C185.7,101.8,184.5,103,182.9,103z"/>
	<path fill="#FFFFFF" d="M126.4,137.4c-2-1.3-4.3-2-6.7-2H49.8c-15.9,0-28.8-12.9-28.8-28.8v-34c0-15.9,12.9-28.8,28.8-28.8h95
		c15.9,0,28.8,12.9,28.8,28.8v39.5c0,11.4-8,21.7-19.2,23.4c-3.6,0.6-6.8,2.7-8.7,5.9c0,0,0,0,0,0.1c-1.9,3.2-6,4.4-9.1,2.3
		L126.4,137.4z"/>
	<g>
		<g>
			<path fill="#6461FF" d="M65.7,93.3c4.8-3.7,4.9-6.4,4.9-10.9c0-1.7,0.9-3.6,5.1-3.6c3.6,0,4.8,1.3,4.8,5.8
				c0,7.5-3.3,11.1-5.8,13.2c-2.9,2.4-7.8,5.1-7.8,9.8c0,4,3.5,5.9,7.8,5.9c8.9,0,7-6.7,11.7-6.7c2.4,0,5.2,1.6,5.2,5
				c0,4.7-5.4,11.7-17.2,11.7c-11.2,0-18.6-6.2-18.6-14.4C55.9,101.1,63.3,95.1,65.7,93.3z M68.9,66.1c0-3.6,3-6.7,6.7-6.7
				s6.6,3.1,6.6,6.7c0,3.7-3,6.7-6.6,6.7C71.9,72.8,68.9,69.8,68.9,66.1z"/>
			<path fill="#6461FF" d="M124.6,89.7c-4.8,3.7-4.9,6.4-4.9,10.9c0,1.7-0.9,3.6-5.1,3.6c-3.6,0-4.8-1.3-4.8-5.8
				c0-7.5,3.3-11.1,5.8-13.2c2.9-2.4,7.8-5.1,7.8-9.8c0-4-3.5-5.9-7.8-5.9c-8.9,0-7,6.7-11.7,6.7c-2.4,0-5.2-1.6-5.2-5
				c0-4.7,5.4-11.7,17.2-11.7c11.2,0,18.6,6.2,18.6,14.4C134.3,82,126.9,87.9,124.6,89.7z M121.4,116.9c0,3.6-3,6.7-6.7,6.7
				c-3.7,0-6.6-3.1-6.6-6.7c0-3.7,3-6.7,6.6-6.7C118.3,110.2,121.4,113.3,121.4,116.9z"/>
		</g>
	</g>
	<g>
		<circle fill="#FF4B8B" cx="43.2" cy="34.5" r="6.4"/>
		<path fill="#564273" d="M43.2,43.2c-4.8,0-8.7-3.9-8.7-8.7s3.9-8.7,8.7-8.7s8.7,3.9,8.7,8.7S48,43.2,43.2,43.2z M43.2,30.5
			c-2.2,0-4,1.8-4,4s1.8,4,4,4s4-1.8,4-4S45.5,30.5,43.2,30.5z"/>
	</g>
	<g>
		<circle fill="#FFC352" cx="182.9" cy="100.2" r="6.4"/>
		<path fill="#564273" d="M182.9,108.9c-4.8,0-8.7-3.9-8.7-8.7s3.9-8.7,8.7-8.7s8.7,3.9,8.7,8.7S187.7,108.9,182.9,108.9z
			 M182.9,96.2c-2.2,0-4,1.8-4,4s1.8,4,4,4s4-1.8,4-4S185.2,96.2,182.9,96.2z"/>
	</g>
</g>
</svg>
