<?xml version="1.0" encoding="utf-8"?>
<!-- Generator: Adobe Illustrator 18.0.0, SVG Export Plug-In . SVG Version: 6.00 Build 0)  -->
<!DOCTYPE svg PUBLIC "-//W3C//DTD SVG 1.1//EN" "http://www.w3.org/Graphics/SVG/1.1/DTD/svg11.dtd">
<svg version="1.1" id="Layer_1" xmlns="http://www.w3.org/2000/svg" xmlns:xlink="http://www.w3.org/1999/xlink" x="0px" y="0px"
	 viewBox="0 0 190 59" enable-background="new 0 0 190 59" xml:space="preserve">
<g>
	<g>
		<g>
			<path fill="#FFFFFF" d="M53.9,44c0-0.1,0.1-0.3,0.2-0.4c0.1-0.1,0.3-0.2,0.5-0.2H56c0.5,0,0.9,0.1,1.3,0.2
				c0.4,0.2,0.7,0.4,0.9,0.6c0.2,0.3,0.4,0.6,0.5,1c0.1,0.4,0.2,0.8,0.2,1.2v1.2c0,0.4-0.1,0.8-0.2,1.1c-0.1,0.3-0.3,0.7-0.5,0.9
				c-0.2,0.3-0.5,0.5-0.9,0.6c-0.4,0.1-0.8,0.2-1.3,0.2h-1.4c-0.2,0-0.4-0.1-0.5-0.2c-0.1-0.1-0.2-0.2-0.2-0.4V44z M55.2,44.6v4.8
				H56c0.5,0,0.9-0.1,1.2-0.4c0.3-0.3,0.4-0.7,0.4-1.2v-1.5c0-0.5-0.1-1-0.4-1.3c-0.3-0.3-0.7-0.5-1.2-0.5H55.2z"/>
			<path fill="#FFFFFF" d="M60.4,46.2c0-0.4,0.1-0.8,0.2-1.1c0.1-0.4,0.3-0.7,0.5-0.9c0.2-0.3,0.5-0.5,0.9-0.6
				c0.4-0.1,0.8-0.2,1.2-0.2c0.5,0,0.9,0.1,1.3,0.2c0.4,0.1,0.6,0.4,0.9,0.6c0.2,0.3,0.4,0.6,0.5,0.9c0.1,0.4,0.2,0.7,0.2,1.1v1.6
				c0,0.4-0.1,0.8-0.2,1.1c-0.1,0.4-0.3,0.7-0.5,0.9c-0.2,0.3-0.5,0.5-0.9,0.6s-0.8,0.2-1.3,0.2c-0.5,0-0.9-0.1-1.2-0.2
				c-0.4-0.1-0.6-0.4-0.9-0.6s-0.4-0.6-0.5-0.9c-0.1-0.4-0.2-0.7-0.2-1.1V46.2z M61.6,47.8c0,0.6,0.1,1,0.4,1.3
				c0.3,0.3,0.6,0.4,1.1,0.4c0.5,0,0.9-0.1,1.1-0.4s0.4-0.7,0.4-1.3v-1.6c0-0.6-0.1-1-0.4-1.3c-0.3-0.3-0.6-0.4-1.1-0.4
				c-0.5,0-0.8,0.1-1.1,0.4c-0.3,0.3-0.4,0.7-0.4,1.3V47.8z"/>
			<path fill="#FFFFFF" d="M67.5,43.9c0-0.1,0.1-0.3,0.2-0.4c0.1-0.1,0.3-0.2,0.5-0.2c0.2,0,0.3,0,0.4,0.1c0.1,0.1,0.2,0.2,0.2,0.3
				l3,4.4v-4.3c0-0.1,0.1-0.3,0.2-0.4c0.1-0.1,0.3-0.2,0.5-0.2c0.2,0,0.3,0.1,0.4,0.2c0.1,0.1,0.2,0.2,0.2,0.4v6.3
				c0,0.1-0.1,0.3-0.2,0.4c-0.1,0.1-0.3,0.2-0.4,0.2c-0.2,0-0.3,0-0.4-0.1c-0.1-0.1-0.2-0.1-0.2-0.2l0-0.1l-3-4.3v4.2
				c0,0.1-0.1,0.3-0.2,0.4c-0.1,0.1-0.3,0.2-0.5,0.2c-0.2,0-0.4-0.1-0.5-0.2c-0.1-0.1-0.2-0.2-0.2-0.4V43.9z"/>
			<path fill="#FFFFFF" d="M74.8,44c0-0.1,0.1-0.3,0.2-0.4c0.1-0.1,0.3-0.2,0.5-0.2h1.4c0.5,0,0.9,0.1,1.3,0.2
				c0.4,0.2,0.7,0.4,0.9,0.6c0.2,0.3,0.4,0.6,0.5,1c0.1,0.4,0.2,0.8,0.2,1.2v1.2c0,0.4-0.1,0.8-0.2,1.1c-0.1,0.3-0.3,0.7-0.5,0.9
				c-0.2,0.3-0.5,0.5-0.9,0.6c-0.4,0.1-0.8,0.2-1.3,0.2h-1.4c-0.2,0-0.4-0.1-0.5-0.2c-0.1-0.1-0.2-0.2-0.2-0.4V44z M76.1,44.6v4.8
				h0.8c0.5,0,0.9-0.1,1.2-0.4c0.3-0.3,0.4-0.7,0.4-1.2v-1.5c0-0.5-0.1-1-0.4-1.3c-0.3-0.3-0.7-0.5-1.2-0.5H76.1z"/>
			<path fill="#FFFFFF" d="M85.6,43.6c0.1,0.1,0.2,0.3,0.2,0.4c0,0.2-0.1,0.3-0.2,0.4c-0.1,0.1-0.3,0.2-0.5,0.2h-2.5v1.7h1.7
				c0.2,0,0.4,0.1,0.5,0.2c0.1,0.1,0.2,0.3,0.2,0.4c0,0.2-0.1,0.3-0.2,0.4c-0.1,0.1-0.3,0.2-0.5,0.2h-1.7v1.8h2.5
				c0.2,0,0.4,0.1,0.5,0.2c0.1,0.1,0.2,0.3,0.2,0.4c0,0.2-0.1,0.3-0.2,0.4c-0.1,0.1-0.3,0.2-0.5,0.2H82c-0.2,0-0.4-0.1-0.5-0.2
				c-0.1-0.1-0.2-0.2-0.2-0.4V44c0-0.1,0.1-0.3,0.2-0.4c0.1-0.1,0.3-0.2,0.5-0.2h3.1C85.3,43.5,85.5,43.5,85.6,43.6z"/>
			<path fill="#FFFFFF" d="M94.2,43.6c0.1,0.1,0.2,0.3,0.2,0.4c0,0.2-0.1,0.3-0.2,0.4c-0.1,0.1-0.3,0.2-0.5,0.2h-2.5v1.7h1.7
				c0.2,0,0.4,0.1,0.5,0.2c0.1,0.1,0.2,0.3,0.2,0.4c0,0.2-0.1,0.3-0.2,0.4c-0.1,0.1-0.3,0.2-0.5,0.2h-1.7v1.8h2.5
				c0.2,0,0.4,0.1,0.5,0.2c0.1,0.1,0.2,0.3,0.2,0.4c0,0.2-0.1,0.3-0.2,0.4c-0.1,0.1-0.3,0.2-0.5,0.2h-3.1c-0.2,0-0.4-0.1-0.5-0.2
				C90,50.3,90,50.2,90,50.1V44c0-0.1,0.1-0.3,0.2-0.4c0.1-0.1,0.3-0.2,0.5-0.2h3.1C94,43.5,94.1,43.5,94.2,43.6z"/>
			<path fill="#FFFFFF" d="M99,48.6c-0.2,0-0.3-0.1-0.4-0.1c-0.1-0.1-0.2-0.2-0.3-0.3L97,45.5v4.7c0,0.1-0.1,0.3-0.2,0.4
				c-0.1,0.1-0.3,0.2-0.5,0.2c-0.2,0-0.4-0.1-0.5-0.2c-0.1-0.1-0.2-0.2-0.2-0.4v-6.3c0-0.1,0.1-0.3,0.2-0.4c0.1-0.1,0.3-0.2,0.5-0.2
				h0.2c0.2,0,0.4,0,0.5,0.1c0.1,0.1,0.2,0.2,0.3,0.3L99,47l1.6-3.3c0.1-0.1,0.2-0.2,0.3-0.3s0.3-0.1,0.5-0.1l0.2,0
				c0.2,0,0.4,0.1,0.5,0.2c0.1,0.1,0.2,0.2,0.2,0.4v6.3c0,0.1-0.1,0.3-0.2,0.4c-0.1,0.1-0.3,0.2-0.5,0.2c-0.2,0-0.3-0.1-0.4-0.2
				c-0.1-0.1-0.2-0.2-0.2-0.4v-4.7l-1.2,2.6c-0.1,0.1-0.1,0.2-0.3,0.3C99.3,48.5,99.2,48.6,99,48.6z"/>
			<path fill="#FFFFFF" d="M103.9,44c0-0.1,0.1-0.3,0.2-0.4c0.1-0.1,0.3-0.2,0.5-0.2h1.5c0.5,0,0.9,0.1,1.2,0.2
				c0.3,0.1,0.6,0.3,0.8,0.5c0.2,0.2,0.4,0.5,0.5,0.7c0.1,0.3,0.2,0.6,0.2,0.9v0.1c0,0.3,0,0.6-0.1,0.8c-0.1,0.3-0.3,0.5-0.5,0.7
				c-0.2,0.2-0.5,0.4-0.8,0.5c-0.3,0.1-0.8,0.2-1.3,0.2h-0.8v2.1c0,0.1-0.1,0.3-0.2,0.4c-0.1,0.1-0.3,0.2-0.5,0.2
				c-0.2,0-0.4-0.1-0.5-0.2c-0.1-0.1-0.2-0.3-0.2-0.4V44z M105.2,44.6V47h0.8c0.2,0,0.5,0,0.6-0.1c0.2-0.1,0.3-0.1,0.4-0.2
				c0.1-0.1,0.2-0.2,0.3-0.3c0.1-0.1,0.1-0.3,0.1-0.4v-0.3c0-0.3-0.1-0.6-0.3-0.8c-0.2-0.2-0.6-0.3-1.1-0.3H105.2z"/>
			<path fill="#FFFFFF" d="M110.1,43.9c0-0.1,0.1-0.3,0.2-0.4c0.1-0.1,0.3-0.2,0.5-0.2c0.2,0,0.3,0.1,0.5,0.2
				c0.1,0.1,0.2,0.2,0.2,0.4v6.3c0,0.1-0.1,0.3-0.2,0.4c-0.1,0.1-0.3,0.2-0.5,0.2c-0.2,0-0.4-0.1-0.5-0.2c-0.1-0.1-0.2-0.2-0.2-0.4
				V43.9z"/>
			<path fill="#FFFFFF" d="M117.3,43.6c0.1,0.1,0.2,0.3,0.2,0.4c0,0.2-0.1,0.3-0.2,0.4c-0.1,0.1-0.3,0.2-0.5,0.2h-2.5v1.7h1.7
				c0.2,0,0.4,0.1,0.5,0.2c0.1,0.1,0.2,0.3,0.2,0.4c0,0.2-0.1,0.3-0.2,0.4c-0.1,0.1-0.3,0.2-0.5,0.2h-1.7v1.8h2.5
				c0.2,0,0.4,0.1,0.5,0.2c0.1,0.1,0.2,0.3,0.2,0.4c0,0.2-0.1,0.3-0.2,0.4c-0.1,0.1-0.3,0.2-0.5,0.2h-3.1c-0.2,0-0.4-0.1-0.5-0.2
				c-0.1-0.1-0.2-0.2-0.2-0.4V44c0-0.1,0.1-0.3,0.2-0.4c0.1-0.1,0.3-0.2,0.5-0.2h3.1C117.1,43.5,117.2,43.5,117.3,43.6z"/>
			<path fill="#FFFFFF" d="M121.8,44.6h-2.7c-0.1,0-0.3,0-0.4-0.1s-0.2-0.2-0.2-0.4c0-0.2,0.1-0.3,0.2-0.4s0.2-0.1,0.4-0.1h3.8
				c0.1,0,0.3,0,0.4,0.1c0.1,0.1,0.2,0.2,0.2,0.4c0,0.2-0.1,0.3-0.2,0.4h0l-3.2,5.1h2.9c0.1,0,0.3,0,0.4,0.1
				c0.1,0.1,0.2,0.2,0.2,0.4c0,0.2-0.1,0.3-0.2,0.4c-0.1,0.1-0.2,0.1-0.4,0.1h-4c-0.1,0-0.3,0-0.4-0.1c-0.1-0.1-0.2-0.2-0.2-0.4
				c0-0.2,0.1-0.3,0.2-0.4L121.8,44.6z"/>
			<path fill="#FFFFFF" d="M130.2,50c0,0.1,0,0.3-0.1,0.4c-0.1,0.1-0.2,0.2-0.4,0.3c-0.2,0-0.3,0-0.5,0c-0.1-0.1-0.2-0.2-0.3-0.3
				l-0.4-1.3h-2.4l-0.4,1.3c0,0.1-0.1,0.2-0.3,0.3c-0.1,0.1-0.3,0.1-0.5,0c-0.2-0.1-0.3-0.1-0.4-0.3c-0.1-0.1-0.1-0.3-0.1-0.4
				l2.2-6.2c0-0.1,0.1-0.2,0.2-0.3c0.1-0.1,0.3-0.1,0.5-0.1c0.2,0,0.3,0,0.5,0.1c0.1,0.1,0.2,0.2,0.3,0.3L130.2,50z M126.4,47.9h1.7
				l-0.9-2.8L126.4,47.9z"/>
			<path fill="#FFFFFF" d="M138.4,43.5c0.2,0,0.4,0.1,0.5,0.2c0.1,0.1,0.2,0.3,0.2,0.4c0,0.2-0.1,0.3-0.2,0.4
				c-0.1,0.1-0.3,0.2-0.5,0.2h-1.5v5.5c0,0.1-0.1,0.3-0.2,0.4c-0.1,0.1-0.3,0.2-0.5,0.2c-0.2,0-0.4-0.1-0.5-0.2
				c-0.1-0.1-0.2-0.2-0.2-0.4v-5.5h-1.3c-0.2,0-0.3-0.1-0.5-0.2c-0.1-0.1-0.2-0.2-0.2-0.4c0-0.2,0.1-0.3,0.2-0.4
				c0.1-0.1,0.3-0.2,0.5-0.2H138.4z"/>
			<path fill="#FFFFFF" d="M142.8,50.7c-0.5,0-0.9-0.1-1.3-0.2c-0.3-0.1-0.6-0.3-0.9-0.6c-0.2-0.2-0.4-0.5-0.5-0.8
				c-0.1-0.3-0.2-0.7-0.2-1v-4.2c0-0.1,0.1-0.3,0.2-0.4c0.1-0.1,0.3-0.2,0.5-0.2c0.2,0,0.3,0.1,0.5,0.2c0.1,0.1,0.2,0.2,0.2,0.4v4.2
				c0,0.9,0.5,1.4,1.5,1.4c1,0,1.4-0.5,1.4-1.4v-4.2c0-0.1,0.1-0.3,0.2-0.4c0.1-0.1,0.3-0.2,0.5-0.2c0.2,0,0.4,0.1,0.5,0.2
				c0.1,0.1,0.2,0.2,0.2,0.4v4.2c0,0.3-0.1,0.7-0.2,1c-0.1,0.3-0.3,0.6-0.5,0.8c-0.2,0.2-0.5,0.4-0.9,0.6
				C143.7,50.6,143.2,50.7,142.8,50.7z"/>
			<path fill="#FFFFFF" d="M154.2,43.6c0.1,0.1,0.2,0.3,0.2,0.4c0,0.2-0.1,0.3-0.2,0.4c-0.1,0.1-0.3,0.2-0.5,0.2h-2.4v1.9h1.7
				c0.2,0,0.4,0.1,0.5,0.2c0.1,0.1,0.2,0.3,0.2,0.4c0,0.2-0.1,0.3-0.2,0.4c-0.1,0.1-0.3,0.2-0.5,0.2h-1.7v2.5c0,0.1-0.1,0.3-0.2,0.4
				c-0.1,0.1-0.3,0.2-0.5,0.2c-0.2,0-0.4-0.1-0.5-0.2c-0.1-0.1-0.2-0.2-0.2-0.4V44c0-0.1,0.1-0.3,0.2-0.4c0.1-0.1,0.3-0.2,0.5-0.2h3
				C154,43.5,154.1,43.5,154.2,43.6z"/>
			<path fill="#FFFFFF" d="M158.3,50.7c-0.5,0-0.9-0.1-1.3-0.2c-0.3-0.1-0.6-0.3-0.9-0.6c-0.2-0.2-0.4-0.5-0.5-0.8
				c-0.1-0.3-0.2-0.7-0.2-1v-4.2c0-0.1,0.1-0.3,0.2-0.4c0.1-0.1,0.3-0.2,0.5-0.2c0.2,0,0.3,0.1,0.5,0.2c0.1,0.1,0.2,0.2,0.2,0.4v4.2
				c0,0.9,0.5,1.4,1.5,1.4c1,0,1.4-0.5,1.4-1.4v-4.2c0-0.1,0.1-0.3,0.2-0.4c0.1-0.1,0.3-0.2,0.5-0.2c0.2,0,0.4,0.1,0.5,0.2
				c0.1,0.1,0.2,0.2,0.2,0.4v4.2c0,0.3-0.1,0.7-0.2,1c-0.1,0.3-0.3,0.6-0.5,0.8c-0.2,0.2-0.5,0.4-0.9,0.6
				C159.2,50.6,158.8,50.7,158.3,50.7z"/>
			<path fill="#FFFFFF" d="M166.9,43.5c0.2,0,0.4,0.1,0.5,0.2c0.1,0.1,0.2,0.3,0.2,0.4c0,0.2-0.1,0.3-0.2,0.4
				c-0.1,0.1-0.3,0.2-0.5,0.2h-1.5v5.5c0,0.1-0.1,0.3-0.2,0.4c-0.1,0.1-0.3,0.2-0.5,0.2c-0.2,0-0.4-0.1-0.5-0.2
				c-0.1-0.1-0.2-0.2-0.2-0.4v-5.5h-1.3c-0.2,0-0.3-0.1-0.5-0.2c-0.1-0.1-0.2-0.2-0.2-0.4c0-0.2,0.1-0.3,0.2-0.4
				c0.1-0.1,0.3-0.2,0.5-0.2H166.9z"/>
			<path fill="#FFFFFF" d="M171.3,50.7c-0.5,0-0.9-0.1-1.3-0.2c-0.3-0.1-0.6-0.3-0.9-0.6c-0.2-0.2-0.4-0.5-0.5-0.8
				c-0.1-0.3-0.2-0.7-0.2-1v-4.2c0-0.1,0.1-0.3,0.2-0.4c0.1-0.1,0.3-0.2,0.5-0.2c0.2,0,0.3,0.1,0.5,0.2c0.1,0.1,0.2,0.2,0.2,0.4v4.2
				c0,0.9,0.5,1.4,1.5,1.4c1,0,1.4-0.5,1.4-1.4v-4.2c0-0.1,0.1-0.3,0.2-0.4c0.1-0.1,0.3-0.2,0.5-0.2c0.2,0,0.4,0.1,0.5,0.2
				c0.1,0.1,0.2,0.2,0.2,0.4v4.2c0,0.3-0.1,0.7-0.2,1c-0.1,0.3-0.3,0.6-0.5,0.8c-0.2,0.2-0.5,0.4-0.9,0.6
				C172.2,50.6,171.8,50.7,171.3,50.7z"/>
			<path fill="#FFFFFF" d="M175.7,44c0-0.1,0.1-0.3,0.2-0.4c0.1-0.1,0.3-0.2,0.5-0.2h1.6c0.5,0,0.9,0.1,1.3,0.2
				c0.3,0.1,0.6,0.2,0.8,0.4c0.2,0.2,0.4,0.4,0.5,0.7c0.1,0.3,0.1,0.6,0.1,0.9v0.1c0,0.4-0.1,0.7-0.3,1c-0.2,0.3-0.5,0.5-0.9,0.7
				l1.2,2.5c0.1,0.1,0.1,0.2,0,0.4c-0.1,0.2-0.2,0.3-0.3,0.4c-0.2,0.1-0.3,0.1-0.5,0.1c-0.2,0-0.3-0.1-0.3-0.2l-1.2-2.7
				c-0.1,0-0.1,0-0.2,0c-0.1,0-0.1,0-0.2,0H177v2.4c0,0.1-0.1,0.2-0.2,0.3c-0.1,0.1-0.3,0.2-0.5,0.2c-0.2,0-0.4-0.1-0.5-0.2
				c-0.1-0.1-0.2-0.2-0.2-0.4V44z M177,44.6v2.1h0.9c0.5,0,0.9-0.1,1.1-0.3c0.2-0.2,0.3-0.4,0.3-0.7v-0.2c0-0.3-0.1-0.6-0.3-0.7
				c-0.2-0.2-0.6-0.3-1.1-0.3H177z"/>
			<path fill="#FFFFFF" d="M181.9,46.2c0-0.4,0.1-0.8,0.2-1.1c0.1-0.4,0.3-0.7,0.5-0.9c0.2-0.3,0.5-0.5,0.9-0.6
				c0.4-0.1,0.8-0.2,1.2-0.2c0.5,0,0.9,0.1,1.3,0.2c0.4,0.1,0.6,0.4,0.9,0.6c0.2,0.3,0.4,0.6,0.5,0.9c0.1,0.4,0.2,0.7,0.2,1.1v1.6
				c0,0.4-0.1,0.8-0.2,1.1c-0.1,0.4-0.3,0.7-0.5,0.9c-0.2,0.3-0.5,0.5-0.9,0.6c-0.4,0.1-0.8,0.2-1.3,0.2c-0.5,0-0.9-0.1-1.2-0.2
				s-0.6-0.4-0.9-0.6s-0.4-0.6-0.5-0.9c-0.1-0.4-0.2-0.7-0.2-1.1V46.2z M183.2,47.8c0,0.6,0.1,1,0.4,1.3c0.3,0.3,0.6,0.4,1.1,0.4
				c0.5,0,0.9-0.1,1.1-0.4c0.3-0.3,0.4-0.7,0.4-1.3v-1.6c0-0.6-0.1-1-0.4-1.3c-0.3-0.3-0.6-0.4-1.1-0.4c-0.5,0-0.8,0.1-1.1,0.4
				c-0.3,0.3-0.4,0.7-0.4,1.3V47.8z"/>
		</g>
		<g>
			<path fill="#FFFFFF" d="M67.4,36.2c-0.1,0.5-0.5,0.9-1,1.3c-0.5,0.4-1.2,0.6-1.9,0.6c-0.7,0-1.4-0.2-1.9-0.6
				c-0.5-0.4-0.9-0.8-1-1.3l-7.2-18.5c-0.1-0.5-0.1-1,0.3-1.6c0.3-0.5,0.9-0.9,1.7-1.1c0.7-0.2,1.4-0.1,2,0.2
				c0.6,0.3,0.9,0.7,1.1,1.2l5,15.2l5-15.2c0.2-0.5,0.6-0.9,1.1-1.2s1.2-0.4,1.9-0.2c0.8,0.2,1.4,0.6,1.7,1.1
				c0.3,0.6,0.4,1.1,0.3,1.6L67.4,36.2z"/>
			<path fill="#FFFFFF" d="M80.1,8.9c0-0.5,0.2-1,0.7-1.4c0.5-0.4,1.1-0.6,1.9-0.6c0.8,0,1.4,0.2,1.9,0.6c0.5,0.4,0.7,0.9,0.7,1.4
				V10c0,0.5-0.2,1-0.7,1.4c-0.5,0.4-1.1,0.6-1.9,0.6c-0.8,0-1.5-0.2-1.9-0.6c-0.5-0.4-0.7-0.9-0.7-1.4V8.9z M80.1,16.9
				c0-0.5,0.2-1,0.7-1.5c0.5-0.4,1.1-0.6,1.9-0.6c0.8,0,1.4,0.2,1.9,0.6c0.5,0.4,0.7,0.9,0.7,1.5v19c0,0.5-0.2,1-0.7,1.5
				c-0.5,0.4-1.1,0.6-1.9,0.6c-0.8,0-1.5-0.2-1.9-0.6c-0.5-0.4-0.7-0.9-0.7-1.5V16.9z"/>
			<path fill="#FFFFFF" d="M108.8,38.3c-0.7,0-1.3-0.2-1.8-0.6c-0.5-0.4-0.7-0.9-0.7-1.5v-0.7l-0.4-0.1c-0.3,0.4-0.6,0.7-0.9,1.1
				c-0.3,0.3-0.7,0.6-1.1,0.9c-0.4,0.3-1,0.4-1.6,0.6c-0.6,0.1-1.4,0.2-2.3,0.2c-1.4,0-2.7-0.3-3.7-0.8c-1.1-0.5-1.9-1.2-2.6-2
				c-0.7-0.8-1.2-1.8-1.5-2.9c-0.3-1.1-0.5-2.2-0.5-3.3v-3.9c0-1.2,0.2-2.5,0.7-3.7c0.4-1.2,1.1-2.3,2-3.3c0.9-1,1.9-1.8,3.3-2.4
				c1.3-0.6,2.8-0.9,4.6-0.9c1.6,0,3.1,0.2,4.2,0.7c1.2,0.4,2.2,1.1,2.9,1.9c0.8,0.8,1.3,1.7,1.7,2.8c0.4,1.1,0.5,2.2,0.5,3.5v12.5
				c0,0.5-0.2,1-0.7,1.5C110.3,38.1,109.6,38.3,108.8,38.3z M106.3,23.8c0-1.5-0.4-2.5-1.1-3.1c-0.7-0.6-1.8-0.9-3.1-0.9
				c-0.8,0-1.5,0.1-2.1,0.4c-0.6,0.3-1.2,0.7-1.6,1.2c-0.4,0.5-0.8,1-1,1.7c-0.3,0.6-0.4,1.3-0.4,2v4.3c0,1.1,0.4,2,1.2,2.8
				c0.8,0.8,1.8,1.2,3,1.2c0.7,0,1.3-0.1,1.9-0.3c0.6-0.2,1.2-0.5,1.6-1c0.5-0.4,0.9-1,1.2-1.6c0.3-0.7,0.4-1.4,0.4-2.3V23.8z"/>
			<path fill="#FFFFFF" d="M136.4,23.9c0,1.4-0.3,2.4-0.8,2.9s-1.4,0.8-2.7,0.8h-10.6v1.2c0,1.4,0.4,2.6,1.3,3.4
				c0.9,0.9,2.1,1.3,3.7,1.3c0.8,0,1.5-0.1,2.2-0.2c0.7-0.1,1.2-0.2,1.6-0.4c0.4-0.2,0.8-0.4,1.2-0.6c0.4-0.2,0.7-0.3,1.1-0.3
				c0.6,0,1.1,0.2,1.4,0.5c0.3,0.4,0.5,0.8,0.5,1.4c0,0.5-0.2,1-0.6,1.4c-0.4,0.5-1,0.9-1.7,1.3c-0.7,0.4-1.6,0.7-2.5,1
				c-1,0.3-2,0.4-3.1,0.4c-1.5,0-2.9-0.2-4.2-0.7c-1.2-0.5-2.3-1.1-3.2-1.9c-0.9-0.8-1.6-1.7-2.1-2.8c-0.5-1.1-0.8-2.2-0.8-3.5v-4.7
				c0-1.3,0.2-2.5,0.7-3.7c0.5-1.2,1.2-2.2,2-3c0.9-0.9,1.9-1.5,3.1-2.1c1.2-0.5,2.5-0.8,3.9-0.8c1.7,0,3.1,0.3,4.3,0.8
				c1.2,0.6,2.2,1.3,2.9,2.1c0.8,0.9,1.3,1.9,1.7,2.9C136.2,21.8,136.4,22.9,136.4,23.9z M126.9,19.2c-1.3,0-2.4,0.4-3.2,1.3
				c-0.8,0.8-1.2,2-1.4,3.4h9.1v-0.7c0-1.2-0.4-2.2-1.3-2.9C129.3,19.5,128.2,19.2,126.9,19.2z"/>
			<path fill="#FFFFFF" d="M150.3,14.8c1.2,0,2.3,0.2,3.2,0.7c0.9,0.5,1.7,1.1,2.3,1.8l0.3,0V9.1c0-0.5,0.2-1,0.7-1.5
				c0.5-0.4,1.1-0.6,1.8-0.6c0.8,0,1.5,0.2,2,0.6c0.5,0.4,0.7,0.9,0.7,1.5v19.2c0,1.4-0.2,2.7-0.6,3.9c-0.4,1.2-1,2.2-1.9,3.1
				c-0.8,0.9-1.8,1.5-3.1,2c-1.2,0.5-2.7,0.7-4.3,0.7c-1.8,0-3.3-0.3-4.6-0.8c-1.3-0.5-2.4-1.3-3.2-2.2c-0.9-0.9-1.5-2-1.9-3.2
				c-0.4-1.2-0.6-2.6-0.6-4V25c0-1.4,0.2-2.7,0.5-4c0.4-1.2,0.9-2.3,1.7-3.2c0.7-0.9,1.7-1.7,2.9-2.2
				C147.3,15.1,148.7,14.8,150.3,14.8z M151.5,33.2c1.3,0,2.4-0.4,3.3-1.1c0.9-0.7,1.4-1.9,1.4-3.6v-4.3c-0.1-1.6-0.5-2.7-1.5-3.5
				c-0.9-0.7-2-1.1-3.2-1.1c-1.5,0-2.8,0.5-3.7,1.4c-0.9,0.9-1.4,2.2-1.4,3.8V28c0,1.6,0.5,2.8,1.4,3.7
				C148.7,32.7,149.9,33.2,151.5,33.2z"/>
			<path fill="#FFFFFF" d="M177.7,38c-1.6,0-3.1-0.2-4.3-0.7c-1.2-0.5-2.3-1.2-3.1-2.1c-0.8-0.9-1.5-1.9-1.9-3.1
				c-0.4-1.2-0.6-2.5-0.6-3.9V17c0-0.5,0.2-1,0.7-1.5c0.5-0.4,1.1-0.6,1.9-0.6c0.8,0,1.4,0.2,1.9,0.6c0.5,0.4,0.7,0.9,0.7,1.5v11.4
				c0,1.6,0.4,2.8,1.3,3.6c0.9,0.8,2,1.2,3.3,1.2s2.4-0.4,3.3-1.2c0.9-0.8,1.3-2,1.3-3.6V17c0-0.5,0.2-1,0.7-1.5
				c0.5-0.4,1.1-0.6,1.9-0.6c0.8,0,1.4,0.2,1.9,0.6c0.5,0.4,0.8,0.9,0.8,1.5v11.2c0,1.4-0.2,2.7-0.6,3.9c-0.4,1.2-1,2.2-1.9,3.1
				c-0.8,0.9-1.9,1.6-3.1,2.1C180.8,37.8,179.3,38,177.7,38z"/>
		</g>
	</g>
	<g>
		<path fill="#FFFFFF" d="M35.5,38.6l-3.2,6.1c-2.7,5.1-10.2,6.1-12.9,0.3c0-0.1-0.1-0.1-0.1-0.2c0,0,0-0.1-0.1-0.1L16,38.6
			L6.2,20.1c-1.5-3.6,0.1-7.7,3.6-9.3c0.9-0.4,1.9-0.6,2.9-0.6c2.8,0,5.4,1.7,6.5,4.2c0,0,0,0.1,0.1,0.1l4.6,8.8l1.8,3.5l1.8-3.5
			l-1.8-3.5l-3.6-6.8C20.5,9.4,16.8,7,12.7,7c-1.4,0-2.8,0.3-4.2,0.9C6,9,4.1,11,3.1,13.6c-1,2.6-0.9,5.4,0.2,7.9c0,0,0,0.1,0.1,0.1
			l13,24.6c0,0.1,0.1,0.2,0.1,0.3c0,0.1,0.1,0.2,0.1,0.3c0.1,0.2,0.2,0.4,0.3,0.6c4.4,7.2,15.4,6.2,18.5-1.7
			C36.3,43.4,36.3,40.9,35.5,38.6z"/>
		<g>
			<path fill="#FFFFFF" d="M35.1,46.3c0.1-0.2,0.2-0.4,0.3-0.7C35.1,46.4,35,46.6,35.1,46.3z"/>
			<path fill="#FFFFFF" d="M48.4,13.6C48.7,14.2,48.9,14.9,48.4,13.6C47.9,12.3,48.2,12.9,48.4,13.6C47.4,11,45.5,9,43,7.9
				C41.6,7.3,40.2,7,38.8,7c-4.1,0-7.8,2.4-9.4,6.1l-2.9,5.5l0.4,0.7l1.4,2.7l4-7.5c0,0,0-0.1,0.1-0.1c1.1-2.6,3.7-4.2,6.5-4.2
				c1,0,1.9,0.2,2.9,0.6c1.7,0.8,3.1,2.2,3.8,3.9c0.7,1.8,0.6,3.7-0.1,5.4l-9,17l0.4,1.1c0.4,1.3,0.6,2.6,0.6,3.9l10.9-20.5
				c0,0,0-0.1,0.1-0.1C49.4,19,49.4,16.2,48.4,13.6z"/>
		</g>
		<circle fill="#FFFFFF" cx="12.7" cy="17.3" r="2.4"/>
		<circle fill="#FFFFFF" cx="38.8" cy="17.3" r="2.4"/>
		<circle fill="#FFFFFF" cx="25.8" cy="41.9" r="2.4"/>
		<g>
			<g>
				<g>
					<path fill="#FFFFFF" d="M25.8,36.6l-9.6-18.1c-0.1,0.4-0.4,0.8-0.7,1.2c-0.7,0.8-1.7,1.3-2.8,1.3c-0.2,0-0.5,0-0.7-0.1
						c-0.1,0-0.2,0-0.3-0.1l10.6,20c0.1-0.4,0.4-0.8,0.7-1.2c0.7-0.8,1.7-1.3,2.8-1.3c0.2,0,0.5,0,0.7,0.1c0.1,0,0.2,0,0.3,0.1
						L25.8,36.6z"/>
					<path fill="#FFFFFF" d="M26.9,36l1,1.9l1.4,2.8l10.5-19.8c-0.3,0.1-0.7,0.1-1,0.1c-0.2,0-0.5,0-0.7-0.1
						c-1.3-0.2-2.3-1.2-2.7-2.4l-8.9,16.8L26.9,36z"/>
				</g>
			</g>
		</g>
	</g>
</g>
</svg>
