<?xml version="1.0" encoding="utf-8"?>
<!-- Generator: Adobe Illustrator 18.0.0, SVG Export Plug-In . SVG Version: 6.00 Build 0)  -->
<!DOCTYPE svg PUBLIC "-//W3C//DTD SVG 1.1//EN" "http://www.w3.org/Graphics/SVG/1.1/DTD/svg11.dtd">
<svg version="1.1" id="Layer_1" xmlns="http://www.w3.org/2000/svg" xmlns:xlink="http://www.w3.org/1999/xlink" x="0px" y="0px"
	 viewBox="0 0 228.7 102.7" enable-background="new 0 0 228.7 102.7" xml:space="preserve">
<g>
	<g>
		<g>
			<path fill="#ADAB36" d="M92.3,11.7c-0.2,0.4-0.3,0.8-0.3,1.2l-4.6,24.8h9l3.1-16.7c0,0,0-0.1,0-0.1c0.1-0.1,0.1-0.2,0.2-0.3
				c0,0,0,0,0,0c0.2-0.2,0.5-0.3,0.7-0.3c0,0,0.1,0,0.1,0c0.2,0,0.4,0.1,0.6,0.3c0,0,0,0,0,0c0.1,0.1,0.2,0.2,0.2,0.3
				c0,0,0,0.1,0,0.1l1,5.3h9l-2.5-13.3c-0.1-0.4-0.2-0.8-0.3-1.2c-0.4-1-1.1-1.8-2.1-2.6c-0.6-0.5-1.3-0.9-2-1.2
				c-0.4-0.2-0.7-0.3-1.1-0.4c-0.6-0.2-1.3-0.3-2-0.4c-0.3,0-0.6,0-1,0c-0.3,0-0.6,0-1,0c-1.1,0.1-2.2,0.3-3.1,0.7
				c-0.7,0.3-1.4,0.7-2,1.2C93.4,9.9,92.7,10.8,92.3,11.7z"/>
			<path fill="#474451" d="M16.6,7.9h-9L11,26.2h9L16.6,7.9z"/>
			<path fill="#EAB82D" d="M61.8,11.7c-0.2,0.4-0.3,0.8-0.3,1.2l-4.6,24.8h9L69,20.9c0,0,0-0.1,0-0.1c0.1-0.1,0.1-0.2,0.2-0.3
				c0,0,0,0,0,0c0.2-0.2,0.5-0.3,0.7-0.3c0,0,0.1,0,0.1,0c0.2,0,0.4,0.1,0.6,0.3c0,0,0,0,0,0c0.1,0.1,0.2,0.2,0.2,0.3
				c0,0,0,0.1,0,0.1l1,5.3h9l-2.5-13.3c-0.1-0.4-0.2-0.8-0.3-1.2c-0.4-1-1.1-1.8-2.1-2.6c-0.6-0.5-1.3-0.9-2-1.2
				c-0.4-0.2-0.7-0.3-1.1-0.4c-0.6-0.2-1.3-0.3-2-0.4c-0.3,0-0.6,0-1,0c-0.3,0-0.6,0-1,0c-1.1,0.1-2.2,0.3-3.1,0.7
				c-0.7,0.3-1.4,0.7-2,1.2C62.9,9.9,62.2,10.8,61.8,11.7z"/>
			<path fill="#D82D50" d="M48,12.9c-0.1-0.4-0.2-0.8-0.3-1.2c-0.4-1-1.1-1.8-2.1-2.6c-0.6-0.5-1.3-0.9-2-1.2
				c-0.4-0.2-0.7-0.3-1.1-0.4c-0.6-0.2-1.3-0.3-2-0.4c-0.3,0-0.6,0-1,0c-0.3,0-0.6,0-1,0c-1.1,0.1-2.2,0.3-3.1,0.7
				c-0.7,0.3-1.4,0.7-2,1.2c-1,0.8-1.7,1.6-2.1,2.6c-0.2,0.4-0.3,0.8-0.3,1.2l-4.6,24.8h9l3.1-16.7c0,0,0-0.1,0-0.1
				c0.1-0.1,0.1-0.2,0.2-0.3c0,0,0,0,0,0c0.2-0.2,0.5-0.3,0.7-0.3c0,0,0.1,0,0.1,0c0.2,0,0.4,0.1,0.6,0.3c0,0,0,0,0,0
				c0.1,0.1,0.2,0.2,0.2,0.3c0,0,0,0.1,0,0.1l1,5.3h9L48,12.9z"/>
			<path fill="#EF742B" d="M54.7,44.4c-0.3,0-0.5-0.1-0.7-0.3c0,0,0,0,0,0c-0.1-0.1-0.1-0.2-0.2-0.3c0,0,0-0.1,0-0.1l-3.3-17.5h-9
				l4.8,25.5c0.1,0.4,0.2,0.8,0.3,1.2c0.4,1,1.1,1.8,2.1,2.6c0.6,0.5,1.3,0.9,2.1,1.2c0.9,0.4,2,0.6,3,0.7c0.3,0,0.6,0,1,0
				c0.3,0,0.6,0,1,0c1.1-0.1,2.1-0.3,3-0.7c0.7-0.3,1.4-0.7,2.1-1.2c1-0.8,1.7-1.6,2.1-2.6c0.2-0.4,0.3-0.8,0.3-1.2l2.6-14.1h-9
				l-1.1,6.1c0,0,0,0.1,0,0.1c0,0.1-0.1,0.2-0.2,0.3c0,0,0,0,0,0C55.3,44.3,55,44.4,54.7,44.4z"/>
			<path fill="#474451" d="M76.7,51.7c0.1,0.4,0.2,0.8,0.3,1.2c0.4,1,1.1,1.8,2.1,2.6c0.6,0.5,1.3,0.9,2.1,1.2c0.9,0.4,2,0.6,3,0.7
				c0.3,0,0.6,0,1,0c0.3,0,0.6,0,1,0c1.1-0.1,2.1-0.3,3-0.7c0.7-0.3,1.4-0.7,2.1-1.2c1-0.8,1.7-1.6,2.1-2.6c0.2-0.4,0.3-0.8,0.3-1.2
				l2.6-14.1h-9l-1.1,6.1c0,0,0,0.1,0,0.1c0,0.1-0.1,0.2-0.2,0.3c0,0,0,0,0,0c-0.2,0.2-0.4,0.3-0.7,0.3c-0.3,0-0.5-0.1-0.7-0.3
				c0,0,0,0,0,0c-0.1-0.1-0.1-0.2-0.2-0.3c0,0,0-0.1,0-0.1l-3.3-17.5h-9L76.7,51.7z"/>
			<path fill="#D82D50" d="M102.4,26.2l5.7,30.5h9l-5.7-30.5H102.4z"/>
			<path fill="#ADAB36" d="M15.8,51.7c0.1,0.4,0.2,0.8,0.3,1.2c0.4,1,1.1,1.8,2.1,2.6c0.6,0.5,1.3,0.9,2.1,1.2c0.9,0.4,2,0.6,3,0.7
				c0.3,0,0.6,0,1,0c0.3,0,0.6,0,1,0c1.1-0.1,2.1-0.3,3-0.7c0.7-0.3,1.4-0.7,2.1-1.2c1-0.8,1.7-1.6,2.1-2.6c0.2-0.4,0.3-0.8,0.3-1.2
				l2.6-14.1h-9l-1.1,6.1c0,0,0,0.1,0,0.1c0,0.1-0.1,0.2-0.2,0.3c0,0,0,0,0,0c-0.2,0.2-0.4,0.3-0.7,0.3c-0.3,0-0.5-0.1-0.7-0.3
				c0,0,0,0,0,0c-0.1-0.1-0.1-0.2-0.2-0.3c0,0,0-0.1,0-0.1L20,26.2h-9L15.8,51.7z"/>
		</g>
		<path fill-rule="evenodd" clip-rule="evenodd" fill="#231F20" d="M220.2,51.2c-0.6-0.6-1.3-0.9-2.1-0.9c-0.8,0-1.5,0.3-2.1,0.9
			c-0.6,0.5-0.9,1.3-0.9,2.1c0,0.8,0.3,1.5,0.9,2.1c0.6,0.6,1.3,0.8,2.1,0.8c0.8,0,1.5-0.3,2.1-0.8c0.6-0.6,0.8-1.3,0.8-2.1
			C221.1,52.5,220.8,51.7,220.2,51.2z M206.3,50.4c0.3-0.1,0.6-0.3,0.8-0.5v1.5c0,0.6-0.2,1.1-0.7,1.4c-0.5,0.4-1.1,0.6-1.8,0.6
			c-0.5,0-0.9-0.1-1.2-0.4c-0.3-0.3-0.5-0.6-0.5-1c0-0.6,0.2-1,0.7-1.2c0.3-0.1,0.7-0.2,1.4-0.3C205.5,50.5,205.9,50.5,206.3,50.4z
			 M201.1,46.8c0.3-0.2,0.6-0.4,1.1-0.6c0.5-0.4,0.9-0.6,1.3-0.8c0.4-0.2,0.8-0.3,1.4-0.3c1.5,0,2.2,0.5,2.2,1.4
			c0,0.4-0.2,0.7-0.6,1c-0.4,0.2-1.1,0.3-2.2,0.4c-1.3,0.1-2.5,0.3-3.4,0.5c-0.9,0.2-1.6,0.5-2.2,0.9c-0.5,0.4-0.9,0.8-1.2,1.3
			c-0.2,0.5-0.3,1.1-0.3,1.6c0,1.4,0.5,2.5,1.4,3.2c1,0.7,2.2,1.1,3.8,1.1c1,0,1.9-0.2,2.8-0.5c0.8-0.3,1.5-0.9,2-1.7
			c0.1,0.7,0.4,1.2,0.8,1.6c0.5,0.4,1.1,0.6,2,0.6c0.7,0,1.3-0.2,1.8-0.5c0.5-0.3,0.7-0.8,0.7-1.4c0-0.2,0-0.6-0.1-1
			c-0.1-0.6-0.1-1.2-0.1-1.5v-6c0-0.8-0.2-1.5-0.7-2.1c-0.5-0.5-1.1-1-1.8-1.3c-0.7-0.3-1.5-0.5-2.3-0.6c-0.8-0.1-1.7-0.2-2.5-0.2
			c-2,0-3.5,0.3-4.8,1c-1.3,0.6-1.8,1.4-1.8,2.4c0,1.1,0.5,1.7,1.6,1.7C200.5,47,200.8,46.9,201.1,46.8z M161.5,50.4
			c0.3-0.1,0.6-0.3,0.8-0.5v1.5c0,0.6-0.2,1.1-0.7,1.4c-0.5,0.4-1.1,0.6-1.8,0.6c-0.4,0-0.8-0.1-1.2-0.4c-0.3-0.3-0.5-0.6-0.5-1
			c0-0.6,0.2-1,0.7-1.2c0.3-0.1,0.7-0.2,1.4-0.3C160.7,50.5,161.1,50.5,161.5,50.4z M155.3,47c0.4,0,0.7-0.1,1.1-0.2
			c0.3-0.2,0.6-0.4,1.1-0.6c0.5-0.4,0.9-0.6,1.3-0.8c0.4-0.2,0.8-0.3,1.4-0.3c1.4,0,2.2,0.5,2.2,1.4c0,0.4-0.2,0.7-0.6,1
			c-0.4,0.2-1.2,0.3-2.2,0.4c-1.3,0.1-2.4,0.3-3.3,0.5c-0.9,0.2-1.6,0.5-2.2,0.9c-0.6,0.4-0.9,0.8-1.2,1.3c-0.2,0.5-0.3,1.1-0.3,1.6
			c0,1.4,0.5,2.5,1.4,3.2c1,0.7,2.2,1.1,3.8,1.1c1,0,2-0.2,2.9-0.5c0.8-0.3,1.5-0.9,2-1.7c0.1,0.7,0.4,1.2,0.8,1.6
			c0.4,0.4,1.1,0.6,2,0.6c0.7,0,1.3-0.2,1.8-0.5c0.5-0.3,0.7-0.8,0.7-1.4c0-0.2,0-0.6-0.1-1c-0.1-0.6-0.1-1.2-0.1-1.5v-6
			c0-0.8-0.2-1.5-0.7-2.1c-0.5-0.5-1.1-1-1.8-1.3c-0.7-0.3-1.5-0.5-2.3-0.6c-0.8-0.1-1.7-0.2-2.5-0.2c-1.9,0-3.5,0.3-4.7,1
			c-1.3,0.6-1.9,1.4-1.9,2.4C153.6,46.4,154.2,47,155.3,47z M189.1,42.6c-0.4-0.4-1.1-0.7-1.8-0.7c-0.7,0-1.3,0.3-1.7,0.7
			c-0.5,0.5-0.7,1.2-0.7,2.1v9.1c0,0.9,0.2,1.6,0.7,2c0.5,0.5,1.2,0.7,2,0.7c0.8,0,1.5-0.2,2-0.7c0.5-0.4,0.7-1.1,0.7-2v-3.8
			c0-0.8,0.2-1.4,0.6-1.8c0.4-0.4,1-0.7,1.7-0.9l1.5-0.4c1-0.2,1.5-1.1,1.5-2.4c0-0.7-0.2-1.3-0.5-1.8c-0.4-0.5-0.9-0.7-1.7-0.7
			c-0.7,0-1.4,0.3-2,1c-0.6,0.6-1.1,1.6-1.6,2.9l-0.1-1.1C189.7,43.8,189.5,43,189.1,42.6z M180.5,41.9c-0.7,0-1.3,0.3-1.6,0.7
			c-0.4,0.5-0.7,1.3-1,2.4l-1.6,6.6l-2.1-7.7c-0.3-1.4-1.1-2.1-2.3-2.1c-0.7,0-1.4,0.3-1.9,0.7c-0.5,0.4-0.7,1-0.7,1.6
			c0,0.2,0.1,0.6,0.2,1.1c0.2,0.5,0.4,1.2,0.6,2l2.9,8.3c0.2,0.4,0.3,0.8,0.3,1.1c0,0.2-0.1,0.3-0.3,0.4c-0.2,0.2-0.6,0.2-1.1,0.2
			c-0.6,0-1.2,0.2-1.5,0.4c-0.4,0.3-0.5,0.7-0.5,1.3c0,0.7,0.3,1.3,0.8,1.6c0.5,0.4,1.3,0.6,2.4,0.6c0.6,0,1.2-0.1,1.8-0.2
			c0.6-0.2,1.1-0.4,1.6-0.7c0.5-0.3,1-0.7,1.4-1.3c0.4-0.6,0.7-1.3,1.1-2.1l3.2-9.2c0.4-1,0.6-1.8,0.8-2.4c0.2-0.6,0.2-1,0.2-1.2
			c0-0.7-0.2-1.3-0.7-1.7C181.8,42.1,181.2,41.9,180.5,41.9z M128.9,42.6c-0.4,0.4-0.6,1-0.6,1.6c0,0.3,0,0.6,0.1,1
			c0.1,0.4,0.2,0.8,0.4,1.4l2.3,7.3c0.2,0.6,0.4,1,0.6,1.3c0.2,0.4,0.4,0.6,0.6,0.7c0.2,0.2,0.5,0.3,0.8,0.4
			c0.3,0.1,0.7,0.1,1.2,0.1c1.2,0,2-0.2,2.5-0.5c0.5-0.3,0.9-1.1,1.2-2.2l1.3-5.8l1.3,5.8c0.3,1.1,0.7,1.8,1.3,2.2
			c0.5,0.3,1.4,0.5,2.5,0.5c0.5,0,0.9,0,1.2-0.1c0.3-0.1,0.5-0.2,0.8-0.4c0.2-0.1,0.4-0.4,0.6-0.7c0.2-0.3,0.4-0.7,0.5-1.3l2.4-7.3
			c0.2-0.6,0.3-1.1,0.4-1.4c0.1-0.4,0.2-0.7,0.2-1c0-0.6-0.3-1.2-0.7-1.6c-0.5-0.4-1.1-0.7-1.8-0.7c-0.7,0-1.3,0.2-1.6,0.5
			c-0.4,0.3-0.6,0.7-0.7,1.3l-1.7,7.8l-1.6-6.9c-0.1-0.5-0.2-1-0.4-1.3c-0.1-0.3-0.3-0.6-0.5-0.8c-0.2-0.2-0.5-0.3-0.8-0.4
			c-0.3-0.1-0.8-0.2-1.3-0.2c-0.5,0-1,0.1-1.3,0.2c-0.3,0.1-0.6,0.2-0.7,0.4c-0.3,0.2-0.4,0.5-0.5,0.8c-0.2,0.3-0.3,0.8-0.4,1.3
			l-1.4,6.9l-1.9-7.8c-0.1-0.5-0.4-1-0.7-1.3c-0.4-0.3-1-0.5-1.6-0.5C130,41.9,129.3,42.2,128.9,42.6z"/>
	</g>
	<g>
		<g>
			<path fill="#918F90" d="M153.6,89.7c-1.5,0-2.6-0.8-2.6-2.6c0-0.9,0.3-2,0.7-2.7c0.6-1,1.5-1.6,2.9-1.6c1.6,0,2.6,0.8,2.6,2.6
				c0,0.9-0.2,2-0.7,2.7C156,89.1,155,89.7,153.6,89.7z M154.6,83.9c-0.7,0-1.1,0.4-1.4,1c-0.3,0.6-0.5,1.4-0.5,2.1
				c0,1.1,0.4,1.4,1.1,1.4c0.7,0,1.1-0.4,1.5-1c0.3-0.6,0.5-1.4,0.5-2.1C155.7,84.3,155.3,83.9,154.6,83.9z M160.3,84l-0.4,2.1h0.6
				c0.4,0,0.8-0.1,1.1-0.3c0.3-0.2,0.4-0.6,0.4-1c0-0.3-0.1-0.4-0.2-0.6c-0.2-0.2-0.4-0.3-0.9-0.3H160.3z M159.8,87.2l-0.4,2.3h-1.5
				l1.2-6.7h2.1c0.9,0,1.5,0.2,1.9,0.5c0.3,0.3,0.6,0.7,0.6,1.4c0,0.7-0.3,1.3-0.7,1.7c-0.5,0.5-1.4,0.7-2.4,0.7H159.8z M166,86.7
				l-0.3,1.7h3l-0.2,1.1H164l1.2-6.7h4.5l-0.3,1.1h-2.9l-0.3,1.6h2.3l-0.2,1.1H166z M169.8,89.5l1.2-6.7h1.1l2.4,4.4l0.8-4.4h1.3
				l-1.2,6.7h-1.2l-2.4-4.2l-0.7,4.2H169.8z M180.3,82.9h4.4l-0.3,1.1h-2.8l-0.3,1.6h2.2l-0.2,1.1h-2.2l-0.5,2.8h-1.5L180.3,82.9z
				 M189.2,86.9l0.7-4h1.4l-0.8,4.5c-0.2,0.9-0.5,1.4-0.9,1.7c-0.5,0.5-1.2,0.6-2,0.6c-0.8,0-1.4-0.2-1.9-0.6
				c-0.5-0.4-0.7-0.9-0.7-1.6c0-0.3,0-0.6,0.1-1.1l0.6-3.5h1.5l-0.7,3.9c-0.1,0.4-0.1,0.6-0.1,0.7c0,0.2,0,0.5,0.2,0.7
				c0.2,0.2,0.5,0.4,0.9,0.4c0.5,0,0.9-0.2,1.1-0.4C189,87.9,189.1,87.5,189.2,86.9z M194.2,84h-2.1l0.2-1.1h5.7l-0.3,1.1h-2l-1,5.6
				h-1.5L194.2,84z M202.3,86.9l0.7-4h1.4l-0.8,4.5c-0.2,0.9-0.5,1.4-0.9,1.7c-0.5,0.5-1.2,0.6-2,0.6c-0.8,0-1.4-0.2-1.9-0.6
				c-0.5-0.4-0.7-0.9-0.7-1.6c0-0.3,0-0.6,0.1-1.1l0.6-3.5h1.5l-0.7,3.9c-0.1,0.4-0.1,0.6-0.1,0.7c0,0.2,0,0.5,0.2,0.7
				c0.2,0.2,0.5,0.4,0.9,0.4c0.5,0,0.9-0.2,1.1-0.4C202,87.9,202.2,87.5,202.3,86.9z M210.5,84.8c0,0.5-0.1,0.9-0.4,1.3
				c-0.2,0.3-0.6,0.6-1.2,0.9l1,2.7h-1.6l-0.8-2.4h-0.9l-0.4,2.4h-1.5l1.2-6.7h2.3c0.8,0,1.4,0.2,1.8,0.5
				C210.3,83.7,210.5,84.2,210.5,84.8z M207.2,84l-0.4,2h0.6c0.5,0,0.9-0.1,1.2-0.3c0.2-0.2,0.4-0.6,0.4-0.9c0-0.3-0.1-0.5-0.2-0.6
				c-0.1-0.1-0.4-0.2-0.8-0.2H207.2z M213.2,86.7l-0.3,1.7h3l-0.2,1.1h-4.6l1.2-6.7h4.5l-0.3,1.1h-2.9l-0.3,1.6h2.3l-0.2,1.1H213.2z
				 M220.4,90.8h-4.2l0.2-0.9h4.2L220.4,90.8z"/>
			<path fill-rule="evenodd" clip-rule="evenodd" fill="#918F90" d="M154.6,83.9c0.7,0,1.1,0.4,1.1,1.4c0,0.7-0.2,1.5-0.5,2.1
				c-0.3,0.6-0.8,1-1.5,1c-0.7,0-1.1-0.4-1.1-1.4c0-0.7,0.2-1.5,0.5-2.1C153.5,84.3,153.9,83.9,154.6,83.9z M153.6,89.7
				c1.3,0,2.3-0.5,2.9-1.6c0.5-0.8,0.7-1.8,0.7-2.7c0-1.9-1.1-2.6-2.6-2.6c-1.4,0-2.3,0.6-2.9,1.6c-0.4,0.8-0.7,1.8-0.7,2.7
				C151,88.9,152.1,89.7,153.6,89.7z"/>
			<path fill-rule="evenodd" clip-rule="evenodd" fill="#918F90" d="M160.3,84h0.7c0.5,0,0.8,0.1,0.9,0.3c0.1,0.1,0.2,0.3,0.2,0.6
				c0,0.4-0.1,0.7-0.4,1c-0.3,0.2-0.6,0.3-1.1,0.3H160L160.3,84z M159.8,87.2h0.8c1,0,1.9-0.2,2.4-0.7c0.4-0.4,0.7-1,0.7-1.7
				c0-0.7-0.2-1.1-0.6-1.4c-0.4-0.3-1-0.5-1.9-0.5H159l-1.2,6.7h1.5L159.8,87.2z"/>
			<polygon fill-rule="evenodd" clip-rule="evenodd" fill="#918F90" points="166,86.7 168.3,86.7 168.5,85.6 166.2,85.6 166.5,84 
				169.4,84 169.7,82.9 165.2,82.9 164,89.5 168.6,89.5 168.8,88.4 165.7,88.4 			"/>
			<polygon fill-rule="evenodd" clip-rule="evenodd" fill="#918F90" points="169.8,89.5 171.2,89.5 171.9,85.4 174.2,89.5 
				175.4,89.5 176.6,82.9 175.3,82.9 174.5,87.2 172.1,82.9 171,82.9 			"/>
			<polygon fill-rule="evenodd" clip-rule="evenodd" fill="#918F90" points="180.3,82.9 179.2,89.5 180.7,89.5 181.2,86.7 
				183.4,86.7 183.6,85.6 181.4,85.6 181.6,84 184.4,84 184.7,82.9 			"/>
			<path fill-rule="evenodd" clip-rule="evenodd" fill="#918F90" d="M189.2,86.9c-0.1,0.6-0.3,1-0.5,1.2c-0.2,0.2-0.5,0.4-1.1,0.4
				c-0.4,0-0.7-0.1-0.9-0.4c-0.2-0.2-0.2-0.5-0.2-0.7c0-0.1,0-0.3,0.1-0.7l0.7-3.9h-1.5l-0.6,3.5c-0.1,0.4-0.1,0.8-0.1,1.1
				c0,0.7,0.2,1.2,0.7,1.6c0.5,0.4,1.1,0.6,1.9,0.6c0.8,0,1.4-0.2,2-0.6c0.4-0.3,0.7-0.9,0.9-1.7l0.8-4.5h-1.4L189.2,86.9z"/>
			<polygon fill-rule="evenodd" clip-rule="evenodd" fill="#918F90" points="194.2,84 193.2,89.5 194.7,89.5 195.7,84 197.7,84 
				198,82.9 192.3,82.9 192.1,84 			"/>
			<path fill-rule="evenodd" clip-rule="evenodd" fill="#918F90" d="M202.3,86.9c-0.1,0.6-0.3,1-0.5,1.2c-0.2,0.2-0.5,0.4-1.1,0.4
				c-0.4,0-0.7-0.1-0.9-0.4c-0.2-0.2-0.2-0.5-0.2-0.7c0-0.1,0-0.3,0.1-0.7l0.7-3.9h-1.5l-0.6,3.5c-0.1,0.4-0.1,0.8-0.1,1.1
				c0,0.7,0.2,1.2,0.7,1.6c0.5,0.4,1.1,0.6,1.9,0.6c0.8,0,1.4-0.2,2-0.6c0.4-0.3,0.7-0.9,0.9-1.7l0.8-4.5H203L202.3,86.9z"/>
			<path fill-rule="evenodd" clip-rule="evenodd" fill="#918F90" d="M210.5,84.8c0-0.6-0.2-1.1-0.6-1.4c-0.4-0.3-0.9-0.5-1.8-0.5
				h-2.3l-1.2,6.7h1.5l0.4-2.4h0.9l0.8,2.4h1.6l-1-2.7c0.6-0.2,1-0.6,1.2-0.9C210.4,85.7,210.5,85.2,210.5,84.8z M207.2,84h0.8
				c0.4,0,0.7,0.1,0.8,0.2c0.1,0.1,0.2,0.3,0.2,0.6c0,0.3-0.1,0.7-0.4,0.9c-0.3,0.3-0.7,0.3-1.2,0.3h-0.6L207.2,84z"/>
			<polygon fill-rule="evenodd" clip-rule="evenodd" fill="#918F90" points="213.2,86.7 215.5,86.7 215.7,85.6 213.4,85.6 213.7,84 
				216.6,84 216.9,82.9 212.4,82.9 211.2,89.5 215.8,89.5 216,88.4 212.9,88.4 			"/>
			<polygon fill-rule="evenodd" clip-rule="evenodd" fill="#918F90" points="220.4,90.8 220.6,89.8 216.4,89.8 216.2,90.8 			"/>
		</g>
		<g>
			<path fill="#918F90" d="M10.5,86.8l-0.6-0.2c-1-0.4-1.5-0.9-1.5-1.8c0-0.6,0.3-1.2,0.8-1.6c0.5-0.3,1.1-0.5,1.9-0.5
				c0.7,0,1.3,0.1,2,0.4l-0.4,1.1c-0.5-0.2-1.1-0.3-1.5-0.3c-0.7,0-1.3,0.2-1.3,0.7c0,0.3,0.3,0.6,1,0.9l0.6,0.2
				c0.9,0.4,1.4,0.9,1.4,1.8c0,0.6-0.2,1.2-0.8,1.6c-0.5,0.4-1.2,0.6-2.1,0.6c-0.7,0-1.5-0.1-2.2-0.4L8,88.1
				c0.5,0.2,1.3,0.4,1.9,0.4c0.6,0,1.4-0.2,1.4-0.8C11.3,87.3,11.1,87.1,10.5,86.8z M17.4,83.9c-0.7,0-1.1,0.4-1.4,1
				c-0.3,0.6-0.5,1.4-0.5,2.1c0,1.1,0.4,1.4,1.1,1.4c0.7,0,1.1-0.4,1.5-1c0.3-0.6,0.5-1.4,0.5-2.1C18.6,84.3,18.1,83.9,17.4,83.9z
				 M16.5,89.7c-1.5,0-2.6-0.8-2.6-2.6c0-0.9,0.3-2,0.7-2.7c0.6-1,1.5-1.6,2.9-1.6c1.6,0,2.6,0.8,2.6,2.6c0,0.9-0.2,2-0.7,2.7
				C18.8,89.1,17.9,89.7,16.5,89.7z M21.9,82.9H23l1.4,3.7l2.8-3.7h1.3l-1.2,6.7H26l0.7-3.9L24.8,88h-1.2l-1-2.5l-0.7,4h-1.3
				L21.9,82.9z M32.6,83.9c-0.7,0-1.1,0.4-1.4,1c-0.3,0.6-0.5,1.4-0.5,2.1c0,1.1,0.4,1.4,1.1,1.4c0.7,0,1.1-0.4,1.5-1
				c0.3-0.6,0.5-1.4,0.5-2.1C33.7,84.3,33.3,83.9,32.6,83.9z M31.7,89.7c-1.5,0-2.6-0.8-2.6-2.6c0-0.9,0.3-2,0.7-2.7
				c0.6-1,1.5-1.6,2.9-1.6c1.6,0,2.6,0.8,2.6,2.6c0,0.9-0.2,2-0.7,2.7C34,89.1,33,89.7,31.7,89.7z M38.5,86.8l-0.6-0.2
				c-1-0.4-1.5-0.9-1.5-1.8c0-0.6,0.3-1.2,0.8-1.6c0.5-0.3,1.1-0.5,1.9-0.5c0.7,0,1.3,0.1,2,0.4l-0.4,1.1c-0.5-0.2-1.1-0.3-1.5-0.3
				c-0.7,0-1.3,0.2-1.3,0.7c0,0.3,0.3,0.6,1,0.9l0.6,0.2c0.9,0.4,1.4,0.9,1.4,1.8c0,0.6-0.2,1.2-0.8,1.6c-0.5,0.4-1.2,0.6-2.1,0.6
				c-0.7,0-1.5-0.1-2.2-0.4l0.3-1.1c0.5,0.2,1.3,0.4,1.9,0.4c0.6,0,1.4-0.2,1.4-0.8C39.4,87.3,39.1,87.1,38.5,86.8z M46.4,84
				L46,86.1h0.6c0.4,0,0.8-0.1,1.1-0.3c0.3-0.2,0.4-0.6,0.4-1c0-0.3-0.1-0.4-0.2-0.6c-0.2-0.2-0.4-0.3-0.9-0.3H46.4z M45.8,87.2
				l-0.4,2.3h-1.5l1.2-6.7h2.1c0.9,0,1.5,0.2,1.9,0.5c0.3,0.3,0.6,0.7,0.6,1.4c0,0.7-0.3,1.3-0.7,1.7c-0.5,0.5-1.4,0.7-2.4,0.7H45.8
				z M54.2,89.5l-0.3-1.7h-2.2L51,89.5h-1.5l3.4-6.7h1.7l1.2,6.7H54.2z M53.4,84.4l-1.1,2.3h1.4L53.4,84.4L53.4,84.4z M62.5,84.8
				c0,0.5-0.1,0.9-0.4,1.3c-0.2,0.3-0.6,0.6-1.2,0.9l1,2.7h-1.6l-0.8-2.4h-0.9l-0.4,2.4h-1.5l1.2-6.7h2.3c0.8,0,1.4,0.2,1.8,0.5
				C62.3,83.7,62.5,84.2,62.5,84.8z M59.2,84l-0.4,2h0.6c0.5,0,0.9-0.1,1.2-0.3c0.2-0.2,0.4-0.6,0.4-0.9c0-0.3-0.1-0.5-0.2-0.6
				C60.7,84.1,60.4,84,60,84H59.2z M65.7,84h-2.1l0.2-1.1h5.7L69.2,84h-2l-1,5.6h-1.5L65.7,84z M71.4,86.7l-0.3,1.7h3l-0.2,1.1h-4.6
				l1.2-6.7H75L74.7,84h-2.9l-0.3,1.6h2.3l-0.2,1.1H71.4z M78.5,82.9h2c1,0,1.9,0.2,2.5,0.8c0.4,0.5,0.6,1.1,0.6,1.9
				c0,1.2-0.4,2.3-1.1,3.1c-0.7,0.7-1.7,1-3.1,1h-2.1L78.5,82.9z M79.8,84L79,88.4h0.5c0.8,0,1.4-0.2,1.8-0.8
				c0.4-0.5,0.6-1.3,0.6-2.1c0-0.5-0.1-0.9-0.3-1.1C81.4,84.1,81,84,80.4,84H79.8z M86.1,86.7l-0.3,1.7h3l-0.2,1.1h-4.6l1.2-6.7h4.5
				L89.4,84h-2.9l-0.3,1.6h2.3l-0.2,1.1H86.1z"/>
			<path fill-rule="evenodd" clip-rule="evenodd" fill="#918F90" d="M10.5,86.8c0.6,0.2,0.9,0.5,0.9,0.9c0,0.7-0.8,0.8-1.4,0.8
				c-0.6,0-1.4-0.2-1.9-0.4l-0.3,1.1c0.7,0.3,1.5,0.4,2.2,0.4c0.9,0,1.6-0.2,2.1-0.6c0.6-0.4,0.8-1,0.8-1.6c0-0.9-0.4-1.4-1.4-1.8
				l-0.6-0.2c-0.7-0.3-1-0.5-1-0.9c0-0.5,0.6-0.7,1.3-0.7c0.5,0,1,0.1,1.5,0.3l0.4-1.1c-0.7-0.2-1.3-0.4-2-0.4
				c-0.8,0-1.4,0.2-1.9,0.5c-0.5,0.4-0.8,0.9-0.8,1.6c0,0.9,0.5,1.4,1.5,1.8L10.5,86.8z"/>
			<path fill-rule="evenodd" clip-rule="evenodd" fill="#918F90" d="M17.4,83.9c0.7,0,1.1,0.4,1.1,1.4c0,0.7-0.2,1.5-0.5,2.1
				c-0.3,0.6-0.8,1-1.5,1c-0.7,0-1.1-0.4-1.1-1.4c0-0.7,0.2-1.5,0.5-2.1C16.3,84.3,16.8,83.9,17.4,83.9z M16.5,89.7
				c1.3,0,2.3-0.5,2.9-1.6c0.5-0.8,0.7-1.8,0.7-2.7c0-1.9-1.1-2.6-2.6-2.6c-1.4,0-2.3,0.6-2.9,1.6c-0.4,0.8-0.7,1.8-0.7,2.7
				C13.9,88.9,15,89.7,16.5,89.7z"/>
			<polygon fill-rule="evenodd" clip-rule="evenodd" fill="#918F90" points="21.9,82.9 20.7,89.5 22,89.5 22.7,85.5 23.7,88 
				24.8,88 26.6,85.6 26,89.5 27.4,89.5 28.5,82.9 27.3,82.9 24.5,86.5 23,82.9 			"/>
			<path fill-rule="evenodd" clip-rule="evenodd" fill="#918F90" d="M32.6,83.9c0.7,0,1.1,0.4,1.1,1.4c0,0.7-0.2,1.5-0.5,2.1
				c-0.3,0.6-0.8,1-1.5,1c-0.7,0-1.1-0.4-1.1-1.4c0-0.7,0.2-1.5,0.5-2.1C31.5,84.3,31.9,83.9,32.6,83.9z M31.7,89.7
				c1.3,0,2.3-0.5,2.9-1.6c0.5-0.8,0.7-1.8,0.7-2.7c0-1.9-1.1-2.6-2.6-2.6c-1.4,0-2.3,0.6-2.9,1.6c-0.4,0.8-0.7,1.8-0.7,2.7
				C29.1,88.9,30.1,89.7,31.7,89.7z"/>
			<path fill-rule="evenodd" clip-rule="evenodd" fill="#918F90" d="M38.5,86.8c0.6,0.2,0.9,0.5,0.9,0.9c0,0.7-0.8,0.8-1.4,0.8
				c-0.6,0-1.4-0.2-1.9-0.4l-0.3,1.1c0.7,0.3,1.5,0.4,2.2,0.4c0.9,0,1.6-0.2,2.1-0.6c0.6-0.4,0.8-1,0.8-1.6c0-0.9-0.4-1.4-1.4-1.8
				l-0.6-0.2c-0.7-0.3-1-0.5-1-0.9c0-0.5,0.6-0.7,1.3-0.7c0.5,0,1,0.1,1.5,0.3l0.4-1.1c-0.7-0.2-1.3-0.4-2-0.4
				c-0.8,0-1.4,0.2-1.9,0.5c-0.5,0.4-0.8,0.9-0.8,1.6c0,0.9,0.5,1.4,1.5,1.8L38.5,86.8z"/>
			<path fill-rule="evenodd" clip-rule="evenodd" fill="#918F90" d="M46.4,84h0.7c0.5,0,0.8,0.1,0.9,0.3c0.1,0.1,0.2,0.3,0.2,0.6
				c0,0.4-0.1,0.7-0.4,1c-0.3,0.2-0.6,0.3-1.1,0.3H46L46.4,84z M45.8,87.2h0.8c1,0,1.9-0.2,2.4-0.7c0.4-0.4,0.7-1,0.7-1.7
				c0-0.7-0.2-1.1-0.6-1.4c-0.4-0.3-1-0.5-1.9-0.5h-2.1l-1.2,6.7h1.5L45.8,87.2z"/>
			<path fill-rule="evenodd" clip-rule="evenodd" fill="#918F90" d="M54.2,89.5h1.6l-1.2-6.7h-1.7l-3.4,6.7H51l0.8-1.7h2.2
				L54.2,89.5z M53.4,84.4L53.4,84.4l0.3,2.3h-1.4L53.4,84.4z"/>
			<path fill-rule="evenodd" clip-rule="evenodd" fill="#918F90" d="M62.5,84.8c0-0.6-0.2-1.1-0.6-1.4c-0.4-0.3-0.9-0.5-1.8-0.5
				h-2.3l-1.2,6.7h1.5l0.4-2.4h0.9l0.8,2.4H62l-1-2.7c0.6-0.2,1-0.6,1.2-0.9C62.3,85.7,62.5,85.2,62.5,84.8z M59.2,84H60
				c0.4,0,0.7,0.1,0.8,0.2c0.1,0.1,0.2,0.3,0.2,0.6c0,0.3-0.1,0.7-0.4,0.9c-0.3,0.3-0.7,0.3-1.2,0.3h-0.6L59.2,84z"/>
			<polygon fill-rule="evenodd" clip-rule="evenodd" fill="#918F90" points="65.7,84 64.7,89.5 66.2,89.5 67.2,84 69.2,84 
				69.5,82.9 63.8,82.9 63.6,84 			"/>
			<polygon fill-rule="evenodd" clip-rule="evenodd" fill="#918F90" points="71.4,86.7 73.6,86.7 73.9,85.6 71.6,85.6 71.8,84 
				74.7,84 75,82.9 70.5,82.9 69.3,89.5 73.9,89.5 74.1,88.4 71.1,88.4 			"/>
			<path fill-rule="evenodd" clip-rule="evenodd" fill="#918F90" d="M78.5,82.9l-1.2,6.7h2.1c1.3,0,2.3-0.2,3.1-1
				c0.7-0.8,1.1-1.9,1.1-3.1c0-0.8-0.2-1.4-0.6-1.9c-0.6-0.6-1.5-0.8-2.5-0.8H78.5z M79.8,84h0.6c0.6,0,1,0.1,1.2,0.4
				c0.2,0.3,0.3,0.6,0.3,1.1c0,0.8-0.3,1.6-0.6,2.1c-0.4,0.6-1,0.8-1.8,0.8H79L79.8,84z"/>
			<polygon fill-rule="evenodd" clip-rule="evenodd" fill="#918F90" points="86.1,86.7 88.4,86.7 88.6,85.6 86.3,85.6 86.6,84 
				89.4,84 89.8,82.9 85.2,82.9 84.1,89.5 88.6,89.5 88.8,88.4 85.8,88.4 			"/>
		</g>
		<g>
			<path fill="#918F90" d="M108.2,86.5c-0.9,1.3-2.1,2.4-3.2,2.4c-0.5,0-0.7-0.2-0.6-0.8c0-0.3,0.1-0.7,0.1-1c1-0.5,2-1.1,2.9-2
				c0.5-0.5,0.8-1.1,0.9-1.7c0-0.5-0.3-0.8-1-0.8c-1,0-2.1,0.6-2.9,1.4c-1,1.1-1.7,2.6-1.8,3.9c0,1,0.4,1.7,1.7,1.7
				c1.3,0,2.6-1.1,3.3-1.8c-0.1,0.3-0.1,0.6-0.1,0.9c0,0.9,0.4,1.5,1.3,1.7l0.2-0.1c-0.1-0.2-0.1-0.5-0.1-0.7c0.1-0.8,0.4-1.8,0.9-3
				c0.9-2.3,2.3-5,2.8-6.5l-1.4,0.3c-0.2,0-0.4,0.2-0.4,0.4c-0.7,1.4-1.4,3-2.2,5C108.4,86.1,108.3,86.3,108.2,86.5z M106.9,83.4
				c0.2,0,0.3,0.2,0.3,0.3c0,0.9-1.1,2.1-2.5,2.9C105,85.3,106,83.4,106.9,83.4z"/>
			<path fill="#918F90" d="M130.9,88.8c0,0.6,0.4,1,1.2,1c0.8,0,1.6-0.5,2.3-1.1c0.1,0.7,0.6,1.2,1.6,1.2c1.1,0,2.1-0.7,2.8-1.5v0.2
				c0,0.7,0.4,1.2,1.2,1.2c0.9,0,1.9-0.7,2.7-1.8l0,0c-0.1,0.3-0.2,0.7-0.2,1c0,0.9,0.5,1.3,1.2,1.5l0.2-0.1
				c-0.3-0.6,0.1-2.2,0.3-2.7c0.5-1.7,1.4-3.6,1.8-4.6c-0.2-0.2-0.7-0.3-1.3-0.3c-1.8-0.1-3.6,0.7-5,3c-0.2,0.4-0.5,0.9-0.7,1.4
				c-0.2,0.3-0.4,0.5-0.5,0.6c-0.5,0.5-1.2,1.1-1.9,1.1c-0.4,0-0.6-0.3-0.6-0.8c0-1.9,1.7-4.8,2.8-4.8c0.3,0,0.4,0.1,0.4,0.4
				c0,0.3-0.2,0.7-0.5,1l0.1,0.1c0.8-0.3,1.5-0.8,1.5-1.4c0-0.6-0.7-0.8-1.4-0.8c-0.9,0-2,0.4-2.9,1.4c-1.1,1.2-1.7,2.7-1.8,3.7
				c-0.5,0.6-1.1,1-1.4,1c-0.2,0-0.4-0.1-0.4-0.3c0-0.2,0.1-0.6,0.3-1.1c0.5-1.2,1.2-2.7,2.1-4.5c0,0-1.3,0.2-1.5,0.3
				c-0.2,0-0.4,0.2-0.4,0.4c-0.6,1.2-1.2,2.6-1.7,3.6C131.1,87.8,130.9,88.4,130.9,88.8z M143.3,83.6c0.4-0.2,0.8-0.2,1.1-0.1
				c-0.1,0.2-0.6,1.3-1,2.2c-0.6,1.4-1.6,2.9-2.4,3.1c-0.3,0.1-0.5,0-0.5-0.3C140.5,87.2,141.9,84.3,143.3,83.6z"/>
			<path fill="#918F90" d="M112.3,84.2c-1,1.1-1.7,2.6-1.8,3.9c0,0.9,0.5,1.7,1.7,1.7c1.4,0,2.6-0.8,3.7-1.9
				c-0.3,0.7-0.5,1.3-0.6,1.7c-0.4,1-0.7,1.8-1.3,2.2l0.1,0.1c1.8,0.1,2.5-1.2,3.2-3.2c0.7-2,1.4-3.8,1.8-5.1c0.8,0,1.9,0,2.5-0.1
				c-1.6,0.7-3,3.3-2.8,5c0.1,0.8,0.5,1.3,1.5,1.3c1.9,0,3.4-2.2,4-3.6c0.3-0.8,0.6-1.5,0.6-2.3c0.4-0.1,0.9-0.2,1.1-0.2
				c0.4-0.1,0.3,0.4,0.2,0.7c-0.8,2.1-2.1,5.2-2.1,5.2h1.4c0.6-1.3,1-2.1,1.5-3c0.6-1,2-2.8,2.5-2.8c0.2,0,0.2,0.1,0.2,0.3
				c-0.1,0.7-1.8,3.4-1.8,4.8c0,0.9,0.5,1.4,1.3,1.6l0.2-0.1c-0.1-0.2-0.1-0.4-0.1-0.7c0-0.9,0.7-2.5,1-3.1c0.4-1,1.2-2.3,1.2-3.1
				c0-0.4-0.3-0.7-0.9-0.7c-1.2,0-2.4,1.1-3.3,2.7l0,0c0.4-0.9,0.7-1.7,0.7-2.1c0-0.4-0.2-0.5-0.7-0.5c-0.3,0-0.7,0.1-1.2,0.2
				c-0.6,0.2-1.2,0.3-1.9,0.5c-0.4,0.1-0.6,0.1-0.5,0.3c0.1,2.4-1.5,5.1-2.6,5.1c-0.5,0-0.6-0.3-0.6-0.8c0-1.6,1.3-4.4,2.6-4.8
				c0.1,0,0.2-0.1,0.3-0.1l0.2-0.4c-0.3,0.1-0.9,0.1-1.3,0.1h-2.9c0.8-1.8,1.8-3,3.4-3c1,0,1.6,0.3,1.7,0.9c0,0.5-0.1,0.9-0.5,1.2
				l0.1,0.1c0.9-0.4,1.4-1.1,1.4-1.6c0-0.7-0.9-1.2-2.3-1.2c-1.8,0-3.9,0.4-5.5,3.6c-0.5,0.1-0.9,0.2-1.2,0.6l0.1,0.1
				c0.2-0.1,0.5-0.1,0.9-0.1c-0.2,0.5-0.6,1.6-1.1,2.8c-1.3,1.7-2.6,2.5-3.5,2.5c-0.5,0-0.7-0.3-0.7-0.8c0-0.3,0.1-0.7,0.1-1
				c1-0.5,2-1.1,2.9-2c0.5-0.5,0.9-1.1,0.9-1.7c0-0.5-0.3-0.8-1-0.8C114.2,82.7,113.1,83.4,112.3,84.2z M114.8,83.4
				c0.2,0,0.3,0.2,0.3,0.3c0,0.9-1.1,2.1-2.6,2.9C112.9,85.3,113.9,83.4,114.8,83.4z"/>
			<path fill="#918F90" d="M135,81.8c0.4,0,0.8-0.4,0.9-0.8c0.1-0.5-0.2-0.8-0.6-0.8c-0.4,0-0.8,0.4-0.9,0.8
				C134.3,81.5,134.6,81.8,135,81.8z"/>
			<path fill="#918F90" d="M120.5,94.7c-14.7,0-29.6,0.2-29.6,0.4c0,0.2,14.9,0.4,29.6,0.4c14.7,0,29.6-0.2,29.6-0.4
				C150.1,94.9,135.1,94.7,120.5,94.7z"/>
			<path fill="#918F90" d="M96.7,84.3L96.7,84.3c0-0.3-0.1-0.7-0.1-0.9c0-1.9,2.1-3,5.2-3h1.7c-1,0.6-1.9,1.4-2.5,2.9
				c-0.3,0.6-1.6,4.1-2.2,5.6c-0.7,1.8-1.1,2.7-1.6,3l0.1,0.2c1.5,0.1,2.4-0.7,3-2.1c0.6-1.3,1.3-3.5,1.6-4.5c1.2-3.1,1.7-4.4,2.6-5
				c1.3,0,2.5,0,2.5,0c1.4,0,2-0.4,2.4-0.9l-0.1-0.1c-0.3,0.2-1.1,0.2-1.7,0.2h-6.3c-3.5,0-5.7,1.2-6,2.9
				C95.3,83.2,95.7,84.1,96.7,84.3z"/>
		</g>
	</g>
</g>
</svg>
