<?xml version="1.0" encoding="utf-8"?>
<!-- Generator: Adobe Illustrator 18.0.0, SVG Export Plug-In . SVG Version: 6.00 Build 0)  -->
<!DOCTYPE svg PUBLIC "-//W3C//DTD SVG 1.1//EN" "http://www.w3.org/Graphics/SVG/1.1/DTD/svg11.dtd">
<svg version="1.1" id="Layer_1" xmlns="http://www.w3.org/2000/svg" xmlns:xlink="http://www.w3.org/1999/xlink" x="0px" y="0px"
	 viewBox="0 0 150 150" enable-background="new 0 0 150 150" xml:space="preserve">
<g>
	<path fill="#FFFFFF" d="M100.6,98.6l-8.4,16.1c-7.1,13.4-26.8,16.1-33.9,0.8c0-0.3-0.3-0.3-0.3-0.5c0,0,0-0.3-0.3-0.3l-8.4-16.1
		L23.5,49.9c-3.9-9.5,0.3-20.3,9.5-24.5c2.4-1.1,5-1.6,7.6-1.6c7.4,0,14.2,4.5,17.1,11.1c0,0,0,0.3,0.3,0.3L70,58.3l4.7,9.2l4.7-9.2
		l-4.7-9.2l-9.5-17.9c-4.2-9.5-13.9-15.8-24.7-15.8c-3.7,0-7.4,0.8-11.1,2.4c-6.6,2.9-11.6,8.2-14.2,15S12.9,47,15.8,53.6
		c0,0,0,0.3,0.3,0.3l34.2,64.7c0,0.3,0.3,0.5,0.3,0.8s0.3,0.5,0.3,0.8c0.3,0.5,0.5,1.1,0.8,1.6c11.6,18.9,40.5,16.3,48.7-4.5
		C102.7,111.2,102.7,104.7,100.6,98.6z"/>
	<g>
		<path fill="#FFFFFF" d="M99.5,118.9c0.3-0.5,0.5-1.1,0.8-1.8C99.5,119.1,99.2,119.7,99.5,118.9z"/>
		<path fill="#FFFFFF" d="M134.5,32.8C135.3,34.4,135.8,36.2,134.5,32.8C133.2,29.4,134,31,134.5,32.8c-2.6-6.8-7.6-12.1-14.2-15
			c-3.7-1.6-7.4-2.4-11.1-2.4c-10.8,0-20.5,6.3-24.7,16.1L76.9,46l1.1,1.8l3.7,7.1l10.5-19.7c0,0,0-0.3,0.3-0.3
			c2.9-6.8,9.7-11.1,17.1-11.1c2.6,0,5,0.5,7.6,1.6c4.5,2.1,8.2,5.8,10,10.3c1.8,4.7,1.6,9.7-0.3,14.2l-23.7,44.7l1.1,2.9
			c1.1,3.4,1.6,6.8,1.6,10.3l28.7-53.9c0,0,0-0.3,0.3-0.3C137.1,47,137.1,39.7,134.5,32.8z"/>
	</g>
	<circle fill="#FFFFFF" cx="40.6" cy="42.6" r="6.3"/>
	<circle fill="#FFFFFF" cx="109.2" cy="42.6" r="6.3"/>
	<circle fill="#FFFFFF" cx="75" cy="107.3" r="6.3"/>
	<g>
		<g>
			<g>
				<path fill="#FFFFFF" d="M75,93.3L49.8,45.7c-0.3,1.1-1.1,2.1-1.8,3.2c-1.8,2.1-4.5,3.4-7.4,3.4c-0.5,0-1.3,0-1.8-0.3
					c-0.3,0-0.5,0-0.8-0.3l27.9,52.6c0.3-1.1,1.1-2.1,1.8-3.2c1.8-2.1,4.5-3.4,7.4-3.4c0.5,0,1.3,0,1.8,0.3c0.3,0,0.5,0,0.8,0.3
					L75,93.3z"/>
				<path fill="#FFFFFF" d="M77.9,91.8l2.6,5l3.7,7.4L111.9,52c-0.8,0.3-1.8,0.3-2.6,0.3c-0.5,0-1.3,0-1.8-0.3
					c-3.4-0.5-6.1-3.2-7.1-6.3L76.9,89.9L77.9,91.8z"/>
			</g>
		</g>
	</g>
</g>
</svg>
