<?xml version="1.0" encoding="utf-8"?>
<!-- Generator: Adobe Illustrator 18.0.0, SVG Export Plug-In . SVG Version: 6.00 Build 0)  -->
<!DOCTYPE svg PUBLIC "-//W3C//DTD SVG 1.1//EN" "http://www.w3.org/Graphics/SVG/1.1/DTD/svg11.dtd">
<svg version="1.1" id="Layer_1" xmlns="http://www.w3.org/2000/svg" xmlns:xlink="http://www.w3.org/1999/xlink" x="0px" y="0px"
	 viewBox="0 0 450 150" enable-background="new 0 0 450 150" xml:space="preserve">
<g>
	<g>
		<g>
			<path fill="#231F20" d="M151.4,89.2c2.2,1.2,3.5,3.2,4,6.1h-3c-0.4-1.6-1.1-2.8-2.2-3.6c-1.1-0.7-2.5-1.1-4.2-1.1
				c-2,0-3.7,0.8-5.1,2.3c-1.4,1.5-2.1,3.8-2.1,6.9c0,2.6,0.6,4.8,1.7,6.5c1.1,1.7,3,2.5,5.6,2.5c2,0,3.6-0.6,4.9-1.7s2-3.1,2-5.7
				h-7v-2.5h9.8v11.9h-1.9l-0.7-2.9c-1,1.1-1.9,1.9-2.7,2.3c-1.3,0.7-3,1.1-5,1.1c-2.6,0-4.8-0.9-6.7-2.6c-2-2.1-3.1-5.1-3.1-8.8
				c0-3.7,1-6.7,3-8.9c1.9-2.1,4.3-3.1,7.3-3.1C148.1,88,149.9,88.4,151.4,89.2z"/>
			<path fill="#231F20" d="M171.5,96.2c1.4,1.4,2.1,3.4,2.1,6.1c0,2.6-0.6,4.8-1.9,6.5c-1.3,1.7-3.2,2.6-5.9,2.6
				c-2.2,0-4-0.8-5.3-2.3c-1.3-1.5-2-3.5-2-6.1c0-2.7,0.7-4.9,2.1-6.5s3.2-2.4,5.5-2.4C168.3,94.1,170.1,94.8,171.5,96.2z
				 M169.8,106.9c0.7-1.4,1-2.9,1-4.6c0-1.5-0.2-2.7-0.7-3.7c-0.8-1.5-2.1-2.2-3.9-2.2c-1.6,0-2.8,0.6-3.6,1.9
				c-0.7,1.3-1.1,2.8-1.1,4.6c0,1.7,0.4,3.2,1.1,4.3s1.9,1.7,3.6,1.7C167.9,109,169.1,108.3,169.8,106.9z"/>
			<path fill="#231F20" d="M176.1,88.5h2.6v8.1c0.6-0.8,1.3-1.4,2.1-1.8c0.8-0.4,1.7-0.6,2.7-0.6c2,0,3.7,0.7,4.9,2.1
				c1.3,1.4,1.9,3.4,1.9,6.1c0,2.6-0.6,4.7-1.9,6.4c-1.2,1.7-3,2.5-5.2,2.5c-1.2,0-2.3-0.3-3.1-0.9c-0.5-0.4-1-0.9-1.6-1.7v2.1h-2.5
				V88.5z M186.6,107.1c0.7-1.2,1.1-2.7,1.1-4.6c0-1.7-0.4-3.1-1.1-4.2c-0.7-1.1-1.8-1.7-3.2-1.7c-1.2,0-2.3,0.5-3.3,1.4
				c-0.9,0.9-1.4,2.4-1.4,4.5c0,1.5,0.2,2.8,0.6,3.7c0.7,1.8,2.1,2.7,4,2.7C184.7,108.9,185.8,108.3,186.6,107.1z"/>
			<path fill="#231F20" d="M193,88.5h2.8v3.1H193V88.5z M193,94.6h2.8v16.1H193V94.6z"/>
			<path fill="#231F20" d="M209.3,95c1.1,0.5,1.9,1.2,2.5,2.1c0.5,0.8,0.9,1.8,1.1,2.9c0.2,0.7,0.2,1.9,0.2,3.6h-11.8
				c0.1,1.6,0.4,3,1.2,4c0.7,1,1.8,1.5,3.3,1.5c1.4,0,2.5-0.5,3.4-1.4c0.5-0.5,0.8-1.2,1-1.9h2.7c-0.1,0.6-0.3,1.3-0.7,2
				c-0.4,0.7-0.8,1.3-1.3,1.8c-0.8,0.8-1.8,1.4-3.1,1.6c-0.7,0.2-1.4,0.2-2.2,0.2c-2,0-3.7-0.7-5.1-2.2c-1.4-1.5-2.1-3.5-2.1-6.2
				c0-2.6,0.7-4.7,2.1-6.3c1.4-1.6,3.2-2.4,5.5-2.4C207.1,94.2,208.2,94.5,209.3,95z M210.3,101.4c-0.1-1.2-0.4-2.1-0.8-2.8
				c-0.7-1.3-2-2-3.7-2c-1.2,0-2.3,0.5-3.1,1.4c-0.8,0.9-1.3,2.1-1.3,3.4H210.3z"/>
			<path fill="#231F20" d="M216,94.6h2.6v2.8c0.2-0.5,0.7-1.2,1.6-2c0.8-0.8,1.8-1.2,2.9-1.2c0.1,0,0.1,0,0.3,0c0.1,0,0.3,0,0.6,0.1
				v2.9c-0.2,0-0.3-0.1-0.4-0.1c-0.1,0-0.3,0-0.4,0c-1.4,0-2.4,0.4-3.2,1.3c-0.7,0.9-1.1,1.9-1.1,3.1v9.3H216V94.6z"/>
			<path fill="#231F20" d="M225.6,94.6h2.6v2.3c0.8-0.9,1.6-1.6,2.4-2c0.9-0.4,1.8-0.6,2.9-0.6c2.3,0,3.9,0.8,4.7,2.4
				c0.4,0.9,0.7,2.1,0.7,3.8v10.4H236v-10.2c0-1-0.1-1.8-0.4-2.4c-0.5-1-1.4-1.5-2.6-1.5c-0.6,0-1.2,0.1-1.6,0.2
				c-0.7,0.2-1.4,0.7-2,1.3c-0.5,0.5-0.7,1.1-0.9,1.7c-0.1,0.6-0.2,1.4-0.2,2.4v8.5h-2.7V94.6z"/>
			<path fill="#231F20" d="M254,96.2c1.4,1.4,2.1,3.4,2.1,6.1c0,2.6-0.6,4.8-1.9,6.5c-1.3,1.7-3.2,2.6-5.9,2.6c-2.2,0-4-0.8-5.3-2.3
				c-1.3-1.5-2-3.5-2-6.1c0-2.7,0.7-4.9,2.1-6.5c1.4-1.6,3.2-2.4,5.5-2.4C250.8,94.1,252.5,94.8,254,96.2z M252.3,106.9
				c0.7-1.4,1-2.9,1-4.6c0-1.5-0.2-2.7-0.7-3.7c-0.8-1.5-2.1-2.2-3.9-2.2c-1.6,0-2.8,0.6-3.6,1.9c-0.7,1.3-1.1,2.8-1.1,4.6
				c0,1.7,0.4,3.2,1.1,4.3s1.9,1.7,3.6,1.7C250.4,109,251.6,108.3,252.3,106.9z"/>
			<path fill="#231F20" d="M276.7,95.1c0.5,0.3,1,0.8,1.6,1.6v-8.2h2.6v22.3h-2.5v-2.3c-0.6,1-1.4,1.7-2.2,2.2
				c-0.9,0.4-1.9,0.7-3,0.7c-1.8,0-3.4-0.8-4.7-2.3c-1.3-1.5-2-3.5-2-6.1c0-2.4,0.6-4.4,1.8-6.1c1.2-1.7,2.9-2.6,5.2-2.6
				C274.9,94.3,275.9,94.5,276.7,95.1z M270.7,107.2c0.7,1.2,1.9,1.8,3.5,1.8c1.3,0,2.3-0.5,3.1-1.6c0.8-1.1,1.2-2.6,1.2-4.7
				c0-2-0.4-3.6-1.3-4.5c-0.8-1-1.9-1.5-3.1-1.5c-1.4,0-2.5,0.5-3.3,1.6c-0.8,1.1-1.3,2.6-1.3,4.6
				C269.6,104.6,269.9,106,270.7,107.2z"/>
			<path fill="#231F20" d="M294.5,95c1.1,0.5,1.9,1.2,2.5,2.1c0.5,0.8,0.9,1.8,1.1,2.9c0.2,0.7,0.2,1.9,0.2,3.6h-11.8
				c0.1,1.6,0.4,3,1.2,4c0.7,1,1.8,1.5,3.3,1.5c1.4,0,2.5-0.5,3.4-1.4c0.5-0.5,0.8-1.2,1-1.9h2.7c-0.1,0.6-0.3,1.3-0.7,2
				c-0.4,0.7-0.8,1.3-1.3,1.8c-0.8,0.8-1.8,1.4-3.1,1.6c-0.7,0.2-1.4,0.2-2.2,0.2c-2,0-3.7-0.7-5.1-2.2c-1.4-1.5-2.1-3.5-2.1-6.2
				c0-2.6,0.7-4.7,2.1-6.3c1.4-1.6,3.2-2.4,5.5-2.4C292.3,94.2,293.4,94.5,294.5,95z M295.4,101.4c-0.1-1.2-0.4-2.1-0.8-2.8
				c-0.7-1.3-2-2-3.7-2c-1.2,0-2.3,0.5-3.1,1.4c-0.8,0.9-1.3,2.1-1.3,3.4H295.4z"/>
			<path fill="#231F20" d="M310.1,88.5h2.7v22.2h-2.7V88.5z"/>
			<path fill="#231F20" d="M325,101c0.6-0.1,1-0.3,1.3-0.8c0.1-0.2,0.2-0.6,0.2-1c0-0.9-0.3-1.6-1-2c-0.7-0.4-1.6-0.6-2.8-0.6
				c-1.4,0-2.4,0.4-3,1.2c-0.3,0.4-0.5,1.1-0.6,1.9h-2.5c0.1-2,0.7-3.4,1.9-4.2c1.2-0.8,2.7-1.2,4.3-1.2c1.9,0,3.5,0.4,4.6,1.1
				c1.2,0.7,1.8,1.9,1.8,3.4v9.3c0,0.3,0.1,0.5,0.2,0.7c0.1,0.2,0.4,0.3,0.7,0.3c0.1,0,0.3,0,0.4,0s0.3,0,0.5-0.1v2
				c-0.4,0.1-0.7,0.2-1,0.2c-0.2,0-0.5,0-0.9,0c-0.9,0-1.6-0.3-2-1c-0.2-0.4-0.4-0.9-0.5-1.5c-0.6,0.7-1.4,1.4-2.4,1.9
				c-1,0.5-2.2,0.8-3.4,0.8c-1.5,0-2.7-0.5-3.7-1.4c-1-0.9-1.4-2.1-1.4-3.4c0-1.5,0.5-2.7,1.4-3.5c0.9-0.8,2.2-1.3,3.7-1.5L325,101z
				 M319.3,108.3c0.6,0.5,1.3,0.7,2,0.7c1,0,1.9-0.2,2.8-0.7c1.5-0.7,2.3-1.9,2.3-3.6v-2.2c-0.3,0.2-0.8,0.4-1.3,0.5
				c-0.5,0.1-1,0.2-1.5,0.3l-1.6,0.2c-1,0.1-1.7,0.3-2.2,0.6c-0.8,0.5-1.3,1.2-1.3,2.3C318.4,107.2,318.7,107.9,319.3,108.3z"/>
			<path fill="#231F20" d="M358,90.1c1.5,1.5,2.4,3.2,2.6,5.1h-2.9c-0.3-1.4-1-2.6-2-3.4c-1-0.8-2.3-1.3-4.1-1.3
				c-2.2,0-3.9,0.8-5.2,2.3c-1.3,1.5-2,3.9-2,7.1c0,2.6,0.6,4.7,1.8,6.3s3,2.4,5.3,2.4c2.2,0,3.8-0.9,5-2.6c0.6-0.9,1.1-2.1,1.4-3.5
				h2.9c-0.3,2.3-1.1,4.3-2.6,5.9c-1.7,1.9-4.1,2.9-7.1,2.9c-2.6,0-4.7-0.8-6.4-2.3c-2.3-2.1-3.4-5.3-3.4-9.6c0-3.3,0.9-6,2.6-8.1
				c1.9-2.3,4.4-3.4,7.7-3.4C354.4,87.9,356.5,88.7,358,90.1z"/>
			<path fill="#231F20" d="M363.7,88.5h2.8v3.1h-2.8V88.5z M363.7,94.6h2.8v16.1h-2.8V94.6z"/>
			<path fill="#231F20" d="M372.7,94.6v10.8c0,0.8,0.1,1.5,0.4,2c0.5,1,1.4,1.5,2.6,1.5c1.8,0,3.1-0.8,3.8-2.5
				c0.4-0.9,0.5-2.2,0.5-3.7v-8h2.7v16.2h-2.6l0-2.4c-0.3,0.6-0.8,1.1-1.3,1.6c-1,0.8-2.3,1.3-3.7,1.3c-2.3,0-3.8-0.8-4.6-2.3
				c-0.4-0.8-0.7-1.9-0.7-3.3v-11H372.7z"/>
			<path fill="#231F20" d="M395.5,95.1c0.5,0.3,1,0.8,1.6,1.6v-8.2h2.6v22.3h-2.5v-2.3c-0.6,1-1.4,1.7-2.2,2.2
				c-0.9,0.4-1.9,0.7-3,0.7c-1.8,0-3.4-0.8-4.7-2.3c-1.3-1.5-2-3.5-2-6.1c0-2.4,0.6-4.4,1.8-6.1c1.2-1.7,2.9-2.6,5.2-2.6
				C393.7,94.3,394.7,94.5,395.5,95.1z M389.4,107.2c0.7,1.2,1.9,1.8,3.5,1.8c1.3,0,2.3-0.5,3.1-1.6c0.8-1.1,1.2-2.6,1.2-4.7
				c0-2-0.4-3.6-1.3-4.5c-0.8-1-1.9-1.5-3.1-1.5c-1.4,0-2.5,0.5-3.3,1.6c-0.8,1.1-1.3,2.6-1.3,4.6
				C388.3,104.6,388.7,106,389.4,107.2z"/>
			<path fill="#231F20" d="M411.9,101c0.6-0.1,1-0.3,1.3-0.8c0.1-0.2,0.2-0.6,0.2-1c0-0.9-0.3-1.6-1-2c-0.7-0.4-1.6-0.6-2.8-0.6
				c-1.4,0-2.4,0.4-3,1.2c-0.3,0.4-0.5,1.1-0.6,1.9h-2.5c0.1-2,0.7-3.4,1.9-4.2c1.2-0.8,2.7-1.2,4.3-1.2c1.9,0,3.5,0.4,4.6,1.1
				c1.2,0.7,1.8,1.9,1.8,3.4v9.3c0,0.3,0.1,0.5,0.2,0.7c0.1,0.2,0.4,0.3,0.7,0.3c0.1,0,0.3,0,0.4,0c0.2,0,0.3,0,0.5-0.1v2
				c-0.4,0.1-0.7,0.2-1,0.2c-0.2,0-0.5,0-0.9,0c-0.9,0-1.6-0.3-2-1c-0.2-0.4-0.4-0.9-0.5-1.5c-0.6,0.7-1.4,1.4-2.4,1.9
				c-1,0.5-2.2,0.8-3.4,0.8c-1.5,0-2.7-0.5-3.7-1.4c-1-0.9-1.4-2.1-1.4-3.4c0-1.5,0.5-2.7,1.4-3.5c0.9-0.8,2.2-1.3,3.7-1.5
				L411.9,101z M406.2,108.3c0.6,0.5,1.3,0.7,2,0.7c1,0,1.9-0.2,2.8-0.7c1.5-0.7,2.3-1.9,2.3-3.6v-2.2c-0.3,0.2-0.8,0.4-1.3,0.5
				c-0.5,0.1-1,0.2-1.5,0.3l-1.6,0.2c-1,0.1-1.7,0.3-2.2,0.6c-0.8,0.5-1.3,1.2-1.3,2.3C405.3,107.2,405.6,107.9,406.2,108.3z"/>
			<path fill="#231F20" d="M428.8,95.1c0.5,0.3,1,0.8,1.6,1.6v-8.2h2.6v22.3h-2.5v-2.3c-0.6,1-1.4,1.7-2.2,2.2
				c-0.9,0.4-1.9,0.7-3,0.7c-1.8,0-3.4-0.8-4.7-2.3c-1.3-1.5-2-3.5-2-6.1c0-2.4,0.6-4.4,1.8-6.1s2.9-2.6,5.2-2.6
				C426.9,94.3,427.9,94.5,428.8,95.1z M422.7,107.2c0.7,1.2,1.9,1.8,3.5,1.8c1.3,0,2.3-0.5,3.1-1.6c0.8-1.1,1.2-2.6,1.2-4.7
				c0-2-0.4-3.6-1.3-4.5c-0.8-1-1.9-1.5-3.1-1.5c-1.4,0-2.5,0.5-3.3,1.6c-0.8,1.1-1.3,2.6-1.3,4.6C421.6,104.6,422,106,422.7,107.2z
				"/>
		</g>
		<g>
			<path fill="#231F20" d="M135.7,38.6h15.3c4.2,0,7.2,1.2,8.9,3.7c1,1.5,1.6,3.2,1.6,5.1c0,2.2-0.6,4.1-1.9,5.5
				c-0.7,0.8-1.6,1.4-2.8,2.1c1.8,0.7,3.2,1.5,4.1,2.3c1.6,1.5,2.4,3.7,2.4,6.4c0,2.3-0.7,4.4-2.2,6.2c-2.2,2.8-5.6,4.2-10.3,4.2
				h-15.1V38.6z M149.3,53.6c2,0,3.6-0.3,4.8-0.8c1.8-0.9,2.7-2.5,2.7-4.8c0-2.3-1-3.9-2.9-4.7c-1.1-0.5-2.7-0.7-4.8-0.7h-8.7v11
				H149.3z M150.9,70c3,0,5.1-0.9,6.4-2.6c0.8-1.1,1.2-2.4,1.2-3.9c0-2.6-1.2-4.3-3.5-5.3c-1.2-0.5-2.9-0.7-4.9-0.7h-9.6V70H150.9z"
				/>
			<path fill="#231F20" d="M173.6,48.2v17.2c0,1.3,0.2,2.4,0.6,3.2c0.8,1.5,2.2,2.3,4.2,2.3c2.9,0,5-1.4,6-4.1
				c0.6-1.4,0.9-3.4,0.9-6V48.2h4.3v25.9h-4.1l0-3.8c-0.6,1-1.2,1.8-2.1,2.5c-1.6,1.4-3.6,2-5.9,2c-3.6,0-6.1-1.2-7.4-3.7
				c-0.7-1.3-1.1-3.1-1.1-5.3V48.2H173.6z"/>
			<path fill="#231F20" d="M213.7,49c1.7,0.9,3,2,3.9,3.3c0.9,1.3,1.4,2.8,1.7,4.6c0.3,1.2,0.4,3.1,0.4,5.7h-18.8
				c0.1,2.6,0.7,4.7,1.8,6.3c1.1,1.6,2.9,2.4,5.3,2.4c2.3,0,4-0.8,5.4-2.3c0.8-0.9,1.3-1.9,1.6-3h4.3c-0.1,0.9-0.5,2-1.1,3.2
				c-0.6,1.2-1.3,2.1-2.1,2.9c-1.3,1.3-2.9,2.2-4.9,2.6c-1,0.3-2.2,0.4-3.5,0.4c-3.2,0-5.9-1.2-8.1-3.5c-2.2-2.3-3.3-5.6-3.3-9.8
				c0-4.2,1.1-7.5,3.4-10.1c2.2-2.6,5.2-3.9,8.8-3.9C210.2,47.7,212,48.1,213.7,49z M215.3,59.1c-0.2-1.9-0.6-3.4-1.2-4.5
				c-1.2-2.1-3.2-3.1-5.9-3.1c-2,0-3.6,0.7-5,2.2c-1.3,1.4-2.1,3.3-2.1,5.5H215.3z"/>
			<path fill="#231F20" d="M226.2,48.2h4.1v3.7c1.2-1.5,2.5-2.6,3.9-3.3c1.4-0.7,2.9-1,4.6-1c3.7,0,6.1,1.3,7.4,3.8
				c0.7,1.4,1.1,3.4,1.1,6v16.6h-4.4V57.8c0-1.6-0.2-2.8-0.7-3.8c-0.8-1.6-2.2-2.4-4.2-2.4c-1,0-1.9,0.1-2.5,0.3
				c-1.2,0.4-2.2,1.1-3.1,2.1c-0.7,0.9-1.2,1.7-1.4,2.6c-0.2,0.9-0.3,2.2-0.3,3.9v13.5h-4.3V48.2z"/>
			<path fill="#231F20" d="M273.4,50.8c2.3,2.2,3.4,5.5,3.4,9.8c0,4.2-1,7.6-3,10.3c-2,2.7-5.1,4.1-9.4,4.1c-3.5,0-6.3-1.2-8.4-3.6
				c-2.1-2.4-3.1-5.6-3.1-9.7c0-4.3,1.1-7.8,3.3-10.4c2.2-2.6,5.1-3.9,8.8-3.9C268.3,47.5,271.1,48.6,273.4,50.8z M270.7,68
				c1.1-2.2,1.6-4.6,1.6-7.3c0-2.4-0.4-4.4-1.1-5.9c-1.2-2.4-3.3-3.6-6.3-3.6c-2.6,0-4.5,1-5.7,3c-1.2,2-1.8,4.5-1.8,7.3
				c0,2.7,0.6,5,1.8,6.9c1.2,1.8,3.1,2.7,5.7,2.7C267.7,71.3,269.7,70.2,270.7,68z"/>
			<path fill="#231F20" d="M285.8,66c0.1,1.4,0.5,2.6,1.1,3.3c1.1,1.4,3.1,2.1,5.8,2.1c1.6,0,3.1-0.4,4.3-1.1
				c1.2-0.7,1.9-1.8,1.9-3.2c0-1.1-0.5-2-1.5-2.5c-0.6-0.4-1.9-0.8-3.8-1.2l-3.5-0.9c-2.2-0.5-3.9-1.2-5-1.8
				c-1.9-1.2-2.8-2.8-2.8-4.9c0-2.4,0.9-4.4,2.7-5.9c1.8-1.5,4.2-2.3,7.2-2.3c3.9,0,6.8,1.1,8.5,3.4c1.1,1.4,1.6,3,1.6,4.7h-4.1
				c-0.1-1-0.4-1.9-1.1-2.7c-1-1.1-2.8-1.7-5.3-1.7c-1.7,0-3,0.3-3.8,0.9c-0.9,0.6-1.3,1.5-1.3,2.5c0,1.1,0.6,2,1.7,2.7
				c0.7,0.4,1.6,0.8,2.9,1.1l2.9,0.7c3.2,0.8,5.3,1.5,6.4,2.2c1.7,1.1,2.5,2.9,2.5,5.2c0,2.3-0.9,4.3-2.7,6
				c-1.8,1.7-4.5,2.5-8.1,2.5c-3.9,0-6.7-0.9-8.3-2.6c-1.6-1.7-2.5-3.9-2.6-6.5H285.8z"/>
			<path fill="#231F20" d="M331.8,38.6h5.4l12.9,35.5h-5.3l-3.7-10.6h-13.9l-3.8,10.6h-4.9L331.8,38.6z M339.8,59.6l-5.5-15.7
				l-5.7,15.7H339.8z"/>
			<path fill="#231F20" d="M354.9,38.6h4.4v4.9h-4.4V38.6z M354.9,48.4h4.4v25.7h-4.4V48.4z"/>
			<path fill="#231F20" d="M367,48.2h4.1v4.5c0.3-0.9,1.2-1.9,2.5-3.2c1.3-1.2,2.8-1.9,4.6-1.9c0.1,0,0.2,0,0.4,0c0.2,0,0.5,0,1,0.1
				v4.6c-0.3,0-0.5-0.1-0.7-0.1c-0.2,0-0.5,0-0.7,0c-2.2,0-3.9,0.7-5,2.1c-1.2,1.4-1.8,3-1.8,4.9v14.9H367V48.2z"/>
			<path fill="#231F20" d="M400.3,49c1.7,0.9,3,2,3.9,3.3c0.9,1.3,1.4,2.8,1.7,4.6c0.3,1.2,0.4,3.1,0.4,5.7h-18.8
				c0.1,2.6,0.7,4.7,1.8,6.3c1.1,1.6,2.9,2.4,5.3,2.4c2.3,0,4-0.8,5.4-2.3c0.8-0.9,1.3-1.9,1.6-3h4.3c-0.1,0.9-0.5,2-1.1,3.2
				c-0.6,1.2-1.3,2.1-2.1,2.9c-1.3,1.3-2.9,2.2-4.9,2.6c-1,0.3-2.2,0.4-3.5,0.4c-3.2,0-5.9-1.2-8.1-3.5c-2.2-2.3-3.3-5.6-3.3-9.8
				c0-4.2,1.1-7.5,3.4-10.1c2.2-2.6,5.2-3.9,8.8-3.9C396.8,47.7,398.5,48.1,400.3,49z M401.8,59.1c-0.2-1.9-0.6-3.4-1.2-4.5
				c-1.2-2.1-3.2-3.1-5.9-3.1c-2,0-3.6,0.7-5,2.2c-1.3,1.4-2.1,3.3-2.1,5.5H401.8z"/>
			<path fill="#231F20" d="M415.4,66c0.1,1.4,0.5,2.6,1.1,3.3c1.1,1.4,3.1,2.1,5.8,2.1c1.6,0,3.1-0.4,4.3-1.1
				c1.2-0.7,1.9-1.8,1.9-3.2c0-1.1-0.5-2-1.5-2.5c-0.6-0.4-1.9-0.8-3.8-1.2l-3.5-0.9c-2.2-0.5-3.9-1.2-5-1.8
				c-1.9-1.2-2.8-2.8-2.8-4.9c0-2.4,0.9-4.4,2.7-5.9c1.8-1.5,4.2-2.3,7.2-2.3c3.9,0,6.8,1.1,8.5,3.4c1.1,1.4,1.6,3,1.6,4.7h-4.1
				c-0.1-1-0.4-1.9-1.1-2.7c-1-1.1-2.8-1.7-5.3-1.7c-1.7,0-3,0.3-3.8,0.9c-0.9,0.6-1.3,1.5-1.3,2.5c0,1.1,0.6,2,1.7,2.7
				c0.7,0.4,1.6,0.8,2.9,1.1l2.9,0.7c3.2,0.8,5.3,1.5,6.4,2.2c1.7,1.1,2.5,2.9,2.5,5.2c0,2.3-0.9,4.3-2.7,6
				c-1.8,1.7-4.5,2.5-8.1,2.5c-3.9,0-6.7-0.9-8.3-2.6c-1.6-1.7-2.5-3.9-2.6-6.5H415.4z"/>
		</g>
	</g>
	<g>
		<path fill="#D4D526" d="M34.6,115.4c-0.1,0.1-0.1,0.1-0.2,0.2C34.5,115.5,34.5,115.5,34.6,115.4"/>
		<path fill="#D4D526" d="M34.4,115.6c0,0-0.1,0.1-0.1,0.1C34.3,115.7,34.4,115.6,34.4,115.6"/>
		<path d="M33.9,111c-7.4-9.1-12.1-21.8-12.1-36c0-14.1,4.7-26.9,12.1-36c7.4-9.1,17.3-14.4,28.2-14.5c10.8,0,20.8,5.4,28.2,14.5
			c7.4,9.1,12.1,21.9,12.1,36c0,14.2-4.7,26.9-12.1,36c-7.4,9.1-17.3,14.5-28.2,14.5C51.2,125.4,41.3,120.1,33.9,111 M107.2,75
			c0-30.6-20.2-55.5-45.1-55.5C37.2,19.5,17,44.3,17,75c0,30.7,20.2,55.5,45.1,55.5C87,130.5,107.2,105.7,107.2,75"/>
		<path d="M84.4,71.2V40.1c-1.5-1.6-3.2-3.1-4.9-4.4v35.5H84.4z"/>
		<path d="M74.5,71.2V32.7c-1.6-0.8-3.2-1.4-4.9-1.9v40.4H74.5z"/>
		<path d="M64.7,71.2V29.9c-0.9-0.1-1.7-0.1-2.6-0.1c-0.8,0-1.6,0-2.3,0.1v41.3H64.7z"/>
		<path d="M54.8,71.2V30.8c-1.7,0.5-3.3,1-4.9,1.8v38.6H54.8z"/>
		<path d="M44.9,71.2V35.5c-1.7,1.3-3.4,2.7-4.9,4.3v31.4H44.9z"/>
		<path d="M77.9,115.4H46.2c4.8,3.1,10.2,4.9,15.8,4.9C67.7,120.2,73.1,118.5,77.9,115.4"/>
		<path d="M86.7,107.3c0.4-0.6,0.9-1.1,1.3-1.7H36.2c0.4,0.6,0.9,1.2,1.3,1.7c0.9,1.2,1.8,2.2,2.8,3.2h43.6
			C84.8,109.5,85.8,108.4,86.7,107.3"/>
		<path d="M93.3,95.7H30.9c0.7,1.7,1.4,3.4,2.3,4.9H91C91.8,99.1,92.6,97.4,93.3,95.7"/>
		<path d="M97.2,76.1H26.9c0,1.7,0.1,3.3,0.3,4.9h69.6C97.1,79.4,97.2,77.8,97.2,76.1"/>
		<path d="M96.2,86H28c0.3,1.7,0.7,3.3,1.2,4.9H95C95.4,89.3,95.8,87.7,96.2,86"/>
	</g>
</g>
</svg>
