<?xml version="1.0" encoding="utf-8"?>
<!-- Generator: Adobe Illustrator 18.0.0, SVG Export Plug-In . SVG Version: 6.00 Build 0)  -->
<!DOCTYPE svg PUBLIC "-//W3C//DTD SVG 1.1//EN" "http://www.w3.org/Graphics/SVG/1.1/DTD/svg11.dtd">
<svg version="1.1" id="Layer_1" xmlns="http://www.w3.org/2000/svg" xmlns:xlink="http://www.w3.org/1999/xlink" x="0px" y="0px"
	 viewBox="0 0 120 120" enable-background="new 0 0 120 120" xml:space="preserve">
<g>
	<path fill="#564273" d="M85.5,106.6h-51c-1.8,0-3.3-1.5-3.3-3.3V16.8c0-1.8,1.5-3.3,3.3-3.3h51c1.8,0,3.3,1.5,3.3,3.3v86.5
		C88.9,105.1,87.4,106.6,85.5,106.6z M34.5,16.4c-0.2,0-0.3,0.2-0.3,0.3v86.5c0,0.2,0.2,0.3,0.3,0.3h51c0.2,0,0.3-0.2,0.3-0.3V16.8
		c0-0.2-0.2-0.3-0.3-0.3H34.5z"/>
	<rect x="32.6" y="89.7" fill="#564273" width="54.7" height="3"/>
	<circle fill="#6461FF" cx="59.8" cy="97.9" r="2.8"/>
	<rect x="38.2" y="20.6" fill="#FFF3DC" width="43.2" height="65.4"/>
</g>
</svg>
