<?xml version="1.0" encoding="utf-8"?>
<!-- Generator: Adobe Illustrator 18.0.0, SVG Export Plug-In . SVG Version: 6.00 Build 0)  -->
<!DOCTYPE svg PUBLIC "-//W3C//DTD SVG 1.1//EN" "http://www.w3.org/Graphics/SVG/1.1/DTD/svg11.dtd">
<svg version="1.1" id="Layer_1" xmlns="http://www.w3.org/2000/svg" xmlns:xlink="http://www.w3.org/1999/xlink" x="0px" y="0px"
	 viewBox="0 0 180 150" enable-background="new 0 0 180 150" xml:space="preserve">
<g>
	<path fill="#6461FF" d="M91.1,46.8c-0.4,0-0.8-0.2-1.1-0.4L76.9,33.2c-1.8-1.8-2.7-4.1-2.7-6.6c0-2.5,1-4.8,2.7-6.6
		c1.8-1.8,4.1-2.7,6.6-2.7c2.5,0,4.8,1,6.6,2.7l1.1,1.1l1.1-1.1c1.8-1.8,4.1-2.7,6.6-2.7s4.8,1,6.6,2.7c1.8,1.8,2.7,4.1,2.7,6.6
		s-1,4.8-2.7,6.6L92.2,46.3C91.9,46.6,91.5,46.8,91.1,46.8z M83.4,20.4c-1.7,0-3.2,0.7-4.4,1.8c-1.2,1.2-1.8,2.8-1.8,4.4
		s0.7,3.2,1.8,4.4l12.1,12.1l12.1-12.1c1.2-1.2,1.8-2.8,1.8-4.4s-0.7-3.2-1.8-4.4c-1.2-1.2-2.8-1.8-4.4-1.8s-3.2,0.7-4.4,1.8
		l-2.2,2.2c-0.3,0.3-0.7,0.4-1.1,0.4l0,0c-0.4,0-0.8-0.2-1.1-0.4l-2.2-2.2C86.7,21,85.1,20.4,83.4,20.4z"/>
	<g>
		<path fill="#6461FF" d="M91.1,99.4c-8.9,0-16.2-7.3-16.2-16.2S82.2,67,91.1,67s16.2,7.3,16.2,16.2S100,99.4,91.1,99.4z M91.1,70
			c-7.3,0-13.2,5.9-13.2,13.2c0,7.3,5.9,13.2,13.2,13.2s13.2-5.9,13.2-13.2C104.3,76,98.4,70,91.1,70z"/>
		<g>
			<circle fill="#6461FF" cx="85.4" cy="80.4" r="1.8"/>
			<circle fill="#6461FF" cx="96.8" cy="80.4" r="1.8"/>
		</g>
		<path fill="#6461FF" d="M91.1,91c-2.9,0-5.8-0.8-8.4-2.4c-0.7-0.4-0.9-1.4-0.5-2.1c0.4-0.7,1.4-0.9,2.1-0.5
			c4.2,2.6,9.5,2.6,13.7,0c0.7-0.4,1.6-0.2,2.1,0.5c0.4,0.7,0.2,1.6-0.5,2.1C96.9,90.2,94,91,91.1,91z"/>
	</g>
</g>
<g>
	<path fill="#6461FF" d="M143.2,129.7c-0.4,0-0.8-0.1-1.1-0.4c-0.6-0.6-0.6-1.5,0-2.1l24.3-24.3c0.6-0.6,1.5-0.6,2.1,0
		s0.6,1.5,0,2.1l-24.3,24.3C144,129.6,143.6,129.7,143.2,129.7z"/>
	<path fill="#6461FF" d="M167.5,129.7c-0.4,0-0.8-0.1-1.1-0.4L142.2,105c-0.6-0.6-0.6-1.5,0-2.1s1.5-0.6,2.1,0l24.3,24.3
		c0.6,0.6,0.6,1.5,0,2.1C168.3,129.6,167.9,129.7,167.5,129.7z"/>
</g>
<path fill="#6461FF" d="M21.6,127.7C21.6,127.7,21.6,127.7,21.6,127.7c-0.4,0-0.8-0.2-1.1-0.5l-7.9-8.5c-0.6-0.6-0.5-1.6,0.1-2.1
	c0.6-0.6,1.6-0.5,2.1,0.1l6.8,7.3l23.2-23.2c0.6-0.6,1.5-0.6,2.1,0s0.6,1.5,0,2.1l-24.3,24.3C22.4,127.5,22,127.7,21.6,127.7z"/>
<g>
	<path fill="#564273" d="M28.3,99.4c-0.1,0-0.2,0-0.3,0c-0.8-0.1-1.4-0.9-1.2-1.7C33.4,59.1,67.1,44,67.5,43.9c0.8-0.3,1.6,0,2,0.8
		c0.3,0.8,0,1.6-0.8,2C68.3,46.8,36,61.3,29.7,98.2C29.6,98.9,29,99.4,28.3,99.4z"/>
	<path fill="#564273" d="M154,99.4c-0.7,0-1.4-0.5-1.5-1.2c-6.3-37-38.6-51.4-38.9-51.5c-0.8-0.3-1.1-1.2-0.8-2
		c0.3-0.8,1.2-1.1,2-0.8c0.3,0.1,34.1,15.2,40.7,53.8c0.1,0.8-0.4,1.6-1.2,1.7C154.1,99.4,154,99.4,154,99.4z"/>
</g>
<path fill="#564273" d="M92.5,132.5c-13.3,0-26.6-3.6-38.5-10.9c-0.7-0.4-0.9-1.4-0.5-2.1c0.4-0.7,1.4-0.9,2.1-0.5
	c22.8,14,51.1,14,73.9,0c0.7-0.4,1.6-0.2,2.1,0.5c0.4,0.7,0.2,1.6-0.5,2.1C119.1,128.8,105.8,132.5,92.5,132.5z"/>
</svg>
