<?xml version="1.0" encoding="utf-8"?>
<!-- Generator: Adobe Illustrator 18.0.0, SVG Export Plug-In . SVG Version: 6.00 Build 0)  -->
<!DOCTYPE svg PUBLIC "-//W3C//DTD SVG 1.1//EN" "http://www.w3.org/Graphics/SVG/1.1/DTD/svg11.dtd">
<svg version="1.1" id="Layer_1" xmlns="http://www.w3.org/2000/svg" xmlns:xlink="http://www.w3.org/1999/xlink" x="0px" y="0px"
	 viewBox="0 0 240 35" enable-background="new 0 0 240 35" xml:space="preserve">
<g>
	<polygon fill="#6461FF" points="237.7,32.2 2.3,32.2 6.3,17.5 2.3,2.8 237.7,2.8 233.7,17.5 	"/>
	<g>
		<g>
			<path fill="#FFFFFF" d="M25.4,14c0-0.2,0.2-0.4,0.5-0.4h2.4c1.5,0,2.7,0.7,2.7,2.7v0.1c0,2-1.2,2.7-2.8,2.7h-1.5v3.1
				c0,0.3-0.3,0.4-0.7,0.4c-0.3,0-0.7-0.1-0.7-0.4V14z M26.7,14.8v3.4h1.5c0.9,0,1.5-0.5,1.5-1.6v-0.1c0-1.1-0.6-1.6-1.5-1.6H26.7z"
				/>
			<path fill="#FFFFFF" d="M34.6,14c0-0.2,0.2-0.4,0.4-0.4h2.4c1.6,0,2.9,0.6,2.9,2.5c0,1.5-0.8,2.2-1.8,2.5l1.7,3.3
				c0,0.1,0,0.1,0,0.2c0,0.3-0.4,0.7-0.8,0.7c-0.2,0-0.4-0.1-0.5-0.4l-1.8-3.6h-1.3v3.5c0,0.3-0.3,0.4-0.7,0.4
				c-0.3,0-0.6-0.1-0.6-0.4V14z M35.9,14.8v3h1.5c0.9,0,1.5-0.4,1.5-1.5c0-1.1-0.6-1.5-1.5-1.5H35.9z"/>
			<path fill="#FFFFFF" d="M44,20v-3.6c0-2,1.2-2.8,2.8-2.8c1.6,0,2.8,0.8,2.8,2.8V20c0,2-1.2,2.8-2.8,2.8C45.2,22.8,44,22,44,20z
				 M48.2,16.4c0-1.1-0.6-1.6-1.5-1.6c-0.9,0-1.5,0.5-1.5,1.6V20c0,1.1,0.5,1.6,1.5,1.6c0.9,0,1.5-0.5,1.5-1.6V16.4z"/>
			<path fill="#FFFFFF" d="M57.5,19.4c-0.1,0.2-0.3,0.3-0.5,0.3c-0.2,0-0.3-0.1-0.4-0.3l-1.7-3.2v6c0,0.3-0.3,0.4-0.7,0.4
				c-0.3,0-0.7-0.1-0.7-0.4v-8c0-0.5,0.3-0.7,0.7-0.7c0.5,0,0.7,0.2,1,0.7l1.7,3.3l1.8-3.3c0.3-0.6,0.6-0.7,1-0.7
				c0.3,0,0.7,0.2,0.7,0.7v8c0,0.3-0.3,0.4-0.7,0.4c-0.3,0-0.7-0.1-0.7-0.4v-6L57.5,19.4z"/>
			<path fill="#FFFFFF" d="M64.5,20v-3.6c0-2,1.2-2.8,2.8-2.8c1.6,0,2.8,0.8,2.8,2.8V20c0,2-1.2,2.8-2.8,2.8
				C65.7,22.8,64.5,22,64.5,20z M68.8,16.4c0-1.1-0.6-1.6-1.5-1.6c-0.9,0-1.5,0.5-1.5,1.6V20c0,1.1,0.5,1.6,1.5,1.6
				c0.9,0,1.5-0.5,1.5-1.6V16.4z"/>
			<path fill="#FFFFFF" d="M79.1,14c0-0.3,0.3-0.4,0.6-0.4h4.4c0.3,0,0.4,0.3,0.4,0.6c0,0.3-0.1,0.6-0.4,0.6h-3.6v2.8h1.9
				c0.3,0,0.4,0.2,0.4,0.5c0,0.2-0.1,0.5-0.4,0.5h-1.9v3.6c0,0.3-0.3,0.4-0.7,0.4c-0.3,0-0.7-0.1-0.7-0.4V14z"/>
			<path fill="#FFFFFF" d="M87.8,14c0-0.3,0.3-0.4,0.7-0.4c0.3,0,0.7,0.1,0.7,0.4v8.2c0,0.3-0.3,0.4-0.7,0.4c-0.3,0-0.7-0.1-0.7-0.4
				V14z"/>
			<path fill="#FFFFFF" d="M97.6,22.2l-3-5.7v5.7c0,0.3-0.3,0.4-0.7,0.4c-0.3,0-0.7-0.1-0.7-0.4V14c0-0.3,0.3-0.4,0.7-0.4
				c0.5,0,0.7,0.2,1,0.7l2.8,5.4V14c0-0.3,0.3-0.4,0.7-0.4c0.3,0,0.7,0.1,0.7,0.4v8.2c0,0.3-0.3,0.4-0.7,0.4
				C98,22.7,97.8,22.5,97.6,22.2z"/>
			<path fill="#FFFFFF" d="M110.9,13.6c1.6,0,2.8,0.8,2.8,2.8v3.5c0,2-1.2,2.8-2.8,2.8h-2.2c-0.3,0-0.6-0.2-0.6-0.4V14
				c0-0.2,0.2-0.4,0.6-0.4H110.9z M109.4,14.8v6.8h1.5c0.9,0,1.5-0.5,1.5-1.6v-3.5c0-1.1-0.5-1.6-1.5-1.6H109.4z"/>
			<path fill="#FFFFFF" d="M119,17.6h1.9c0.3,0,0.4,0.2,0.4,0.5c0,0.2-0.1,0.5-0.4,0.5H119v2.9h3.7c0.3,0,0.4,0.3,0.4,0.6
				c0,0.3-0.1,0.6-0.4,0.6h-4.4c-0.3,0-0.6-0.1-0.6-0.4V14c0-0.3,0.3-0.4,0.6-0.4h4.4c0.3,0,0.4,0.3,0.4,0.6c0,0.3-0.2,0.6-0.4,0.6
				H119V17.6z"/>
			<path fill="#FFFFFF" d="M131,22.2c0,0,0-0.1,0-0.1l2.5-8.1c0.1-0.3,0.5-0.4,0.8-0.4s0.7,0.1,0.8,0.4l2.5,8.1c0,0,0,0.1,0,0.1
				c0,0.3-0.5,0.5-0.8,0.5c-0.2,0-0.4-0.1-0.4-0.3l-0.5-1.8h-3.1l-0.5,1.8c-0.1,0.2-0.2,0.3-0.5,0.3C131.5,22.7,131,22.5,131,22.2z
				 M135.6,19.6l-1.2-4.3l-1.2,4.3H135.6z"/>
			<path fill="#FFFFFF" d="M145.5,22.2l-3-5.7v5.7c0,0.3-0.3,0.4-0.7,0.4c-0.3,0-0.7-0.1-0.7-0.4V14c0-0.3,0.3-0.4,0.7-0.4
				c0.5,0,0.7,0.2,1,0.7l2.8,5.4V14c0-0.3,0.3-0.4,0.7-0.4c0.3,0,0.7,0.1,0.7,0.4v8.2c0,0.3-0.3,0.4-0.7,0.4
				C145.9,22.7,145.6,22.5,145.5,22.2z M142.3,12.2c-0.3,0-0.3-0.3-0.3-0.4c0-0.6,0.8-0.8,1.1-0.8c0.7,0,1,0.4,1.7,0.4
				c0.5,0,0.7-0.3,1-0.3c0.3,0,0.3,0.3,0.3,0.4c0,0.7-0.7,0.8-1.1,0.8c-0.8,0-1.1-0.4-1.7-0.4C142.7,11.8,142.5,12.2,142.3,12.2z"/>
			<path fill="#FFFFFF" d="M150.9,20v-3.6c0-2,1.2-2.8,2.8-2.8c1.6,0,2.8,0.8,2.8,2.8V20c0,2-1.2,2.8-2.8,2.8
				C152.1,22.8,150.9,22,150.9,20z M155.2,16.4c0-1.1-0.6-1.6-1.5-1.6c-0.9,0-1.5,0.5-1.5,1.6V20c0,1.1,0.5,1.6,1.5,1.6
				c0.9,0,1.5-0.5,1.5-1.6V16.4z"/>
			<path fill="#FFFFFF" d="M168.2,14.8c-0.9,0-1.5,0.5-1.5,1.6V20c0,1.1,0.5,1.6,1.5,1.6c0.9,0,1.5-0.5,1.5-1.6v-1h-1.3
				c-0.3,0-0.4-0.3-0.4-0.5c0-0.2,0.1-0.5,0.4-0.5h2.1c0.3,0,0.4,0.2,0.4,0.4V20c0,2-1.2,2.8-2.8,2.8c-1.6,0-2.8-0.8-2.8-2.8v-3.6
				c0-2,1.2-2.8,2.7-2.8c1.7,0,2.8,0.9,2.8,2.3c0,0.5-0.2,0.6-0.7,0.6c-0.3,0-0.6-0.1-0.7-0.4C169.6,15.4,169.3,14.8,168.2,14.8z"/>
			<path fill="#FFFFFF" d="M174.9,14c0-0.2,0.2-0.4,0.4-0.4h2.4c1.6,0,2.9,0.6,2.9,2.5c0,1.5-0.8,2.2-1.8,2.5l1.7,3.3
				c0,0.1,0,0.1,0,0.2c0,0.3-0.4,0.7-0.8,0.7c-0.2,0-0.4-0.1-0.5-0.4l-1.8-3.6h-1.3v3.5c0,0.3-0.3,0.4-0.7,0.4
				c-0.3,0-0.6-0.1-0.6-0.4V14z M176.2,14.8v3h1.5c0.9,0,1.5-0.4,1.5-1.5c0-1.1-0.6-1.5-1.5-1.5H176.2z"/>
			<path fill="#FFFFFF" d="M183.7,22.2c0,0,0-0.1,0-0.1l2.5-8.1c0.1-0.3,0.5-0.4,0.8-0.4s0.7,0.1,0.8,0.4l2.5,8.1c0,0,0,0.1,0,0.1
				c0,0.3-0.5,0.5-0.8,0.5c-0.2,0-0.4-0.1-0.4-0.3l-0.5-1.8h-3.1l-0.5,1.8c-0.1,0.2-0.2,0.3-0.5,0.3
				C184.2,22.7,183.7,22.5,183.7,22.2z M188.3,19.6l-1.2-4.3l-1.2,4.3H188.3z"/>
			<path fill="#FFFFFF" d="M198.1,13.6c0.3,0,0.4,0.3,0.4,0.6c0,0.3-0.1,0.6-0.4,0.6h-1.9v7.4c0,0.3-0.3,0.4-0.7,0.4
				c-0.3,0-0.7-0.1-0.7-0.4v-7.4h-1.9c-0.3,0-0.4-0.3-0.4-0.6c0-0.3,0.1-0.6,0.4-0.6H198.1z"/>
			<path fill="#FFFFFF" d="M202,14c0-0.3,0.3-0.4,0.7-0.4c0.3,0,0.7,0.1,0.7,0.4v8.2c0,0.3-0.3,0.4-0.7,0.4c-0.3,0-0.7-0.1-0.7-0.4
				V14z"/>
			<path fill="#FFFFFF" d="M211.2,20.3c0-2.2-4-1.3-4-4.3c0-1.8,1.5-2.4,2.9-2.4c0.8,0,2.3,0.2,2.3,0.9c0,0.2-0.2,0.7-0.5,0.7
				c-0.3,0-0.7-0.5-1.7-0.5c-0.9,0-1.6,0.3-1.6,1.1c0,1.8,4,1,4,4.3c0,1.8-1.2,2.6-2.8,2.6c-1.6,0-2.7-0.8-2.7-1.5
				c0-0.3,0.3-0.7,0.6-0.7c0.4,0,0.7,1,2.1,1C210.6,21.6,211.2,21.2,211.2,20.3z"/>
		</g>
	</g>
</g>
</svg>
