<?xml version="1.0" encoding="utf-8"?>
<!-- Generator: Adobe Illustrator 18.0.0, SVG Export Plug-In . SVG Version: 6.00 Build 0)  -->
<!DOCTYPE svg PUBLIC "-//W3C//DTD SVG 1.1//EN" "http://www.w3.org/Graphics/SVG/1.1/DTD/svg11.dtd">
<svg version="1.1" id="Layer_1" xmlns="http://www.w3.org/2000/svg" xmlns:xlink="http://www.w3.org/1999/xlink" x="0px" y="0px"
	 viewBox="0 0 80 70" enable-background="new 0 0 80 70" xml:space="preserve">
<g>
	<g>
		<path fill="#F0F0FF" d="M62.8,63.1c-9.1,0-16.2-7.1-16.2-16.2c0-3,1.3-9.8,12.6-35.1l0.1-0.1c1.6-2.8,4.2-4.4,7.2-4.4
			c4.7,0,9.7,3.3,9.7,8.6c0,0.9,0,2-0.7,3.4l-5.4,13.3c5.5,2.8,8.9,8.2,8.9,14.3C79,56,71.8,63.1,62.8,63.1z M61.8,13.1
			c-8.3,18.5-12.3,29.6-12.3,33.8c0,7.4,5.8,13.2,13.2,13.2S76,54.3,76,46.9c0-5.4-3.3-10.1-8.4-12.2l-1.4-0.6L72.7,18
			c0.4-0.8,0.4-1.4,0.4-2.2c0-3.6-3.9-5.6-6.7-5.6C64.5,10.3,62.9,11.3,61.8,13.1z M17.2,63.1C8.3,63.1,1,55.9,1,46.9
			c0-4.5,3.7-14.6,12.9-35.1c1.4-3.2,4.5-4.6,7-4.6c4.9,0,10,3.2,10,8.6c0,0.9,0,2-0.7,3.4l-5.4,13.3c5.2,2.8,8.6,8.4,8.6,14.3
			C33.4,56.2,26.5,63.1,17.2,63.1z M20.9,10.3c-1.5,0-3.4,0.9-4.3,2.8C7.9,32.6,4,43,4,46.9c0,7.3,5.9,13.2,13.2,13.2
			c7.5,0,13.2-5.7,13.2-13.2c0-5.2-3.3-10.1-8.1-12.2L21,34.2L27.5,18c0.4-0.8,0.4-1.4,0.4-2.2C27.9,12.4,24.3,10.3,20.9,10.3z"/>
	</g>
</g>
</svg>
