<?xml version="1.0" encoding="utf-8"?>
<!-- Generator: Adobe Illustrator 18.0.0, SVG Export Plug-In . SVG Version: 6.00 Build 0)  -->
<!DOCTYPE svg PUBLIC "-//W3C//DTD SVG 1.1//EN" "http://www.w3.org/Graphics/SVG/1.1/DTD/svg11.dtd">
<svg version="1.1" id="Layer_1" xmlns="http://www.w3.org/2000/svg" xmlns:xlink="http://www.w3.org/1999/xlink" x="0px" y="0px"
	 viewBox="0 0 100 80" enable-background="new 0 0 100 80" xml:space="preserve">
<g>
	<g>
		<path fill="#FF4B8B" d="M76.8,72.6C66.3,72.6,58,64.4,58,53.8c0-3.5,1.5-11.5,14.8-41.2c0,0,0-0.1,0.1-0.1
			c1.8-3.2,4.8-5.1,8.3-5.1c5.4,0,11.2,3.8,11.2,9.8c0,1,0,2.3-0.8,3.9l-6.4,15.9c6.5,3.2,10.6,9.6,10.6,16.8
			C95.6,64.4,87.4,72.6,76.8,72.6z M75.5,13.9C65.7,35.7,61,48.8,61,53.8c0,8.9,6.9,15.8,15.8,15.8s15.8-6.9,15.8-15.8
			c0-6.4-3.9-12.2-10-14.6c-0.4-0.1-0.7-0.4-0.8-0.8c-0.2-0.4-0.2-0.8,0-1.1l7-17.3c0,0,0-0.1,0-0.1c0.5-1,0.5-1.7,0.5-2.7
			c0-4.5-4.7-6.8-8.2-6.8C78.8,10.4,76.8,11.6,75.5,13.9z M23.2,72.6c-10.4,0-18.8-8.4-18.8-18.8c0-5.2,4.4-17.2,15.1-41.2
			c1.6-3.6,5.2-5.2,8-5.2C33.2,7.4,39,11,39,17.2c0,1,0,2.3-0.8,3.9l-6.4,15.9C38,40.3,42,46.8,42,53.8C42,64.5,33.9,72.6,23.2,72.6
			z M27.5,10.4c-1.8,0-4.2,1.1-5.3,3.4C12,36.8,7.4,49.2,7.4,53.8c0,8.7,7.1,15.8,15.8,15.8c9,0,15.8-6.8,15.8-15.8
			c0-6.3-3.9-12.1-9.7-14.6c-0.8-0.3-1.1-1.2-0.8-1.9l7-17.3c0,0,0-0.1,0-0.1c0.5-1,0.5-1.7,0.5-2.7C36,13,31.6,10.4,27.5,10.4z"/>
	</g>
</g>
</svg>
