<?xml version="1.0" encoding="utf-8"?>
<!-- Generator: Adobe Illustrator 18.0.0, SVG Export Plug-In . SVG Version: 6.00 Build 0)  -->
<!DOCTYPE svg PUBLIC "-//W3C//DTD SVG 1.1//EN" "http://www.w3.org/Graphics/SVG/1.1/DTD/svg11.dtd">
<svg version="1.1" id="Layer_1" xmlns="http://www.w3.org/2000/svg" xmlns:xlink="http://www.w3.org/1999/xlink" x="0px" y="0px"
	 viewBox="0 0 340 220" enable-background="new 0 0 340 220" xml:space="preserve">
<g>
	<circle fill="#FFF7E8" cx="153" cy="110" r="104.3"/>
	<path fill="#564273" d="M100.8,181.4H17.4c-2.6,0-4.8-2.1-4.8-4.8v-71.7c0-1,0.8-1.8,1.8-1.8s1.8,0.8,1.8,1.8v71.7
		c0,0.7,0.5,1.2,1.2,1.2h83.4c0.7,0,1.2-0.5,1.2-1.2V35.3c0-0.7-0.5-1.2-1.2-1.2H17.4c-0.7,0-1.2,0.5-1.2,1.2v55.2
		c0,1-0.8,1.8-1.8,1.8s-1.8-0.8-1.8-1.8V35.3c0-2.6,2.1-4.8,4.8-4.8h83.4c2.6,0,4.8,2.1,4.8,4.8v141.3
		C105.6,179.2,103.4,181.4,100.8,181.4z"/>
	<rect x="14.4" y="155.2" fill="#564273" width="89.4" height="3.6"/>
	<circle fill="#FF4B8B" cx="58.7" cy="168" r="4.6"/>
	<rect x="23.5" y="41.6" fill="#F0F0FF" width="70.5" height="106.9"/>
	<path fill="#564273" d="M326.3,158.8H133.2c-2.6,0-4.8-2.1-4.8-4.8V55.1c0-2.6,2.1-4.8,4.8-4.8h193.1c2.6,0,4.8,2.1,4.8,4.8V154
		C331.1,156.6,329,158.8,326.3,158.8z M133.2,53.9c-0.7,0-1.2,0.5-1.2,1.2V154c0,0.7,0.5,1.2,1.2,1.2h193.1c0.7,0,1.2-0.5,1.2-1.2
		V55.1c0-0.7-0.5-1.2-1.2-1.2H133.2z"/>
	<path fill="#564273" d="M257.2,181.4h-55.4v-26.2h55.4V181.4z M205.4,177.8h48.3v-19.1h-48.3V177.8z"/>
	<path fill="#564273" d="M277.8,181.4h-96c-1,0-1.8-0.8-1.8-1.8s0.8-1.8,1.8-1.8h96c1,0,1.8,0.8,1.8,1.8S278.7,181.4,277.8,181.4z"
		/>
	<rect x="130.2" y="146.7" fill="#564273" width="199.1" height="3.6"/>
	<rect x="139.4" y="60.8" fill="#F0F0FF" width="180.8" height="79.6"/>
	<g>
		<path fill="#FF4B8B" d="M164.6,76c0,1-0.8,1.8-1.8,1.8c-1,0-1.8-0.8-1.8-1.8c0-1,0.8-1.8,1.8-1.8C163.8,74.2,164.6,75,164.6,76
			L164.6,76z"/>
		<path fill="#FFC352" d="M171.4,76c0,1-0.8,1.8-1.8,1.8c-1,0-1.8-0.8-1.8-1.8c0-1,0.8-1.8,1.8-1.8C170.6,74.2,171.4,75,171.4,76
			L171.4,76z M171.4,76"/>
		<path fill="#564273" d="M178.1,76c0,1-0.8,1.8-1.8,1.8c-1,0-1.8-0.8-1.8-1.8c0-1,0.8-1.8,1.8-1.8C177.3,74.2,178.1,75,178.1,76
			L178.1,76z"/>
	</g>
	<path fill="#564273" d="M308.4,140.3h-3.6V74.9c0-2-1.6-3.7-3.7-3.7H158.4c-2,0-3.7,1.6-3.7,3.7v65.4h-3.6V74.9
		c0-4,3.2-7.2,7.2-7.2h142.8c4,0,7.2,3.2,7.2,7.2V140.3z"/>
	<rect x="153" y="80.2" fill="#564273" width="153.6" height="3.6"/>
	<g>
		<path fill="#6461FF" d="M63.5,76H51.8c-2.2,0-4-1.8-4-4V60.4c0-2.2,1.8-4,4-4h11.6c2.2,0,4,1.8,4,4v11.6
			C67.4,74.3,65.7,76,63.5,76z M51.8,58.9c-0.9,0-1.5,0.7-1.5,1.5v11.6c0,0.9,0.7,1.5,1.5,1.5h11.6c0.9,0,1.5-0.7,1.5-1.5V60.4
			c0-0.9-0.7-1.5-1.5-1.5H51.8z"/>
		<path fill="#6461FF" d="M63.5,104.1H51.8c-2.2,0-4-1.8-4-4V88.5c0-2.2,1.8-4,4-4h11.6c2.2,0,4,1.8,4,4v11.6
			C67.4,102.3,65.7,104.1,63.5,104.1z M51.8,86.9c-0.9,0-1.5,0.7-1.5,1.5v11.6c0,0.9,0.7,1.5,1.5,1.5h11.6c0.9,0,1.5-0.7,1.5-1.5
			V88.5c0-0.9-0.7-1.5-1.5-1.5H51.8z"/>
		<path fill="#6461FF" d="M63.5,132.1H51.8c-2.2,0-4-1.8-4-4v-11.6c0-2.2,1.8-4,4-4h11.6c2.2,0,4,1.8,4,4v11.6
			C67.4,130.3,65.7,132.1,63.5,132.1z M51.8,114.9c-0.9,0-1.5,0.7-1.5,1.5v11.6c0,0.9,0.7,1.5,1.5,1.5h11.6c0.9,0,1.5-0.7,1.5-1.5
			v-11.6c0-0.9-0.7-1.5-1.5-1.5H51.8z"/>
		<circle fill="#FF4B8B" cx="57.6" cy="66.2" r="1.9"/>
		<path fill="#FF4B8B" d="M57.6,97.5l-3.5-3.6c-0.5-0.5-0.4-1.3,0-1.7c0.5-0.5,1.3-0.4,1.7,0l1.8,1.9l10.6-9.8
			c0.5-0.5,1.3-0.4,1.7,0.1c0.5,0.5,0.4,1.3-0.1,1.7L57.6,97.5z"/>
		<path fill="#FF4B8B" d="M57.6,126l-3.5-3.6c-0.5-0.5-0.4-1.3,0-1.7c0.5-0.5,1.3-0.4,1.7,0l1.8,1.9l10.6-9.8
			c0.5-0.5,1.3-0.4,1.7,0.1c0.5,0.5,0.4,1.3-0.1,1.7L57.6,126z"/>
	</g>
	<g>
		<path fill="#6461FF" d="M208.2,121.7h-11.6c-2.2,0-4-1.8-4-4v-11.6c0-2.2,1.8-4,4-4h11.6c2.2,0,4,1.8,4,4v11.6
			C212.2,119.9,210.4,121.7,208.2,121.7z M196.5,104.5c-0.9,0-1.5,0.7-1.5,1.5v11.6c0,0.9,0.7,1.5,1.5,1.5h11.6
			c0.9,0,1.5-0.7,1.5-1.5v-11.6c0-0.9-0.7-1.5-1.5-1.5H196.5z"/>
		<path fill="#6461FF" d="M234.8,121.7h-11.6c-2.2,0-4-1.8-4-4v-11.6c0-2.2,1.8-4,4-4h11.6c2.2,0,4,1.8,4,4v11.6
			C238.8,119.9,237,121.7,234.8,121.7z M223.2,104.6c-0.9,0-1.5,0.7-1.5,1.5v11.6c0,0.9,0.7,1.5,1.5,1.5h11.6c0.9,0,1.5-0.7,1.5-1.5
			v-11.6c0-0.9-0.7-1.5-1.5-1.5H223.2z"/>
		<circle fill="#FF4B8B" cx="202.4" cy="111.9" r="1.9"/>
		<path fill="#FF4B8B" d="M228.9,115.2l-3.5-3.6c-0.5-0.5-0.4-1.3,0-1.7c0.5-0.5,1.3-0.4,1.7,0l1.8,1.9l10.6-9.8
			c0.5-0.5,1.3-0.4,1.7,0.1c0.5,0.5,0.4,1.3-0.1,1.7L228.9,115.2z"/>
		<path fill="#6461FF" d="M262.1,121.7h-11.6c-2.2,0-4-1.8-4-4v-11.6c0-2.2,1.8-4,4-4h11.6c2.2,0,4,1.8,4,4v11.6
			C266.1,119.9,264.3,121.7,262.1,121.7z M250.5,104.6c-0.9,0-1.5,0.7-1.5,1.5v11.6c0,0.9,0.7,1.5,1.5,1.5h11.6
			c0.9,0,1.5-0.7,1.5-1.5v-11.6c0-0.9-0.7-1.5-1.5-1.5H250.5z"/>
		<path fill="#FF4B8B" d="M256.3,115.2l-3.5-3.6c-0.5-0.5-0.4-1.3,0-1.7c0.5-0.5,1.3-0.4,1.7,0l1.8,1.9l10.6-9.8
			c0.5-0.5,1.3-0.4,1.7,0.1c0.5,0.5,0.4,1.3-0.1,1.7L256.3,115.2z"/>
	</g>
	<g>
		<circle fill="#FFC352" cx="181.8" cy="179.6" r="3.7"/>
		<path fill="#564273" d="M181.8,184.8c-2.9,0-5.2-2.3-5.2-5.2c0-2.9,2.3-5.2,5.2-5.2c2.9,0,5.2,2.3,5.2,5.2
			C187,182.5,184.7,184.8,181.8,184.8z M181.8,177.4c-1.2,0-2.2,1-2.2,2.2c0,1.2,1,2.2,2.2,2.2c1.2,0,2.2-1,2.2-2.2
			C184,178.4,183,177.4,181.8,177.4z"/>
	</g>
	<g>
		<circle fill="#FF4B8B" cx="277.8" cy="179.6" r="3.7"/>
		<path fill="#564273" d="M277.8,184.8c-2.9,0-5.2-2.3-5.2-5.2c0-2.9,2.3-5.2,5.2-5.2s5.2,2.3,5.2,5.2
			C283,182.5,280.6,184.8,277.8,184.8z M277.8,177.4c-1.2,0-2.2,1-2.2,2.2c0,1.2,1,2.2,2.2,2.2s2.2-1,2.2-2.2
			C280,178.4,279,177.4,277.8,177.4z"/>
	</g>
	<g>
		<circle fill="#FFC352" cx="14.4" cy="90.5" r="3.7"/>
		<path fill="#564273" d="M14.4,95.7c-2.9,0-5.2-2.3-5.2-5.2s2.3-5.2,5.2-5.2s5.2,2.3,5.2,5.2S17.3,95.7,14.4,95.7z M14.4,88.3
			c-1.2,0-2.2,1-2.2,2.2s1,2.2,2.2,2.2s2.2-1,2.2-2.2S15.6,88.3,14.4,88.3z"/>
	</g>
</g>
</svg>
