<?xml version="1.0" encoding="utf-8"?>
<!-- Generator: Adobe Illustrator 18.0.0, SVG Export Plug-In . SVG Version: 6.00 Build 0)  -->
<!DOCTYPE svg PUBLIC "-//W3C//DTD SVG 1.1//EN" "http://www.w3.org/Graphics/SVG/1.1/DTD/svg11.dtd">
<svg version="1.1" id="Layer_1" xmlns="http://www.w3.org/2000/svg" xmlns:xlink="http://www.w3.org/1999/xlink" x="0px" y="0px"
	 viewBox="0 0 520 350" enable-background="new 0 0 520 350" xml:space="preserve">
<g>
	<circle fill="#FFF7E8" cx="273.3" cy="175.2" r="153.4"/>
	<g>
		<g>
			<g>
				<rect x="18.8" y="130.4" fill="#FFFFFF" width="173.8" height="100.5"/>
				<path fill="#6461FF" d="M65.4,217.1c-0.5,0-1.1-0.2-1.5-0.5L53.5,209l-10.4,7.6c-0.8,0.6-1.8,0.7-2.7,0.2
					c-0.9-0.4-1.4-1.3-1.4-2.3v-41.1c0-1.4,1.2-2.6,2.6-2.6s2.6,1.2,2.6,2.6v36l7.8-5.7c0.9-0.7,2.2-0.7,3.1,0l7.8,5.7v-36.7
					c0-1.4,1.2-2.6,2.6-2.6c1.4,0,2.6,1.2,2.6,2.6v41.9c0,1-0.6,1.9-1.4,2.3C66.2,217,65.8,217.1,65.4,217.1z"/>
				<path fill="#564273" d="M202.3,243.2H9.2c-1.4,0-2.6-1.2-2.6-2.6V120.8c0-1.4,1.2-2.6,2.6-2.6h193.1c1.4,0,2.6,1.2,2.6,2.6
					v119.8C204.9,242,203.7,243.2,202.3,243.2z M11.8,238h187.9V123.4H11.8V238z"/>
				<path fill="#6461FF" d="M53.5,179.8c-10.1,0-18.3-8.2-18.3-18.3c0-10.1,8.2-18.3,18.3-18.3s18.3,8.2,18.3,18.3
					C71.7,171.6,63.5,179.8,53.5,179.8z M53.5,148.5c-7.2,0-13,5.8-13,13c0,7.2,5.8,13,13,13s13-5.8,13-13
					C66.5,154.3,60.7,148.5,53.5,148.5z"/>
			</g>
			<rect x="89.1" y="153.2" fill="#FFC352" width="85.9" height="11.3"/>
			<rect x="89.1" y="171.9" fill="#FFC352" width="71.3" height="11.3"/>
			<rect x="89.1" y="189.7" fill="#FFC352" width="45.6" height="11.3"/>
		</g>
		<g>
			<path fill="#FF4B8B" d="M307.7,147.2L307.7,147.2c-7.7-7.7-20.3-7.7-28,0l-5.5,5.6l-5.5-5.6c-7.7-7.7-20.3-7.7-28,0l0,0
				c-7.7,7.7-7.7,20.3,0,28l5.5,5.6l28,28l28-28l5.5-5.6C315.5,167.5,315.5,155,307.7,147.2z"/>
			<path fill="#564273" d="M274.1,211.5c-0.7,0-1.3-0.3-1.9-0.8l-33.6-33.6c-4.2-4.2-6.6-9.9-6.6-15.9c0-6,2.3-11.6,6.6-15.9
				c4.2-4.2,9.9-6.6,15.9-6.6c6,0,11.6,2.3,15.9,6.6l3.7,3.7l3.7-3.7c4.2-4.2,9.9-6.6,15.9-6.6c6,0,11.6,2.3,15.9,6.6
				c4.2,4.2,6.6,9.9,6.6,15.9c0,6-2.3,11.6-6.6,15.9L276,210.7C275.5,211.2,274.8,211.5,274.1,211.5z M254.5,144.1
				c-4.6,0-8.9,1.8-12.2,5c-3.3,3.3-5,7.6-5,12.2c0,4.6,1.8,8.9,5,12.2l31.7,31.7l31.7-31.7c3.3-3.3,5-7.6,5-12.2
				c0-4.6-1.8-8.9-5-12.2s-7.6-5-12.2-5s-8.9,1.8-12.2,5l-5.5,5.6c-1,1-2.7,1-3.7,0l-5.6-5.6C263.5,145.8,259.1,144.1,254.5,144.1z"
				/>
		</g>
		<g>
			<rect x="343.9" y="226.4" fill="#FFFFFF" width="161.5" height="14.2"/>
			<path fill="#564273" d="M505.4,243.2H343.9c-1.4,0-2.6-1.2-2.6-2.6v-14.2c0-1.4,1.2-2.6,2.6-2.6h161.5c1.4,0,2.6,1.2,2.6,2.6
				v14.2C508,242,506.8,243.2,505.4,243.2z M346.5,238h156.3V229H346.5V238z"/>
		</g>
		<g>
			<polygon fill="#FFFFFF" points="340.2,152.5 424.6,116.1 509,152.5 			"/>
			<path fill="#564273" d="M509.1,155.2C509.1,155.2,509.1,155.2,509.1,155.2H340.2c-1.2,0-2.3-0.9-2.6-2.1
				c-0.3-1.2,0.4-2.4,1.5-2.9l84.4-36.4c0.7-0.3,1.4-0.3,2.1,0l84.2,36.3c1.1,0.3,1.8,1.3,1.8,2.5
				C511.7,154,510.5,155.2,509.1,155.2z M352.9,149.9h143.5l-71.8-31L352.9,149.9z"/>
		</g>
		<g>
			<polyline fill="#F0F0FF" points="364.7,214.5 364.7,164.9 381.9,164.9 381.9,214.5 			"/>
			<path fill="#564273" d="M381.9,217.1c-1.4,0-2.6-1.2-2.6-2.6v-47h-12v47c0,1.4-1.2,2.6-2.6,2.6c-1.4,0-2.6-1.2-2.6-2.6v-49.6
				c0-1.4,1.2-2.6,2.6-2.6h17.2c1.4,0,2.6,1.2,2.6,2.6v49.6C384.6,215.9,383.4,217.1,381.9,217.1z"/>
		</g>
		<g>
			<polyline fill="#F0F0FF" points="416,214.5 416,164.9 433.2,164.9 433.2,214.5 			"/>
			<path fill="#564273" d="M433.2,217.1c-1.4,0-2.6-1.2-2.6-2.6v-47h-12v47c0,1.4-1.2,2.6-2.6,2.6c-1.4,0-2.6-1.2-2.6-2.6v-49.6
				c0-1.4,1.2-2.6,2.6-2.6h17.2c1.4,0,2.6,1.2,2.6,2.6v49.6C435.8,215.9,434.7,217.1,433.2,217.1z"/>
		</g>
		<g>
			<polyline fill="#F0F0FF" points="467.3,214.5 467.3,164.9 484.5,164.9 484.5,214.5 			"/>
			<path fill="#564273" d="M484.5,217.1c-1.4,0-2.6-1.2-2.6-2.6v-47h-12v47c0,1.4-1.2,2.6-2.6,2.6s-2.6-1.2-2.6-2.6v-49.6
				c0-1.4,1.2-2.6,2.6-2.6h17.2c1.4,0,2.6,1.2,2.6,2.6v49.6C487.1,215.9,485.9,217.1,484.5,217.1z"/>
		</g>
		<path fill="#564273" d="M185.5,289.5c-7,0-13.7-0.6-19.9-1.6c-33.6-5.2-58.5-21-59.6-21.7c-1.2-0.8-1.6-2.4-0.8-3.6
			c0.8-1.2,2.4-1.6,3.6-0.8c0.2,0.2,25.2,16,57.7,20.9c43.2,6.6,78.7-8.1,105.5-43.7c0.9-1.2,2.5-1.4,3.7-0.5
			c1.2,0.9,1.4,2.5,0.5,3.7C248.2,279.5,214,289.5,185.5,289.5z"/>
		<path fill="#564273" d="M274.1,118.7c-0.6,0-1.1-0.2-1.6-0.6c-1.1-0.9-1.3-2.5-0.4-3.7c0.7-0.8,16.5-20.6,43.5-33
			c25-11.5,64.5-18.3,110.5,14.4c1.2,0.8,1.5,2.5,0.6,3.6c-0.8,1.2-2.5,1.5-3.6,0.6c-35.3-25.1-70.7-29.7-105.3-13.9
			c-25.9,11.9-41.5,31.3-41.6,31.5C275.6,118.4,274.9,118.7,274.1,118.7z"/>
	</g>
	<g>
		<circle fill="#FFC352" cx="107.4" cy="264" r="6"/>
		<path fill="#564273" d="M107.4,272.2c-4.5,0-8.2-3.7-8.2-8.2c0-4.5,3.7-8.2,8.2-8.2c4.5,0,8.2,3.7,8.2,8.2
			C115.6,268.5,111.9,272.2,107.4,272.2z M107.4,260.2c-2.1,0-3.8,1.7-3.8,3.8c0,2.1,1.7,3.8,3.8,3.8c2.1,0,3.8-1.7,3.8-3.8
			C111.2,261.9,109.5,260.2,107.4,260.2z"/>
	</g>
	<g>
		<circle fill="#F0F0FF" cx="424.6" cy="98" r="6"/>
		<path fill="#564273" d="M424.6,106.2c-4.5,0-8.2-3.7-8.2-8.2c0-4.5,3.7-8.2,8.2-8.2c4.5,0,8.2,3.7,8.2,8.2
			C432.8,102.5,429.1,106.2,424.6,106.2z M424.6,94.2c-2.1,0-3.8,1.7-3.8,3.8c0,2.1,1.7,3.8,3.8,3.8s3.8-1.7,3.8-3.8
			C428.4,95.9,426.7,94.2,424.6,94.2z"/>
	</g>
	<g>
		<circle fill="#FF4B8B" cx="274.1" cy="240.6" r="6"/>
		<path fill="#564273" d="M274.1,248.8c-4.5,0-8.2-3.7-8.2-8.2s3.7-8.2,8.2-8.2c4.5,0,8.2,3.7,8.2,8.2S278.6,248.8,274.1,248.8z
			 M274.1,236.8c-2.1,0-3.8,1.7-3.8,3.8s1.7,3.8,3.8,3.8c2.1,0,3.8-1.7,3.8-3.8S276.2,236.8,274.1,236.8z"/>
	</g>
	<g>
		<circle fill="#FF4B8B" cx="274.1" cy="116.1" r="6"/>
		<path fill="#564273" d="M274.1,124.3c-4.5,0-8.2-3.7-8.2-8.2c0-4.5,3.7-8.2,8.2-8.2c4.5,0,8.2,3.7,8.2,8.2
			C282.3,120.6,278.6,124.3,274.1,124.3z M274.1,112.3c-2.1,0-3.8,1.7-3.8,3.8c0,2.1,1.7,3.8,3.8,3.8c2.1,0,3.8-1.7,3.8-3.8
			C277.9,114,276.2,112.3,274.1,112.3z"/>
	</g>
</g>
</svg>
