<?xml version="1.0" encoding="utf-8"?>
<!-- Generator: Adobe Illustrator 18.0.0, SVG Export Plug-In . SVG Version: 6.00 Build 0)  -->
<!DOCTYPE svg PUBLIC "-//W3C//DTD SVG 1.1//EN" "http://www.w3.org/Graphics/SVG/1.1/DTD/svg11.dtd">
<svg version="1.1" id="Layer_1" xmlns="http://www.w3.org/2000/svg" xmlns:xlink="http://www.w3.org/1999/xlink" x="0px" y="0px"
	 viewBox="0 0 350 350" enable-background="new 0 0 350 350" xml:space="preserve">
<g>
	<circle fill="#FFF7E8" cx="175" cy="175" r="153.4"/>
	<path fill="#FFFFFF" d="M178.8,294.1c-65.7,0-119.1-53.4-119.1-119.1c0-65.7,53.4-119.1,119.1-119.1c65.7,0,119.1,53.4,119.1,119.1
		C297.9,240.7,244.5,294.1,178.8,294.1z M178.8,58.9c-64,0-116.1,52.1-116.1,116.1s52.1,116.1,116.1,116.1S294.9,239,294.9,175
		S242.8,58.9,178.8,58.9z"/>
	<path fill="#6461FF" d="M166.5,200.2c0,0-0.1,0-0.1,0c-1.9,0-3.7-0.8-5-2.2l-11-11.8c-2.6-2.8-2.5-7.2,0.4-9.8
		c2.8-2.6,7.2-2.5,9.8,0.4l6.1,6.5l28.8-28.8c2.7-2.7,7.1-2.7,9.9,0c2.7,2.7,2.7,7.1,0,9.9l-33.9,33.9
		C170.1,199.5,168.3,200.2,166.5,200.2z"/>
	<path fill="#564273" d="M178.8,229.1c-29.8,0-54.1-24.3-54.1-54.1c0-15,6.3-29.5,17.3-39.7c1.1-1,2.7-0.9,3.7,0.1
		c1,1.1,0.9,2.7-0.1,3.7c-9.9,9.2-15.6,22.3-15.6,35.8c0,26.9,21.9,48.8,48.8,48.8s48.8-21.9,48.8-48.8s-21.9-48.8-48.8-48.8
		c-1.4,0-2.6-1.2-2.6-2.6c0-1.4,1.2-2.6,2.6-2.6c29.8,0,54.1,24.3,54.1,54.1C232.9,204.8,208.6,229.1,178.8,229.1z"/>
	<g>
		<circle fill="#FFC352" cx="143.6" cy="137.4" r="6"/>
		<path fill="#564273" d="M143.6,145.6c-4.5,0-8.2-3.7-8.2-8.2c0-4.5,3.7-8.2,8.2-8.2s8.2,3.7,8.2,8.2
			C151.8,141.9,148.1,145.6,143.6,145.6z M143.6,133.6c-2.1,0-3.8,1.7-3.8,3.8c0,2.1,1.7,3.8,3.8,3.8c2.1,0,3.8-1.7,3.8-3.8
			C147.4,135.3,145.7,133.6,143.6,133.6z"/>
	</g>
	<g>
		<circle fill="#FF4B8B" cx="178.8" cy="123.5" r="6"/>
		<path fill="#564273" d="M178.8,131.7c-4.5,0-8.2-3.7-8.2-8.2c0-4.5,3.7-8.2,8.2-8.2c4.5,0,8.2,3.7,8.2,8.2
			C187,128.1,183.3,131.7,178.8,131.7z M178.8,119.8c-2.1,0-3.8,1.7-3.8,3.8c0,2.1,1.7,3.8,3.8,3.8c2.1,0,3.8-1.7,3.8-3.8
			C182.6,121.5,180.9,119.8,178.8,119.8z"/>
	</g>
	<path fill="#FFFFFF" d="M204.6,266.5c-4.3,0-8.8-2-13.2-3.9c-4.3-1.9-8.7-3.8-12.6-3.8c-3.9,0-8.3,1.9-12.6,3.8
		c-4.4,1.9-9,3.9-13.2,3.9c-1.3,0-2.6-0.2-3.7-0.6c-5.6-1.8-8.9-7.5-12.1-13c-2.4-4.1-4.6-7.9-7.6-10.1c-3-2.2-7.6-3.2-12.1-4.2
		c-6.2-1.4-12.6-2.8-16-7.4c-3.4-4.6-2.7-11.1-2.1-17.4c0.4-4.6,0.9-9.3-0.3-12.9c-1.1-3.4-4-6.7-7.1-10.2
		c-4.3-4.8-8.7-9.8-8.7-15.7c0-6,4.4-10.9,8.7-15.7c3.1-3.5,6-6.8,7.1-10.2c1.2-3.6,0.7-8.3,0.3-12.9c-0.6-6.3-1.2-12.8,2.1-17.4
		c3.4-4.7,9.8-6.1,16-7.4c4.5-1,9.1-2,12.1-4.2c3-2.2,5.2-6,7.6-10.1c3.2-5.5,6.6-11.2,12.1-13c1.2-0.4,2.4-0.6,3.7-0.6
		c4.3,0,8.8,2,13.2,3.9c4.3,1.9,8.7,3.8,12.6,3.8c3.9,0,8.3-1.9,12.6-3.8c4.4-1.9,9-3.9,13.2-3.9c1.3,0,2.6,0.2,3.7,0.6
		c5.6,1.8,8.9,7.5,12.1,13c2.4,4.1,4.6,7.9,7.6,10.1c3,2.2,7.6,3.2,12.1,4.2c6.2,1.4,12.6,2.8,16,7.4c3.4,4.6,2.7,11.1,2.1,17.4
		c-0.4,4.6-0.9,9.3,0.3,12.9c1.1,3.4,4,6.7,7.1,10.2c4.3,4.8,8.7,9.8,8.7,15.7c0,6-4.4,10.9-8.7,15.7c-3.1,3.5-6,6.8-7.1,10.2
		c-1.2,3.6-0.7,8.3-0.3,12.9c0.6,6.3,1.2,12.8-2.1,17.4c-3.4,4.7-9.8,6.1-16,7.4c-4.5,1-9.1,2-12.1,4.2c-3,2.2-5.2,6-7.6,10.1
		c-3.2,5.5-6.6,11.2-12.1,13C207.2,266.3,205.9,266.5,204.6,266.5z M178.8,255.9c4.5,0,9.2,2,13.8,4c4.3,1.9,8.4,3.7,12.1,3.7
		c1,0,1.9-0.1,2.8-0.4c4.5-1.5,7.5-6.7,10.5-11.7c2.4-4.2,4.9-8.5,8.4-11c3.5-2.6,8.4-3.6,13.2-4.7c5.9-1.3,11.5-2.5,14.2-6.3
		c2.7-3.7,2.2-9.4,1.6-15.3c-0.5-4.9-1-9.9,0.4-14.1c1.3-4,4.6-7.7,7.7-11.2c3.9-4.4,8-8.9,8-13.8c0-4.9-4.1-9.4-8-13.8
		c-3.2-3.5-6.4-7.2-7.7-11.2c-1.4-4.2-0.9-9.2-0.4-14.1c0.6-6,1.1-11.6-1.6-15.3c-2.7-3.8-8.3-5-14.2-6.3c-4.7-1-9.7-2.1-13.2-4.7
		c-3.5-2.5-6-6.8-8.4-11c-2.9-5-6-10.2-10.5-11.7c-0.9-0.3-1.8-0.4-2.8-0.4c-3.6,0-7.7,1.8-12.1,3.7c-4.5,2-9.2,4-13.8,4
		c-4.5,0-9.2-2-13.8-4c-4.3-1.9-8.4-3.7-12.1-3.7c-1,0-1.9,0.1-2.8,0.4c-4.5,1.5-7.5,6.7-10.5,11.7c-2.4,4.2-4.9,8.5-8.4,11
		c-3.5,2.6-8.4,3.6-13.2,4.7c-5.9,1.3-11.5,2.5-14.2,6.3c-2.7,3.7-2.2,9.4-1.6,15.4c0.5,4.9,1,9.9-0.4,14.1c-1.3,4-4.6,7.7-7.7,11.2
		c-3.9,4.4-8,8.9-8,13.8c0,4.9,4,9.4,8,13.8c3.2,3.5,6.4,7.2,7.7,11.2c1.4,4.2,0.9,9.2,0.4,14.1c-0.6,6-1.1,11.6,1.6,15.3
		c2.7,3.8,8.3,5,14.2,6.3c4.7,1,9.7,2.1,13.2,4.7c3.5,2.5,6,6.8,8.4,11c2.9,5,6,10.2,10.5,11.7c0.9,0.3,1.8,0.4,2.8,0.4
		c3.7,0,7.7-1.8,12.1-3.7C169.6,257.9,174.3,255.9,178.8,255.9z"/>
	<path fill="#564273" d="M116,128.9l1.6-2.8c0.3-0.5,1-0.5,1.3,0l1.6,2.8c0.1,0.1,0.2,0.2,0.3,0.3l2.8,1.6c0.5,0.3,0.5,1,0,1.3
		l-2.8,1.6c-0.1,0.1-0.2,0.2-0.3,0.3l-1.6,2.8c-0.3,0.5-1,0.5-1.3,0l-1.6-2.8c-0.1-0.1-0.2-0.2-0.3-0.3l-2.8-1.6
		c-0.5-0.3-0.5-1,0-1.3l2.8-1.6C115.8,129.1,115.9,129,116,128.9z"/>
	<path fill="#564273" d="M271.3,204.2l1.6-2.8c0.3-0.5,1-0.5,1.3,0l1.6,2.8c0.1,0.1,0.2,0.2,0.3,0.3l2.8,1.6c0.5,0.3,0.5,1,0,1.3
		l-2.8,1.6c-0.1,0.1-0.2,0.2-0.3,0.3l-1.6,2.8c-0.3,0.5-1,0.5-1.3,0l-1.6-2.8c-0.1-0.1-0.2-0.2-0.3-0.3l-2.8-1.6
		c-0.5-0.3-0.5-1,0-1.3l2.8-1.6C271.1,204.5,271.2,204.4,271.3,204.2z"/>
	<path fill="#564273" d="M94.9,283.6l1.6-2.8c0.3-0.5,1-0.5,1.3,0l1.6,2.8c0.1,0.1,0.2,0.2,0.3,0.3l2.8,1.6c0.5,0.3,0.5,1,0,1.3
		l-2.8,1.6c-0.1,0.1-0.2,0.2-0.3,0.3l-1.6,2.8c-0.3,0.5-1,0.5-1.3,0l-1.6-2.8c-0.1-0.1-0.2-0.2-0.3-0.3l-2.8-1.6
		c-0.5-0.3-0.5-1,0-1.3l2.8-1.6C94.7,283.9,94.8,283.7,94.9,283.6z"/>
	<circle fill="#564273" cx="203.3" cy="250.3" r="2.8"/>
	<circle fill="#564273" cx="238.6" cy="94.1" r="2.8"/>
	<path fill="#564273" d="M238.6,134.9c-1.9,0-3.5-1.6-3.5-3.5s1.6-3.5,3.5-3.5s3.5,1.6,3.5,3.5S240.5,134.9,238.6,134.9z
		 M238.6,129.4c-1.1,0-2,0.9-2,2c0,1.1,0.9,2,2,2c1.1,0,2-0.9,2-2C240.6,130.3,239.7,129.4,238.6,129.4z"/>
	<path fill="#564273" d="M121,259.3c-1.9,0-3.5-1.6-3.5-3.5c0-1.9,1.6-3.5,3.5-3.5c1.9,0,3.5,1.6,3.5,3.5
		C124.5,257.8,122.9,259.3,121,259.3z M121,253.8c-1.1,0-2,0.9-2,2c0,1.1,0.9,2,2,2c1.1,0,2-0.9,2-2
		C123,254.7,122.1,253.8,121,253.8z"/>
	<path fill="#564273" d="M51.1,127.1c-1.9,0-3.5-1.6-3.5-3.5s1.6-3.5,3.5-3.5s3.5,1.6,3.5,3.5S53,127.1,51.1,127.1z M51.1,121.5
		c-1.1,0-2,0.9-2,2c0,1.1,0.9,2,2,2s2-0.9,2-2C53.1,122.4,52.2,121.5,51.1,121.5z"/>
	<circle fill="#564273" cx="154.9" cy="40.7" r="2.8"/>
	<circle fill="#564273" cx="40.6" cy="175" r="2.8"/>
	<circle fill="#564273" cx="313.5" cy="162.8" r="2.8"/>
	<path fill="#564273" d="M121.3,224.6c-0.3,0-0.5-0.1-0.8-0.2l-2.2-1.2l-0.5-0.7l0.3,0.7l-2.2,1.2c-0.7,0.4-1.6,0.2-2.1-0.4
		c-0.3-0.4-0.4-0.9-0.4-1.3l0.4-2.5c0-0.1,0-0.1-0.1-0.2l-1.8-1.8c-0.5-0.4-0.6-1.1-0.4-1.7c0.2-0.6,0.7-1,1.3-1.1l2.5-0.4
		c0.1,0,0.1,0,0.1-0.1l1.1-2.3c0.3-0.6,0.9-0.9,1.5-0.9c0.6,0,1.2,0.4,1.5,0.9l1.1,2.3c0,0.1,0.1,0.1,0.1,0.1l2.5,0.4
		c0.6,0.1,1.1,0.5,1.3,1.1c0.2,0.6,0,1.3-0.4,1.7l-1.8,1.8c0,0-0.1,0.1-0.1,0.2l0.4,2.5c0.1,0.5,0,1-0.4,1.4
		C122.2,224.3,121.8,224.6,121.3,224.6z M118.2,221.7c0.3,0,0.5,0.1,0.8,0.2l2.3,1.2c0.1,0,0.1,0,0.2-0.1c0,0,0-0.1,0-0.2l-0.4-2.5
		c-0.1-0.5,0.1-1.1,0.5-1.5l1.8-1.8c0.1-0.1,0.1-0.1,0-0.2c0-0.1-0.1-0.1-0.2-0.1l-2.5-0.4c-0.5-0.1-1-0.4-1.3-0.9l-1.1-2.3
		c-0.1-0.2-0.3-0.2-0.3,0l-1.1,2.3c-0.2,0.5-0.7,0.8-1.3,0.9l-2.5,0.4c-0.1,0-0.1,0.1-0.2,0.1c0,0.1,0,0.1,0,0.2l1.8,1.8
		c0.4,0.4,0.6,0.9,0.5,1.5l-0.4,2.5c0,0.1,0,0.1,0,0.2c0,0,0.1,0.1,0.2,0.1l2.3-1.2C117.7,221.8,117.9,221.7,118.2,221.7z"/>
	<path fill="#564273" d="M254.3,298.2c-0.3,0-0.5-0.1-0.8-0.2l-2.2-1.2l-0.5-0.7l0.3,0.7l-2.2,1.2c-0.7,0.4-1.6,0.2-2.1-0.4
		c-0.3-0.4-0.4-0.9-0.4-1.4l0.4-2.5c0-0.1,0-0.1-0.1-0.2l-1.8-1.8c-0.5-0.4-0.6-1.1-0.4-1.7c0.2-0.6,0.7-1,1.3-1.1l2.5-0.4
		c0.1,0,0.1,0,0.1-0.1l1.1-2.3c0.3-0.6,0.9-0.9,1.5-0.9c0.6,0,1.2,0.4,1.5,0.9l1.1,2.3c0,0.1,0.1,0.1,0.1,0.1l2.5,0.4
		c0.6,0.1,1.1,0.5,1.3,1.1c0.2,0.6,0,1.3-0.4,1.7l-1.8,1.8c0,0-0.1,0.1-0.1,0.2l0.4,2.5c0.1,0.5-0.1,1-0.4,1.3
		C255.2,298,254.8,298.2,254.3,298.2z M251.2,295.4c0.3,0,0.5,0.1,0.8,0.2l2.3,1.2c0.1,0,0.1,0,0.2-0.1c0,0,0.1-0.1,0-0.2l-0.4-2.5
		c-0.1-0.5,0.1-1.1,0.5-1.5l1.8-1.8c0.1-0.1,0.1-0.1,0-0.2c0-0.1-0.1-0.1-0.2-0.1l-2.5-0.4c-0.5-0.1-1-0.4-1.3-0.9l-1.1-2.3
		c-0.1-0.2-0.3-0.2-0.3,0l-1.1,2.3c-0.2,0.5-0.7,0.8-1.3,0.9l-2.5,0.4c-0.1,0-0.1,0.1-0.2,0.1c0,0.1,0,0.1,0,0.2l1.8,1.8
		c0.4,0.4,0.6,0.9,0.5,1.5l-0.4,2.5c0,0.1,0,0.1,0,0.2c0,0,0.1,0.1,0.2,0.1l2.3-1.2C250.6,295.5,250.9,295.4,251.2,295.4z"/>
	<path fill="#564273" d="M121.3,100.5c-0.3,0-0.5-0.1-0.8-0.2l-2.2-1.2l-0.5-0.7l0.3,0.7l-2.2,1.2c-0.7,0.4-1.6,0.2-2.1-0.4
		c-0.3-0.4-0.4-0.9-0.4-1.4l0.4-2.5c0-0.1,0-0.1-0.1-0.2l-1.8-1.8c-0.5-0.4-0.6-1.1-0.4-1.7c0.2-0.6,0.7-1,1.3-1.1l2.5-0.4
		c0.1,0,0.1,0,0.1-0.1l1.1-2.3c0.3-0.6,0.9-0.9,1.5-0.9c0.6,0,1.2,0.4,1.5,0.9l1.1,2.3c0,0.1,0.1,0.1,0.1,0.1l2.5,0.4
		c0.6,0.1,1.1,0.5,1.3,1.1c0.2,0.6,0,1.3-0.4,1.7l-1.8,1.8c0,0-0.1,0.1-0.1,0.2l0.4,2.5c0.1,0.5,0,1-0.4,1.4
		C122.2,100.3,121.8,100.5,121.3,100.5z M118.2,97.7c0.3,0,0.5,0.1,0.8,0.2l2.3,1.2c0.1,0,0.1,0,0.2-0.1c0,0,0.1-0.1,0-0.2l-0.4-2.5
		c-0.1-0.5,0.1-1.1,0.5-1.5l1.8-1.8c0.1-0.1,0.1-0.1,0-0.2c0-0.1-0.1-0.1-0.2-0.1l-2.5-0.4c-0.5-0.1-1-0.4-1.3-0.9l-1.1-2.3
		c-0.1-0.2-0.3-0.2-0.3,0l-1.1,2.3c-0.2,0.5-0.7,0.8-1.3,0.9l-2.5,0.4c-0.1,0-0.1,0.1-0.2,0.1c0,0.1,0,0.1,0,0.2l1.8,1.8
		c0.4,0.4,0.6,0.9,0.5,1.5l-0.4,2.5c0,0.1,0,0.1,0,0.2c0,0,0.1,0.1,0.2,0.1l2.3-1.2C117.7,97.7,117.9,97.7,118.2,97.7z"/>
	<path fill="#564273" d="M276.6,149.8c-0.3,0-0.5-0.1-0.8-0.2l-2.2-1.2h-0.2l-2.2,1.2c-0.7,0.4-1.6,0.2-2.1-0.4
		c-0.3-0.4-0.4-0.9-0.4-1.4l0.4-2.5c0-0.1,0-0.1-0.1-0.2l-1.8-1.8c-0.5-0.4-0.6-1.1-0.4-1.7c0.2-0.6,0.7-1,1.3-1.1l2.5-0.4
		c0.1,0,0.1-0.1,0.1-0.1l1.1-2.3c0.3-0.6,0.9-0.9,1.5-0.9c0.6,0,1.2,0.4,1.5,0.9l1.1,2.3c0,0.1,0.1,0.1,0.1,0.1l2.5,0.4
		c0.6,0.1,1.1,0.5,1.3,1.1c0.2,0.6,0,1.3-0.4,1.7l-1.8,1.8c0,0-0.1,0.1-0.1,0.2l0.4,2.5c0.1,0.5-0.1,1-0.4,1.4
		C277.6,149.6,277.1,149.8,276.6,149.8z M273.5,146.9c0.3,0,0.5,0.1,0.8,0.2l2.3,1.2c0.1,0,0.1,0,0.2-0.1c0,0,0.1-0.1,0-0.2
		l-0.4-2.5c-0.1-0.5,0.1-1.1,0.5-1.5l1.8-1.8c0.1-0.1,0.1-0.1,0-0.2c0-0.1-0.1-0.1-0.2-0.1l-2.5-0.4c-0.5-0.1-1-0.4-1.3-0.9
		l-1.1-2.3c-0.1-0.2-0.3-0.2-0.3,0l-1.1,2.3c-0.2,0.5-0.7,0.8-1.3,0.9l-2.5,0.4c-0.1,0-0.1,0.1-0.2,0.1c0,0.1,0,0.1,0.1,0.2l1.8,1.8
		c0.4,0.4,0.6,0.9,0.5,1.5l-0.4,2.5c0,0.1,0,0.1,0,0.2c0,0,0.1,0.1,0.2,0.1l2.3-1.2C273,147,273.2,146.9,273.5,146.9z"/>
</g>
</svg>
