<?xml version="1.0" encoding="utf-8"?>
<!-- Generator: Adobe Illustrator 18.0.0, SVG Export Plug-In . SVG Version: 6.00 Build 0)  -->
<!DOCTYPE svg PUBLIC "-//W3C//DTD SVG 1.1//EN" "http://www.w3.org/Graphics/SVG/1.1/DTD/svg11.dtd">
<svg version="1.1" id="Layer_1" xmlns="http://www.w3.org/2000/svg" xmlns:xlink="http://www.w3.org/1999/xlink" x="0px" y="0px"
	 viewBox="0 0 120 120" enable-background="new 0 0 120 120" xml:space="preserve">
<g>
	<g>
		<circle fill="#FFF3DC" cx="60" cy="60" r="27"/>
		<path fill="#564273" d="M60,93.6c-18.5,0-33.6-15.1-33.6-33.6c0-8.3,3-16.2,8.6-22.4c0.6-0.6,1.5-0.7,2.1-0.1
			c0.6,0.6,0.7,1.5,0.1,2.1c-5,5.6-7.8,12.9-7.8,20.4c0,16.9,13.7,30.6,30.6,30.6c16.9,0,30.6-13.7,30.6-30.6
			c0-16.4-12.9-29.8-29.1-30.6v13.4c0,0.8-0.7,1.5-1.5,1.5s-1.5-0.7-1.5-1.5V26.4H60c18.5,0,33.6,15.1,33.6,33.6
			C93.6,78.5,78.5,93.6,60,93.6z"/>
		<path fill="#564273" d="M43.1,61.2h-4.3c-0.8,0-1.5-0.7-1.5-1.5s0.7-1.5,1.5-1.5h4.3c0.8,0,1.5,0.7,1.5,1.5S44,61.2,43.1,61.2z"/>
		<path fill="#564273" d="M81.2,61.2h-4.3c-0.8,0-1.5-0.7-1.5-1.5s0.7-1.5,1.5-1.5h4.3c0.8,0,1.5,0.7,1.5,1.5S82,61.2,81.2,61.2z"/>
		<path fill="#6461FF" d="M60,67c-0.8,0-1.5-0.7-1.5-1.5v-5L45.7,43.8c-0.5-0.7-0.4-1.6,0.3-2.1c0.7-0.5,1.6-0.4,2.1,0.3l13.1,17.1
			c0.2,0.3,0.3,0.6,0.3,0.9v5.5C61.5,66.4,60.8,67,60,67z"/>
	</g>
	<path fill="#564273" d="M60,82.4c-0.8,0-1.5-0.7-1.5-1.5v-4.3c0-0.8,0.7-1.5,1.5-1.5s1.5,0.7,1.5,1.5v4.3
		C61.5,81.7,60.8,82.4,60,82.4z"/>
</g>
</svg>
