<?xml version="1.0" encoding="utf-8"?>
<!-- Generator: Adobe Illustrator 18.0.0, SVG Export Plug-In . SVG Version: 6.00 Build 0)  -->
<!DOCTYPE svg PUBLIC "-//W3C//DTD SVG 1.1//EN" "http://www.w3.org/Graphics/SVG/1.1/DTD/svg11.dtd">
<svg version="1.1" id="Layer_1" xmlns="http://www.w3.org/2000/svg" xmlns:xlink="http://www.w3.org/1999/xlink" x="0px" y="0px"
	 viewBox="0 0 165 40" enable-background="new 0 0 165 40" xml:space="preserve">
<g>
	<g>
		<g>
			<path fill="#858585" d="M17.3,36.9c-1.8,0-3.4-0.2-4.9-0.5c-2.1-0.5-4-1.1-5.7-2c-0.5-0.3-1-0.5-1.5-0.8
				c-0.2-0.1-0.4-0.2-0.7-0.4l-0.7-0.4l0.6-1.3l0.6,0.1c3.5,0.3,6.7-0.4,9.5-2.1c-1.1-0.3-2.1-0.8-2.9-1.5c-1.5-1.1-2.5-2.5-3.1-4.4
				l-0.4-1.3l1.3,0.2c-0.7-0.5-1.3-1.1-1.8-1.7c-1.3-1.6-1.9-3.5-2-5.7l0-1.3l1.2,0.6c0.2,0.1,0.4,0.2,0.6,0.3
				c-0.7-1-1.2-2.1-1.5-3.3c-0.5-2.2-0.2-4.4,1-6.4l0.6-1L8.2,5c4.1,4.8,9,7.4,15.1,8.1c0-0.2,0-0.3,0-0.5c-0.1-2.8,0.8-5.1,2.9-7
				c1.7-1.6,3.7-2.4,5.9-2.4c0.6,0,1.3,0.1,1.9,0.2c1.7,0.3,3.1,1.1,4.4,2.3c1.5-0.3,2.9-0.9,4.2-1.6c0.1,0,0.1-0.1,0.2-0.1
				c0,0,0.1,0,0.1-0.1l1.7-0.8l-0.6,1.8c-0.3,1-0.8,1.9-1.4,2.7c0.5-0.2,1-0.3,1.4-0.5l2.5-1L45,8.3c-0.8,1.2-1.6,2.2-2.6,3.1
				c-0.4,0.3-0.8,0.7-1.2,1c0.1,2.3-0.2,4.7-0.9,7c-0.5,2-1.3,3.9-2.4,5.6c-1.1,1.9-2.5,3.7-4,5.2c-2.1,2.1-4.6,3.8-7.4,4.9
				c-2.6,1-5.3,1.6-8.2,1.7C18,36.9,17.7,36.9,17.3,36.9z M8.2,33.3c1.4,0.6,2.9,1.1,4.5,1.5c1.7,0.4,3.5,0.5,5.5,0.4
				c2.7-0.1,5.3-0.6,7.6-1.6c2.6-1,4.9-2.6,6.9-4.5c1.4-1.4,2.7-3.1,3.7-4.9c0.9-1.7,1.7-3.4,2.2-5.3c0.6-2.2,0.9-4.4,0.8-6.6
				c0-0.5,0.2-1,0.6-1.3c0.4-0.3,0.8-0.7,1.2-1c0.2-0.2,0.4-0.4,0.6-0.6c-0.6,0.2-1.3,0.3-2,0.3L37,10l2.5-1.7
				c0.8-0.6,1.5-1.2,2-1.9c-0.9,0.4-1.8,0.7-2.8,0.9c-0.5,0.1-1,0-1.3-0.4c-1-1-2.2-1.7-3.6-1.9c-2.5-0.5-4.6,0.1-6.4,1.8
				c-1.6,1.5-2.4,3.4-2.3,5.7c0,0.3,0,0.6,0.1,0.9c0,0.2,0,0.3,0.1,0.5l0.1,1l-1-0.1c-6.5-0.4-12-3.1-16.4-7.8
				c-0.5,1.4-0.6,2.7-0.3,4.2c0.4,1.8,1.4,3.2,3,4.4l2.1,1.5l-2.6,0c-1,0-1.9-0.2-2.7-0.5c0.2,1.2,0.7,2.3,1.5,3.3
				c1,1.3,2.4,2.1,4.1,2.6l3,0.8l-3,0.8c-0.8,0.2-1.6,0.3-2.4,0.3c0.5,1,1.2,1.7,2.1,2.4c1.2,0.9,2.6,1.4,4.2,1.5l2.2,0.1l-1.7,1.3
				C14.6,31.9,11.5,33.1,8.2,33.3z"/>
		</g>
	</g>
	<g>
		<path fill="#858585" d="M58.3,12.5c0,0.2,0,0.3-0.1,0.4l-10,20c-0.2,0.3-0.5,0.5-0.9,0.5c-0.6,0-1.1-0.5-1.1-1
			c0-0.1,0-0.3,0.1-0.4l10.1-20.1c0.2-0.4,0.5-0.5,0.8-0.5C57.7,11.4,58.3,11.9,58.3,12.5z"/>
		<path fill="#858585" d="M58.5,21.1c-0.1-0.1-0.1-0.3-0.1-0.5c0-0.7,1.1-1.2,1.9-1.2c0.4,0,0.7,0.1,0.9,0.5l3.3,8.6l3.3-8.6
			c0.1-0.4,0.4-0.6,0.9-0.6c0.6,0,1.9,0.5,1.9,1.2c0,0.2-0.1,0.3-0.1,0.5l-4.6,11.1c-0.2,0.4-0.7,0.6-1.3,0.6
			c-0.6,0-1.1-0.2-1.3-0.6L58.5,21.1z"/>
		<path fill="#858585" d="M75.2,14.8c0,0.8-0.7,1.5-1.7,1.5c-0.9,0-1.7-0.7-1.7-1.5c0-0.8,0.7-1.5,1.7-1.5
			C74.5,13.3,75.2,14,75.2,14.8z M75,20.5v11.1c0,0.5-0.6,1-1.4,1s-1.4-0.5-1.4-1V20.5c0-0.5,0.6-0.9,1.4-0.9S75,19.9,75,20.5z"/>
		<path fill="#858585" d="M87.7,24.7v6.9c0,0.5-0.6,1-1.4,1c-0.7,0-1.3-0.4-1.3-1v-1c-1,1.1-2.3,2.1-4.1,2.1c-2,0-3.6-1.1-3.6-3.6
			c0-3.1,2.6-3.9,6.4-3.9h1.2v-0.5c0-1.4-0.7-3-2.7-3c-2,0-2.5,0.8-3,0.8c-0.7,0-1-0.8-1-1.4c0-1,2.3-1.7,4.1-1.7
			C86.2,19.4,87.7,21.9,87.7,24.7z M84.8,26.8h-0.7c-2.1,0-4,0.2-4,2c0,1.2,0.8,1.8,1.8,1.8c1.4,0,2.9-1.4,2.9-2.7V26.8z"/>
		<path fill="#858585" d="M101.2,24.4c0,2.3-1.3,2.4-2.5,2.4H93v0.6c0,1.8,1.4,3,3.6,3c1.9,0,2.6-1,3.3-1c0.7,0,1.1,0.8,1.1,1.3
			c0,0.8-1.8,2.1-4.5,2.1c-3.7,0-6.3-2.2-6.3-5.4v-2.6c0-2.9,2.5-5.3,5.7-5.3C98.7,19.4,101.2,21.4,101.2,24.4z M97.5,25
			c0.8,0,1-0.2,1-0.8c0-1.4-1.2-2.6-2.8-2.6c-1.5,0-2.8,1.1-2.8,2.6V25H97.5z"/>
		<path fill="#858585" d="M114.4,12.8v18.8c0,0.5-0.6,1-1.4,1c-0.7,0-1.3-0.5-1.3-1v-1c-0.5,1.1-2.1,2.1-3.8,2.1
			c-2.6,0-4.8-2.6-4.8-5.4v-2.5c0-3,2.2-5.4,4.9-5.4c1.7,0,3,1,3.6,2.1v-8.7c0-0.5,0.6-0.9,1.4-0.9S114.4,12.2,114.4,12.8z
			 M105.9,27.3c0,1.5,1.3,2.9,2.8,2.9c1.6,0,2.8-1.6,2.8-2.3v-3.1c0-1.8-1.4-2.8-2.8-2.8c-1.5,0-2.8,1.4-2.8,2.8V27.3z"/>
		<path fill="#858585" d="M117.3,27.3v-6.8c0-0.5,0.7-1,1.4-1c0.8,0,1.4,0.5,1.4,1v6.8c0,1.4,1.3,2.8,2.8,2.8c1.6,0,2.8-1.4,2.8-2.8
			v-6.9c0-0.5,0.7-0.9,1.4-0.9c0.8,0,1.4,0.4,1.4,0.9v6.9c0,2.9-2.5,5.4-5.6,5.4S117.3,30.2,117.3,27.3z"/>
		<path fill="#858585" d="M130,32.5h8.7c0.5,0,1,0.5,1,1.2c0,0.7-0.5,1.2-1,1.2H130c-0.5,0-0.9-0.5-0.9-1.2
			C129.1,33,129.5,32.5,130,32.5z"/>
		<path fill="#858585" d="M150,24.7v6.9c0,0.5-0.6,1-1.4,1c-0.7,0-1.3-0.4-1.3-1v-1c-1,1.1-2.3,2.1-4.1,2.1c-2,0-3.6-1.1-3.6-3.6
			c0-3.1,2.6-3.9,6.4-3.9h1.2v-0.5c0-1.4-0.7-3-2.7-3c-2,0-2.5,0.8-3,0.8c-0.7,0-1-0.8-1-1.4c0-1,2.3-1.7,4.1-1.7
			C148.5,19.4,150,21.9,150,24.7z M147.1,26.8h-0.7c-2.1,0-4,0.2-4,2c0,1.2,0.8,1.8,1.8,1.8c1.4,0,2.9-1.4,2.9-2.7V26.8z"/>
		<path fill="#858585" d="M159.1,21.9c-1.7,0-3.3,1.5-3.3,4v5.6c0,0.5-0.7,1-1.5,1c-0.8,0-1.4-0.5-1.4-1V20.5c0-0.5,0.6-0.9,1.4-0.9
			c0.7,0,1.3,0.4,1.3,0.9v1.2c0.6-1.1,1.9-2.3,3.5-2.3h0.9c0.6,0,1.1,0.6,1.1,1.3c0,0.7-0.5,1.3-1.1,1.3H159.1z"/>
	</g>
</g>
</svg>
