<?xml version="1.0" encoding="utf-8"?>
<!-- Generator: Adobe Illustrator 18.0.0, SVG Export Plug-In . SVG Version: 6.00 Build 0)  -->
<!DOCTYPE svg PUBLIC "-//W3C//DTD SVG 1.1//EN" "http://www.w3.org/Graphics/SVG/1.1/DTD/svg11.dtd">
<svg version="1.1" id="Layer_1" xmlns="http://www.w3.org/2000/svg" xmlns:xlink="http://www.w3.org/1999/xlink" x="0px" y="0px"
	 viewBox="0 0 120 120" enable-background="new 0 0 120 120" xml:space="preserve">
<g>
	<path fill="#6461FF" d="M18.6,95.9c-0.4,0-0.8-0.1-1.1-0.4c-0.6-0.6-0.6-1.5,0-2.1l19.3-19.1c0.6-0.6,1.5-0.6,2.1,0
		c0.6,0.6,0.6,1.5,0,2.1L19.6,95.5C19.3,95.7,19,95.9,18.6,95.9z"/>
	<path fill="#6461FF" d="M82.1,46.2c-0.4,0-0.8-0.1-1.1-0.4c-0.6-0.6-0.6-1.5,0-2.1l19.3-19.1c0.6-0.6,1.5-0.6,2.1,0
		c0.6,0.6,0.6,1.5,0,2.1L83.2,45.7C82.9,46,82.5,46.2,82.1,46.2z"/>
	<path fill="#6461FF" d="M28.2,76.6c-0.4,0-0.8-0.1-1.1-0.4c-0.6-0.6-0.6-1.5,0-2.1l7.5-7.4c0.6-0.6,1.5-0.6,2.1,0
		c0.6,0.6,0.6,1.5,0,2.1l-7.5,7.4C29,76.5,28.6,76.6,28.2,76.6z"/>
	<path fill="#6461FF" d="M84.3,53.8c-0.4,0-0.8-0.1-1.1-0.4c-0.6-0.6-0.6-1.5,0-2.1l7.5-7.4c0.6-0.6,1.5-0.6,2.1,0
		c0.6,0.6,0.6,1.5,0,2.1l-7.5,7.4C85.1,53.7,84.7,53.8,84.3,53.8z"/>
	<g>
		<polygon fill="#FFF3DC" points="42.8,60 77.6,25.6 67.6,60 79.9,60 45.2,94.3 55.2,60 		"/>
		<path fill="#564273" d="M42.1,99.4l11.1-38h-14l41.4-41l-11.1,38h14L42.1,99.4z M46.5,58.5h10.7l-8.9,30.7l28-27.7H65.6l8.9-30.7
			L46.5,58.5z"/>
	</g>
</g>
</svg>
