<?xml version="1.0" encoding="utf-8"?>
<!-- Generator: Adobe Illustrator 18.0.0, SVG Export Plug-In . SVG Version: 6.00 Build 0)  -->
<!DOCTYPE svg PUBLIC "-//W3C//DTD SVG 1.1//EN" "http://www.w3.org/Graphics/SVG/1.1/DTD/svg11.dtd">
<svg version="1.1" id="Layer_1" xmlns="http://www.w3.org/2000/svg" xmlns:xlink="http://www.w3.org/1999/xlink" x="0px" y="0px"
	 viewBox="0 0 60 60" enable-background="new 0 0 60 60" xml:space="preserve">
<g>
	<g>
		<path fill="#858585" d="M40.5,39.6L37,46.2c-2.9,5.5-10.9,6.5-13.8,0.4c0-0.1-0.1-0.2-0.1-0.2c0,0,0-0.1-0.1-0.1l-3.5-6.5
			L9.1,19.9c-1.7-3.8,0.1-8.3,3.9-10c1-0.4,2-0.6,3.1-0.6c3,0,5.7,1.8,6.9,4.5c0,0,0,0.1,0.1,0.1l5,9.4l2,3.7l2-3.7l-2-3.7l-3.8-7.3
			c-1.8-4-5.7-6.5-10.1-6.5c-1.5,0-3,0.3-4.5,0.9C8.9,8,6.8,10.2,5.8,12.9c-1.1,2.8-1,5.8,0.2,8.5c0,0,0,0.1,0.1,0.1l13.9,26.3
			c0,0.1,0.1,0.2,0.1,0.3c0,0.1,0.1,0.2,0.1,0.3c0.1,0.2,0.2,0.4,0.4,0.7c4.7,7.7,16.5,6.6,19.7-1.8C41.3,44.8,41.3,42.1,40.5,39.6z
			"/>
		<g>
			<path fill="#858585" d="M40,47.9c0.1-0.2,0.2-0.5,0.3-0.7C39.9,48,39.8,48.3,40,47.9z"/>
			<path fill="#858585" d="M54.2,12.9C54.5,13.6,54.8,14.3,54.2,12.9C53.7,11.5,54,12.2,54.2,12.9c-1.1-2.8-3.1-4.9-5.8-6.1
				c-1.4-0.6-2.9-0.9-4.5-0.9c-4.4,0-8.3,2.6-10.1,6.5l-3.1,5.8l0.4,0.8l1.5,2.9l4.2-8c0,0,0-0.1,0.1-0.1c1.2-2.7,3.9-4.5,6.9-4.5
				C45,9.3,46,9.5,47,10c1.9,0.8,3.3,2.3,4,4.2c0.7,1.9,0.7,3.9-0.1,5.8L41.3,38l0.4,1.2c0.5,1.4,0.7,2.8,0.7,4.2l11.6-22
				c0,0,0-0.1,0.1-0.1C55.2,18.7,55.3,15.7,54.2,12.9z"/>
		</g>
		<circle fill="#858585" cx="16" cy="16.9" r="2.6"/>
		<circle fill="#858585" cx="44" cy="16.9" r="2.6"/>
		<circle fill="#858585" cx="30" cy="43.2" r="2.6"/>
		<g>
			<g>
				<g>
					<path fill="#858585" d="M30,37.5L19.8,18.1c-0.1,0.5-0.4,0.9-0.7,1.3c-0.7,0.9-1.8,1.4-3,1.4c-0.2,0-0.5,0-0.7-0.1
						c-0.1,0-0.2,0-0.3-0.1L26.3,42c0.1-0.5,0.4-0.9,0.7-1.3c0.7-0.9,1.8-1.4,3-1.4c0.2,0,0.5,0,0.7,0.1c0.1,0,0.2,0,0.3,0.1
						L30,37.5z"/>
					<path fill="#858585" d="M31.2,36.9l1.1,2l1.5,2.9L45,20.6c-0.3,0.1-0.7,0.2-1.1,0.2c-0.2,0-0.5,0-0.7-0.1
						c-1.4-0.3-2.5-1.3-2.9-2.6l-9.5,17.9L31.2,36.9z"/>
				</g>
			</g>
		</g>
	</g>
</g>
</svg>
